<?xml version="1.0" encoding="UTF-8"?><svg xmlns="http://www.w3.org/2000/svg" xmlns:xlink="http://www.w3.org/1999/xlink" viewBox="0 0 622.04 461.09"><defs><style>.cls-1{fill:#fff;}.cls-2,.cls-3{fill:#005d92;}.cls-2,.cls-4{mix-blend-mode:color-burn;opacity:.5;}.cls-5{mix-blend-mode:multiply;}.cls-5,.cls-6,.cls-7{fill:#b9e0f6;}.cls-8{fill:#cedfe3;mix-blend-mode:screen;opacity:.52;}.cls-9,.cls-10{mix-blend-mode:hue;}.cls-9,.cls-10,.cls-11{fill:#e0b84c;}.cls-12{isolation:isolate;}.cls-13{fill:#849faf;}.cls-14{fill:#c8e6f4;}.cls-15{opacity:.44;}.cls-16{opacity:.34;}.cls-4,.cls-17{fill:none;}.cls-10{opacity:.51;}.cls-18{clip-path:url(#clippath);}.cls-19{fill:#d04554;}.cls-20{fill:#92d0f3;}.cls-7{mix-blend-mode:overlay;opacity:.67;}.cls-11{mix-blend-mode:exclusion;}</style><clipPath id="clippath"><rect class="cls-17" x="470.23" y="301.37" width="89.72" height="53.56"/></clipPath></defs><g class="cls-12"><g id="Layer_2"><g id="Layer_1-2"><g><rect class="cls-14" x="186.53" y="236.05" width="241.39" height="225.04" rx="5.14" ry="5.14"/><g><rect class="cls-5" x="213.62" y="254.53" width="17.95" height="133.79" rx="2.48" ry="2.48"/><rect class="cls-7" x="247.54" y="254.53" width="17.95" height="133.79" rx="2.48" ry="2.48"/><rect class="cls-7" x="281.45" y="254.53" width="17.95" height="133.79" rx="2.48" ry="2.48"/><rect class="cls-5" x="315.37" y="254.53" width="17.95" height="133.79" rx="2.48" ry="2.48"/><rect class="cls-7" x="349.29" y="254.53" width="17.95" height="133.79" rx="2.48" ry="2.48"/><rect class="cls-7" x="383.2" y="254.53" width="17.95" height="133.79" rx="2.48" ry="2.48"/></g><rect class="cls-7" x="271.16" y="410.29" width="72.14" height="50.8"/><rect class="cls-7" x="289.19" y="410.29" width="36.07" height="50.8"/><rect class="cls-11" x="271.16" y="407.27" width="72.14" height="6.72"/></g><g><rect class="cls-3" x="44.44" y="180.37" width="172.68" height="154.73" rx="6.64" ry="6.64"/><g><path class="cls-7" d="M130.78,202.1c-6.51,0-11.78,5.27-11.78,11.78v30.89h23.56v-30.89c0-6.51-5.27-11.78-11.78-11.78Z"/><path class="cls-7" d="M79,202.1c-6.51,0-11.78,5.27-11.78,11.78v30.89h23.56v-30.89c0-6.51-5.27-11.78-11.78-11.78Z"/><path class="cls-7" d="M182.57,202.1c-6.51,0-11.78,5.27-11.78,11.78v30.89h23.56v-30.89c0-6.51-5.27-11.78-11.78-11.78Z"/></g><g><polygon class="cls-2" points="180.05 277.39 130.04 277.39 130.04 287.97 130.04 291.5 130.04 335.1 167.87 335.1 167.87 291.5 180.05 291.5 180.05 277.39"/><polygon class="cls-2" points="81.52 277.39 131.53 277.39 131.53 287.97 131.53 291.5 131.53 335.1 93.7 335.1 93.7 291.5 81.52 291.5 81.52 277.39"/><rect class="cls-11" x="93.7" y="291.5" width="74.17" height="3.05"/></g><rect class="cls-11" x="60.8" y="225.51" width="12.82" height="12.82"/></g><g><rect class="cls-20" x="411.22" y="63.26" width="210.82" height="291.67" rx="10.41" ry="10.41"/><rect class="cls-6" x="431.8" y="79.98" width="33.2" height="199.22"/><rect class="cls-6" x="501.85" y="79.98" width="33.2" height="199.22"/><rect class="cls-6" x="571.89" y="79.98" width="33.2" height="199.22"/><g><rect class="cls-8" x="431.8" y="111.36" width="33.2" height="17.57"/><rect class="cls-8" x="431.8" y="161.45" width="33.2" height="17.57"/><rect class="cls-8" x="431.8" y="211.54" width="33.2" height="17.57"/><rect class="cls-8" x="431.8" y="261.63" width="33.2" height="17.57"/><rect class="cls-8" x="501.85" y="111.36" width="33.2" height="17.57"/><rect class="cls-8" x="501.85" y="161.45" width="33.2" height="17.57"/><rect class="cls-8" x="501.85" y="211.54" width="33.2" height="17.57"/><rect class="cls-8" x="501.85" y="261.63" width="33.2" height="17.57"/><rect class="cls-8" x="571.89" y="111.36" width="33.2" height="17.57"/><rect class="cls-8" x="571.89" y="161.45" width="33.2" height="17.57"/><rect class="cls-8" x="571.89" y="211.54" width="33.2" height="17.57"/><rect class="cls-8" x="571.89" y="261.63" width="33.2" height="17.57"/></g><rect class="cls-2" x="470.23" y="301.37" width="89.72" height="53.56"/><rect class="cls-2" x="467.05" y="301.37" width="6.6" height="53.56"/><rect class="cls-9" x="431.8" y="179.02" width="33.2" height="32.52"/><rect class="cls-9" x="501.85" y="79.98" width="33.2" height="32.52"/><rect class="cls-9" x="571.89" y="229.11" width="33.2" height="32.52"/><rect class="cls-10" x="571.89" y="179.02" width="33.2" height="32.52"/><rect class="cls-11" x="424.33" y="231.96" width="14.94" height="14.94" rx="6.18" ry="6.18"/><rect class="cls-11" x="597.62" y="121.46" width="14.94" height="14.94"/><rect class="cls-4" x="470.23" y="301.37" width="89.72" height="53.56"/><g class="cls-16"><g class="cls-18"><rect class="cls-8" x="505.39" y="283.01" width="26.11" height="90.29" transform="translate(-94.62 353.1) rotate(-34.66)"/></g></g></g><g><circle class="cls-19" cx="553.45" cy="27.39" r="27.39"/><polygon class="cls-19" points="529.25 40.26 553.45 79.46 577.65 40.26 529.25 40.26"/><circle class="cls-1" cx="553.45" cy="27.39" r="11.6"/></g><g class="cls-15"><path class="cls-13" d="M87.35,429.45H32c-.83,0-1.5-.67-1.5-1.5s.67-1.5,1.5-1.5h55.35c.83,0,1.5,.67,1.5,1.5s-.67,1.5-1.5,1.5Z"/></g><g class="cls-15"><path class="cls-13" d="M16.85,429.45H1.5c-.83,0-1.5-.67-1.5-1.5s.67-1.5,1.5-1.5h15.35c.83,0,1.5,.67,1.5,1.5s-.67,1.5-1.5,1.5Z"/></g></g></g></g></svg>