<?xml version="1.0" encoding="UTF-8"?><svg xmlns="http://www.w3.org/2000/svg" xmlns:xlink="http://www.w3.org/1999/xlink" viewBox="0 0 532.62 442.18"><defs><style>.cls-1{fill:#fff;}.cls-2,.cls-3{fill:#005d92;}.cls-2,.cls-4{mix-blend-mode:color-burn;opacity:.5;}.cls-5{fill:#cedfe3;mix-blend-mode:screen;opacity:.52;}.cls-6,.cls-7{mix-blend-mode:hue;}.cls-6,.cls-7,.cls-8{fill:#e0b84c;}.cls-9{isolation:isolate;}.cls-10{opacity:.34;}.cls-11,.cls-12{fill:#b9e0f6;}.cls-4,.cls-13{fill:none;}.cls-7{opacity:.51;}.cls-14{fill:#c7dde2;}.cls-15{clip-path:url(#clippath);}.cls-16{fill:#d04554;}.cls-17{fill:#92d0f3;}.cls-12{mix-blend-mode:overlay;opacity:.67;}.cls-8{mix-blend-mode:exclusion;}</style><clipPath id="clippath"><rect class="cls-13" x="59.02" y="388.62" width="89.72" height="53.56"/></clipPath></defs><g class="cls-9"><g id="Layer_2"><g id="Layer_1-2"><rect class="cls-17" y="150.51" width="210.82" height="291.67" rx="10.41" ry="10.41"/><rect class="cls-11" x="20.58" y="167.22" width="33.2" height="199.22"/><rect class="cls-11" x="90.63" y="167.22" width="33.2" height="199.22"/><rect class="cls-11" x="160.67" y="167.22" width="33.2" height="199.22"/><rect class="cls-5" x="20.58" y="198.61" width="33.2" height="17.57"/><rect class="cls-5" x="20.58" y="248.7" width="33.2" height="17.57"/><rect class="cls-5" x="20.58" y="298.79" width="33.2" height="17.57"/><rect class="cls-5" x="20.58" y="348.88" width="33.2" height="17.57"/><rect class="cls-5" x="90.63" y="198.61" width="33.2" height="17.57"/><rect class="cls-5" x="90.63" y="248.7" width="33.2" height="17.57"/><rect class="cls-5" x="90.63" y="298.79" width="33.2" height="17.57"/><rect class="cls-5" x="90.63" y="348.88" width="33.2" height="17.57"/><rect class="cls-5" x="160.67" y="198.61" width="33.2" height="17.57"/><rect class="cls-5" x="160.67" y="248.7" width="33.2" height="17.57"/><rect class="cls-5" x="160.67" y="298.79" width="33.2" height="17.57"/><rect class="cls-5" x="160.67" y="348.88" width="33.2" height="17.57"/><rect class="cls-2" x="59.02" y="388.62" width="89.72" height="53.56"/><rect class="cls-2" x="55.83" y="388.62" width="6.6" height="53.56"/><rect class="cls-6" x="20.58" y="266.27" width="33.2" height="32.52"/><rect class="cls-6" x="90.63" y="167.22" width="33.2" height="32.52"/><rect class="cls-6" x="160.67" y="316.36" width="33.2" height="32.52"/><rect class="cls-7" x="160.67" y="266.27" width="33.2" height="32.52"/><rect class="cls-8" x="13.11" y="319.2" width="14.94" height="14.94" rx="6.18" ry="6.18"/><rect class="cls-8" x="186.41" y="208.7" width="14.94" height="14.94"/><rect class="cls-4" x="59.02" y="388.62" width="89.72" height="53.56"/><g class="cls-10"><g class="cls-15"><rect class="cls-5" x="94.18" y="370.26" width="26.11" height="90.29" transform="translate(-217.22 134.71) rotate(-34.66)"/></g></g><circle class="cls-16" cx="427.49" cy="141.72" r="24.65"/><polygon class="cls-16" points="405.71 153.31 427.49 188.59 449.27 153.31 405.71 153.31"/><circle class="cls-1" cx="427.49" cy="141.72" r="10.44"/><rect class="cls-3" x="324.98" y="215.29" width="207.55" height="185.97" rx="7.98" ry="7.98"/><path class="cls-12" d="m428.86,236.27c-9.38,0-16.99,7.61-16.99,16.99v44.55h33.98v-44.55c0-9.38-7.61-16.99-16.99-16.99Z"/><path class="cls-12" d="m365.97,236.27c-9.38,0-16.99,7.61-16.99,16.99v44.55h33.98v-44.55c0-9.38-7.61-16.99-16.99-16.99Z"/><path class="cls-12" d="m491.53,236.27c-9.38,0-16.99,7.61-16.99,16.99v44.55h33.98v-44.55c0-9.38-7.61-16.99-16.99-16.99Z"/><polygon class="cls-2" points="325.07 331.9 385.18 331.9 385.18 344.62 385.18 348.85 385.18 401.25 339.71 401.25 339.71 348.85 325.07 348.85 325.07 331.9"/><polygon class="cls-2" points="443.49 331.9 433.15 331.9 383.39 331.9 383.39 344.62 383.39 348.85 383.39 401.25 428.85 401.25 428.85 348.85 433.15 348.85 443.49 348.85 532.62 348.85 532.62 331.9 443.49 331.9"/><rect class="cls-8" x="338" y="348.85" width="182.72" height="3.66"/><rect class="cls-8" x="341.74" y="262.94" width="15.41" height="15.41"/><rect class="cls-12" x="433.06" y="348.85" width="43.67" height="52.4"/><rect class="cls-12" x="474.71" y="348.85" width="43.67" height="52.4"/><rect class="cls-11" x="479.28" y="375.05" width="2.19" height="5.66"/><rect class="cls-11" x="469.67" y="375.05" width="2.19" height="5.66"/><rect class="cls-2" x="347.12" y="296.34" width="36.49" height="2.73"/><rect class="cls-2" x="410.01" y="296.34" width="36.49" height="2.73"/><rect class="cls-2" x="472.68" y="296.34" width="36.49" height="2.73"/><path class="cls-14" d="m107.23,113.17c-.13,0-.27-.01-.41-.04-1.08-.23-1.78-1.28-1.55-2.36.04-.19.98-4.67,3.64-11.81.38-1.04,1.54-1.56,2.57-1.18,1.04.39,1.56,1.54,1.18,2.57-2.54,6.83-3.47,11.19-3.48,11.23-.2.94-1.03,1.59-1.96,1.59Zm315.94-27.16c-.77,0-1.5-.45-1.83-1.2-1.53-3.5-3.32-7.04-5.32-10.54-.55-.96-.21-2.18.75-2.73.96-.55,2.18-.21,2.73.75,2.06,3.62,3.92,7.29,5.51,10.92.44,1.01-.02,2.19-1.03,2.63-.26.11-.53.17-.8.17Zm-304.03-2.56c-.33,0-.65-.08-.96-.25-.97-.53-1.32-1.75-.79-2.72,1.94-3.54,4.05-7.05,6.29-10.42.61-.92,1.85-1.18,2.77-.57.92.61,1.17,1.85.57,2.77-2.17,3.29-4.23,6.7-6.12,10.14-.36.66-1.05,1.04-1.76,1.04Zm287.35-24.69c-.58,0-1.17-.26-1.56-.75-2.45-3.05-5.08-6.03-7.82-8.86-.77-.79-.75-2.06.05-2.83.79-.77,2.06-.75,2.83.05,2.82,2.91,5.53,5.99,8.06,9.13.69.86.56,2.12-.31,2.81-.37.3-.81.44-1.25.44Zm-269-1.47c-.47,0-.94-.16-1.32-.5-.83-.73-.91-1.99-.18-2.82,2.67-3.03,5.5-5.99,8.41-8.79.79-.76,2.06-.74,2.83.06.76.8.74,2.06-.06,2.83-2.83,2.72-5.58,5.6-8.18,8.54-.4.45-.95.68-1.5.68Zm246.13-20.79c-.42,0-.85-.13-1.21-.41-3.11-2.37-6.37-4.64-9.7-6.75-.93-.59-1.21-1.83-.62-2.76s1.83-1.21,2.76-.62c3.42,2.17,6.78,4.51,9.98,6.95.88.67,1.05,1.92.38,2.8-.39.52-.99.79-1.59.79Zm-222.5-.68c-.62,0-1.23-.29-1.62-.83-.65-.89-.45-2.15.45-2.79,3.25-2.35,6.65-4.61,10.12-6.72.94-.57,2.17-.27,2.75.67.57.94.27,2.17-.67,2.75-3.38,2.05-6.69,4.25-9.85,6.54-.35.26-.77.38-1.17.38Zm195.09-15.67c-.28,0-.56-.06-.83-.18-3.53-1.61-7.21-3.13-10.94-4.51-1.04-.38-1.57-1.53-1.19-2.57.38-1.04,1.54-1.56,2.57-1.18,3.82,1.41,7.6,2.96,11.22,4.62,1,.46,1.45,1.65.99,2.65-.34.73-1.06,1.17-1.82,1.17Zm-167.41-.21c-.77,0-1.5-.44-1.83-1.19-.45-1.01,0-2.19,1.02-2.64,3.65-1.62,7.43-3.14,11.25-4.51,1.04-.37,2.19.16,2.56,1.2s-.17,2.19-1.2,2.56c-3.73,1.34-7.43,2.83-10.99,4.4-.26.12-.54.17-.81.17Zm30.25-10.16c-.9,0-1.72-.62-1.94-1.53-.26-1.07.4-2.15,1.48-2.41,3.86-.93,7.84-1.76,11.85-2.47,1.1-.19,2.13.53,2.32,1.62.19,1.09-.53,2.13-1.62,2.32-3.92.7-7.83,1.51-11.61,2.42-.16.04-.31.06-.47.06Zm106.97,0c-.16,0-.32-.02-.47-.06-3.78-.92-7.68-1.74-11.61-2.44-1.09-.19-1.81-1.23-1.62-2.32.19-1.09,1.23-1.81,2.32-1.62,4.01.72,7.99,1.56,11.85,2.49,1.07.26,1.73,1.34,1.47,2.42-.22.91-1.04,1.53-1.94,1.53Zm-75.44-5.03c-1.03,0-1.9-.79-1.99-1.83-.1-1.1.72-2.07,1.82-2.16,3.94-.34,8-.59,12.06-.75,1.14-.04,2.03.82,2.08,1.92.04,1.1-.82,2.03-1.92,2.07-4,.15-7.99.4-11.87.73-.06,0-.12,0-.17,0Zm43.92-.03c-.06,0-.11,0-.17,0-3.87-.33-7.87-.57-11.87-.72-1.1-.04-1.97-.97-1.93-2.07.04-1.1.95-1.96,2.07-1.93,4.07.15,8.12.39,12.06.73,1.1.09,1.92,1.06,1.82,2.16-.09,1.04-.96,1.83-1.99,1.83Z"/></g></g></g></svg>