<?xml version="1.0" encoding="UTF-8"?><svg xmlns="http://www.w3.org/2000/svg" viewBox="0 0 682.32 390.07"><defs><style>.cls-1,.cls-2,.cls-3,.cls-4,.cls-5,.cls-6,.cls-7{mix-blend-mode:multiply;}.cls-1,.cls-4{opacity:.52;}.cls-8{fill:#fff;}.cls-2{fill:#b5d1e1;}.cls-9{fill:#e6faff;}.cls-10{isolation:isolate;}.cls-3{fill:#bf4153;}.cls-11,.cls-5{fill:#005d92;}.cls-4,.cls-12,.cls-13{fill:#96daf7;}.cls-14{fill:#c8e6f4;}.cls-12{mix-blend-mode:screen;}.cls-15{fill:#8c3143;mix-blend-mode:hard-light;}.cls-16,.cls-17{fill:#2680c7;}.cls-18{fill:#c7dde2;}.cls-6{opacity:.16;}.cls-19{fill:#d04554;}.cls-7{opacity:.36;}.cls-20{fill:#d4f3ff;}.cls-21{fill:#4542ce;}.cls-22{fill:#92d8f4;}.cls-23{opacity:.79;}.cls-17{mix-blend-mode:overlay;}.cls-24{opacity:.25;}.cls-25{fill:#010101;}</style></defs><g class="cls-10"><g id="Layer_2"><g id="Layer_1-2"><path class="cls-18" d="m680.32,169.1h-79.38c-1.1,0-2-.9-2-2s.9-2,2-2h79.38c1.1,0,2,.9,2,2s-.9,2-2,2Z"/><path class="cls-18" d="m43.46,285.68H2c-1.1,0-2-.9-2-2s.9-2,2-2h41.46c1.1,0,2,.9,2,2s-.9,2-2,2Z"/><path class="cls-18" d="m68.72,285.68h-13.44c-1.1,0-2-.9-2-2s.9-2,2-2h13.44c1.1,0,2,.9,2,2s-.9,2-2,2Z"/><path class="cls-25" d="m580.76,337.97H149.98c-8.02,0-15.47-6.5-16.62-14.53L88.79,14.53c-1.16-8.02,4.41-14.53,12.43-14.53h430.77c8.02,0,15.47,6.5,16.62,14.53l44.56,308.91c1.16,8.02-4.41,14.53-12.43,14.53Z"/><polygon class="cls-14" points="579.9 323.56 146.68 323.56 102.09 14.41 535.3 14.41 579.9 323.56"/><polygon class="cls-25" points="595.29 337.97 135.45 337.97 132.4 316.83 592.24 316.83 595.29 337.97"/><polygon class="cls-25" points="301.81 327.4 297.75 390.07 435.14 390.07 423.62 327.4 301.81 327.4"/><polygon class="cls-25" points="586.48 328.9 137.96 328.9 138.59 309.52 587.11 309.52 586.48 328.9"/><path class="cls-11" d="m207.57,162.09c.54,3.81-2.17,6.93-6.02,6.93h-56.21c-3.85,0-7.44-3.12-7.98-6.93l-17.87-126.88c-.54-3.81,2.17-6.93,6.02-6.93h56.21c3.85,0,7.44,3.12,7.98,6.93l17.87,126.88Z"/><path class="cls-9" d="m306.69,287.61c.54,3.81-2.17,6.93-6.02,6.93h-137.65c-3.85,0-7.44-3.12-7.98-6.93l-14.14-100.39c-.54-3.81,2.17-6.93,6.02-6.93h137.65c3.85,0,7.44,3.12,7.98,6.93l14.14,100.39Z"/><path class="cls-9" d="m354.49,162.09c.54,3.81-2.17,6.93-6.02,6.93h-121.65c-3.85,0-7.44-3.12-7.98-6.93l-17.87-126.88c-.54-3.81,2.17-6.93,6.02-6.93h121.65c3.85,0,7.44,3.12,7.98,6.93l17.87,126.88Z"/><path class="cls-4" d="m352.5,28.27h52.68c2.13,0,3.93,1.57,4.22,3.67l18.62,132.21c.36,2.57-1.63,4.86-4.22,4.86h-52.68c-2.13,0-3.93-1.57-4.22-3.67l-18.62-132.21c-.36-2.57,1.63-4.86,4.22-4.86Z"/><polygon class="cls-20" points="546.18 180.28 427.18 180.28 443.27 294.54 562.27 294.54 546.18 180.28"/><path class="cls-22" d="m561.89,295.54h-5c-.55,0-1-.45-1-1s.45-1,1-1h5c.55,0,1,.45,1,1s-.45,1-1,1Zm-12,0h-5c-.55,0-1-.45-1-1s.45-1,1-1h5c.55,0,1,.45,1,1s-.45,1-1,1Zm-12,0h-5c-.55,0-1-.45-1-1s.45-1,1-1h5c.55,0,1,.45,1,1s-.45,1-1,1Zm-12,0h-5c-.55,0-1-.45-1-1s.45-1,1-1h5c.55,0,1,.45,1,1s-.45,1-1,1Zm-12,0h-5c-.55,0-1-.45-1-1s.45-1,1-1h5c.55,0,1,.45,1,1s-.45,1-1,1Zm-12,0h-5c-.55,0-1-.45-1-1s.45-1,1-1h5c.55,0,1,.45,1,1s-.45,1-1,1Zm-12,0h-5c-.55,0-1-.45-1-1s.45-1,1-1h5c.55,0,1,.45,1,1s-.45,1-1,1Zm-12,0h-5c-.55,0-1-.45-1-1s.45-1,1-1h5c.55,0,1,.45,1,1s-.45,1-1,1Zm-12,0h-5c-.55,0-1-.45-1-1s.45-1,1-1h5c.55,0,1,.45,1,1s-.45,1-1,1Zm-12,0h-5c-.55,0-1-.45-1-1s.45-1,1-1h5c.55,0,1,.45,1,1s-.45,1-1,1Zm-10.81-1.37c-.49,0-.92-.36-.99-.86l-.7-4.95c-.08-.55.3-1.05.85-1.13.56-.09,1.05.3,1.13.85l.7,4.95c.08.55-.3,1.05-.85,1.13-.05,0-.09,0-.14,0Zm118.27-5.19c-.49,0-.92-.36-.99-.86l-.7-4.95c-.08-.55.3-1.05.85-1.13.56-.09,1.05.3,1.13.85l.7,4.95c.08.55-.3,1.05-.85,1.13-.05,0-.09,0-.14,0Zm-119.94-6.7c-.49,0-.92-.36-.99-.86l-.7-4.95c-.08-.55.3-1.05.85-1.13.56-.08,1.05.3,1.13.85l.7,4.95c.08.55-.3,1.05-.85,1.13-.05,0-.09,0-.14,0Zm118.27-5.19c-.49,0-.92-.36-.99-.86l-.7-4.95c-.08-.55.3-1.05.85-1.13.56-.08,1.05.3,1.13.85l.7,4.95c.08.55-.3,1.05-.85,1.13-.05,0-.09,0-.14,0Zm-119.94-6.69c-.49,0-.92-.36-.99-.86l-.7-4.95c-.08-.55.3-1.05.85-1.13.56-.08,1.05.3,1.13.85l.7,4.95c.08.55-.3,1.05-.85,1.13-.05,0-.09,0-.14,0Zm118.27-5.19c-.49,0-.92-.36-.99-.86l-.7-4.95c-.08-.55.3-1.05.85-1.13.56-.08,1.05.31,1.13.85l.7,4.95c.08.55-.3,1.05-.85,1.13-.05,0-.09,0-.14,0Zm-119.94-6.69c-.49,0-.92-.36-.99-.86l-.7-4.95c-.08-.55.3-1.05.85-1.13.56-.08,1.05.3,1.13.85l.7,4.95c.08.55-.3,1.05-.85,1.13-.05,0-.09,0-.14,0Zm118.27-5.19c-.49,0-.92-.36-.99-.86l-.7-4.95c-.08-.55.3-1.05.85-1.13.56-.08,1.05.3,1.13.85l.7,4.95c.08.55-.3,1.05-.85,1.13-.05,0-.09,0-.14,0Zm-119.94-6.69c-.49,0-.92-.36-.99-.86l-.7-4.95c-.08-.55.3-1.05.85-1.13.56-.08,1.05.3,1.13.85l.7,4.95c.08.55-.3,1.05-.85,1.13-.05,0-.09,0-.14,0Zm118.27-5.19c-.49,0-.92-.36-.99-.86l-.7-4.95c-.08-.55.3-1.05.85-1.13.56-.08,1.05.3,1.13.85l.7,4.95c.08.55-.3,1.05-.85,1.13-.05,0-.09,0-.14,0Zm-119.94-6.69c-.49,0-.92-.36-.99-.86l-.7-4.95c-.08-.55.3-1.05.85-1.13.56-.09,1.05.3,1.13.85l.7,4.95c.08.55-.3,1.05-.85,1.13-.05,0-.09,0-.14,0Zm118.27-5.19c-.49,0-.92-.36-.99-.86l-.7-4.95c-.08-.55.3-1.05.85-1.13.56-.09,1.05.3,1.13.85l.7,4.95c.08.55-.3,1.05-.85,1.13-.05,0-.09,0-.14,0Zm-119.94-6.69c-.49,0-.92-.36-.99-.86l-.7-4.95c-.08-.55.3-1.05.85-1.13.56-.08,1.05.3,1.13.85l.7,4.95c.08.55-.3,1.05-.85,1.13-.05,0-.09,0-.14,0Zm118.27-5.19c-.49,0-.92-.36-.99-.86l-.7-4.95c-.08-.55.3-1.05.85-1.13.56-.08,1.05.3,1.13.85l.7,4.95c.08.55-.3,1.05-.85,1.13-.05,0-.09,0-.14,0Zm-119.94-6.69c-.49,0-.92-.36-.99-.86l-.7-4.95c-.08-.55.3-1.05.85-1.13.56-.08,1.05.31,1.13.85l.7,4.95c.08.55-.3,1.05-.85,1.13-.05,0-.09,0-.14,0Zm118.27-5.19c-.49,0-.92-.36-.99-.86l-.7-4.95c-.08-.55.3-1.05.85-1.13.56-.08,1.05.3,1.13.85l.7,4.95c.08.55-.3,1.05-.85,1.13-.05,0-.09,0-.14,0Zm-119.94-6.69c-.49,0-.92-.36-.99-.86l-.7-4.95c-.08-.55.3-1.05.85-1.13.56-.08,1.05.3,1.13.85l.7,4.95c.08.55-.3,1.05-.85,1.13-.05,0-.09,0-.14,0Zm118.27-5.19c-.49,0-.92-.36-.99-.86l-.7-4.95c-.08-.55.3-1.05.85-1.13.56-.08,1.05.3,1.13.85l.7,4.95c.08.55-.3,1.05-.85,1.13-.05,0-.09,0-.14,0Zm-119.94-6.69c-.49,0-.92-.36-.99-.86l-.7-4.95c-.08-.55.3-1.05.85-1.13.56-.08,1.05.3,1.13.85l.7,4.95c.08.55-.3,1.05-.85,1.13-.05,0-.09,0-.14,0Zm118.27-5.19c-.46,0-.86-.31-.97-.75h-4.14c-.55,0-1-.45-1-1s.45-1,1-1h5c.5,0,.92.37.99.86l.11.75c.08.55-.3,1.05-.85,1.13-.05,0-.09,0-.14,0Zm-12.11-.75h-5c-.55,0-1-.45-1-1s.45-1,1-1h5c.55,0,1,.45,1,1s-.45,1-1,1Zm-12,0h-5c-.55,0-1-.45-1-1s.45-1,1-1h5c.55,0,1,.45,1,1s-.45,1-1,1Zm-12,0h-5c-.55,0-1-.45-1-1s.45-1,1-1h5c.55,0,1,.45,1,1s-.45,1-1,1Zm-12,0h-5c-.55,0-1-.45-1-1s.45-1,1-1h5c.55,0,1,.45,1,1s-.45,1-1,1Zm-12,0h-5c-.55,0-1-.45-1-1s.45-1,1-1h5c.55,0,1,.45,1,1s-.45,1-1,1Zm-12,0h-5c-.55,0-1-.45-1-1s.45-1,1-1h5c.55,0,1,.45,1,1s-.45,1-1,1Zm-12,0h-5c-.55,0-1-.45-1-1s.45-1,1-1h5c.55,0,1,.45,1,1s-.45,1-1,1Zm-12,0h-5c-.55,0-1-.45-1-1s.45-1,1-1h5c.55,0,1,.45,1,1s-.45,1-1,1Zm-12,0h-5c-.55,0-1-.45-1-1s.45-1,1-1h5c.55,0,1,.45,1,1s-.45,1-1,1Z"/><path class="cls-12" d="m540.42,169.02h-96.68c-1.81,0-3.34-1.33-3.59-3.12l-18.8-133.5c-.31-2.18,1.39-4.13,3.59-4.13h96.68c1.81,0,3.34,1.33,3.59,3.12l18.8,133.5c.31,2.18-1.39,4.13-3.59,4.13Z"/><path class="cls-13" d="m160.9,94.72c3.97,2.41,7.19,9.63,10.68,14.49,1.23,1.71,1.17,1.78-.65,2.68-3.53,1.75-7.11,3.43-10.63,5.19-1.22.61-2,.54-2.77-.73-2.1-3.44-4.36-6.81-6.45-10.25-1.46-2.4-2.13-4.95-1.81-7.55.55-4.53,4.2-5.85,8.94-4.86.13.04,1.55.34,2.69,1.04Z"/><path class="cls-8" d="m170.6,134.06c-3.97-2.41-7.19-9.63-10.68-14.49-1.23-1.71-1.17-1.78.65-2.68,3.53-1.75,7.11-3.43,10.63-5.19,1.22-.61,2-.54,2.77.73,2.1,3.44,4.36,6.81,6.45,10.25,1.46,2.4,2.13,4.95,1.81,7.55-.55,4.53-4.2,5.85-8.94,4.86-.13-.04-1.55-.34-2.69-1.04Z"/><path class="cls-19" d="m231.4,275.71c-.67,0-1.27-.45-1.45-1.11l-16.63-61.45-.72,29.99c-.02.81-.69,1.46-1.5,1.46h-35.78c-.83,0-1.5-.67-1.5-1.5s.67-1.5,1.5-1.5h34.32l.94-38.85c.02-.75.58-1.36,1.32-1.45.74-.08,1.43.38,1.63,1.1l16.12,59.57-.62-29.3c-.02-.74.52-1.39,1.25-1.51.74-.13,1.45.31,1.68,1.01l4.69,14.42.52-3.7c.1-.74.74-1.29,1.49-1.29h35.15c.83,0,1.5.67,1.5,1.5s-.67,1.5-1.5,1.5h-33.84l-1.24,8.84c-.1.69-.66,1.22-1.35,1.29-.69.06-1.34-.37-1.56-1.03l-3.56-10.94.67,31.42c.02.76-.54,1.41-1.29,1.52-.07.01-.14.02-.21.02Z"/><path class="cls-11" d="m399.26,294.54h-46.73c-18.57,0-35.74-15.09-38.37-33.7l-6.6-46.85c-2.62-18.61,10.31-33.7,28.87-33.7h46.73c18.57,0,35.74,15.09,38.37,33.7l6.6,46.85c2.62,18.61-10.31,33.7-28.87,33.7Z"/><path class="cls-8" d="m342.57,207.88c6.01.26,12.09,1.01,17.77,3.84,3.6,1.8,6.05,1.69,9.35.28,7.99-3.4,16.68-4.9,26.12-2.87,6.81,1.46,7.83,2.86,6.63,9.41-1.56,8.54-4.77,16.19-11.62,21.28-3.28,2.44-4.59,5.41-4.75,9.53-.31,7.95-3.04,14.94-6.85,21.39-3.24,5.49-6.23,5.68-11.31.31-6.16-6.51-10.13-14.26-12.71-22.39-1.4-4.41-3.11-7.63-7.53-10.3-8.24-4.97-13.82-12.6-18.12-20.96-2.35-4.57-1.85-5.7,2.52-7.68,3.24-1.47,6.78-1.94,10.5-1.84Zm29.33,12.54c-.04,1.57.85,2.44,1.58,3.38,2.2,2.83,2.36,5.76-.13,7.44-3.18,2.15-4.19-1.65-5.77-3.54-.58-.69-1.07-1.46-1.69-2.12-6.89-7.37-18.68-10.36-26.94-6.63,2.75,4.74,6.42,8.62,10.79,11.89,1.67,1.25,3.15,2.02,5.45,1.3,7.43-2.33,8.6-1.24,8.09,6.57-.05.83-.28,1.62-.36,2.44-.94,9.18,3.21,16.93,9.62,24.64,3.6-3.23,4.06-7.41,4.77-11.33,1.19-6.52.99-6.64-5.64-11.18-1.81-1.24-3.53-2.57-3.12-4.88.38-2.13,2.42-1.92,4.02-1.71,13.23,1.7,17.35-7.48,21.52-16.58,1.34-2.91.61-4.9-3.24-4.9-7.11,0-13.98.58-18.95,5.21Z"/><path class="cls-16" d="m157.92,93.37h-2.58c-9.48,0-18.26-7.71-19.6-17.21l-.36-2.59c-1.34-9.51,5.26-17.21,14.75-17.21h2.58c9.48,0,18.26,7.71,19.6,17.21l.36,2.59c1.34,9.51-5.26,17.21-14.75,17.21Z"/><path class="cls-5" d="m160.61,38.52l-2.24-.21c-1.81-.17-3.21,1.15-3.13,2.95l.61,12.77c.09,1.79,1.63,3.38,3.44,3.55l2.24.21c1.81.17,3.21-1.15,3.13-2.95l-.61-12.77c-.09-1.79-1.63-3.38-3.44-3.55Z"/><path class="cls-8" d="m158.8,169.02c-1.09-7.75,4.29-14.02,12.01-14.02s14.87,6.28,15.96,14.02h-27.98Z"/><ellipse class="cls-16" cx="175.18" cy="145.54" rx="4.75" ry="10.27" transform="translate(-12.21 16.1) rotate(-5.08)"/><ellipse class="cls-8" cx="161.6" cy="36.47" rx="2.04" ry="2.35" transform="translate(23.93 128.62) rotate(-46.51)"/><g class="cls-24"><path class="cls-21" d="m136.91,81.01c-.21,0-.4-.13-.47-.34-.09-.26.05-.54.32-.63l34.17-11.41c.26-.09.54.05.63.32.09.26-.05.54-.32.63l-34.17,11.41c-.05.02-.11.03-.16.03Z"/></g><ellipse class="cls-17" cx="175.18" cy="145.54" rx="4.1" ry="8.88" transform="translate(-12.21 16.1) rotate(-5.08)"/><polygon class="cls-3" points="303.33 57.7 315.31 80.37 300.52 80.37 303.33 57.7"/><path class="cls-13" d="m354.49,162.09c.54,3.81-2.17,6.93-6.02,6.93h-121.65c-3.85,0-7.44-3.12-7.98-6.93l-10.53-74.79c-.54-3.81,2.17-6.93,6.02-6.93h121.65c3.85,0,7.44,3.12,7.98,6.93l10.53,74.79Z"/><path class="cls-15" d="m278.28,105.71h-.12c-.14-.13-.28-.27-.43-.39-5.45-4.26-10.87-8.56-16.2-12.98-3.02-2.51-5.98-5.1-8.76-7.88-2.03-2.03-3.94-4.15-5.59-6.49-1.85-2.62-3.28-5.38-4.01-8.4-.06-.25-.13-.5-.2-.76-.1-.7-.2-1.39-.29-2.09,0-.09.01-.18.01-.27,0-.63-.05-1.26-.01-1.89.23-4.14,1.87-7.47,4.92-9.96,2.13-1.73,4.66-2.7,7.53-3.03,1.98-.22,3.99-.11,6.02.36,3.81.88,7.18,2.73,10.12,5.55.06.06.13.11.21.17.08-.11.15-.2.22-.29,3.78-4.93,10.28-7.01,16.92-5.33,4.76,1.2,8.63,3.91,11.44,8.14,2.45,3.69,3.32,7.61,2.99,11.64-.2,2.38-.87,4.58-1.82,6.66-1.26,2.77-2.94,5.26-4.78,7.64-1.91,2.47-3.97,4.81-6.1,7.09-3.84,4.11-7.77,8.14-11.75,12.12-.11.11-.2.24-.3.37Z"/><path class="cls-19" d="m279.15,108.28h-.14c-.16-.14-.31-.3-.48-.43-6.05-4.73-12.08-9.51-17.99-14.42-3.36-2.79-6.64-5.66-9.73-8.76-2.25-2.26-4.38-4.62-6.21-7.21-2.06-2.91-3.65-5.98-4.46-9.33-.07-.28-.15-.56-.22-.84-.11-.77-.22-1.55-.33-2.32,0-.1.02-.2.01-.3,0-.7-.05-1.4-.01-2.09.25-4.6,2.07-8.3,5.47-11.07,2.36-1.92,5.18-3,8.36-3.36,2.2-.25,4.43-.12,6.69.4,4.23.98,7.98,3.03,11.24,6.16.07.06.14.12.23.19.09-.12.17-.22.24-.32,4.2-5.47,11.42-7.79,18.8-5.93,5.29,1.34,9.58,4.34,12.71,9.04,2.73,4.1,3.69,8.45,3.32,12.94-.22,2.64-.97,5.08-2.02,7.4-1.4,3.08-3.27,5.84-5.31,8.49-2.12,2.75-4.42,5.35-6.78,7.88-4.27,4.57-8.63,9.04-13.05,13.47-.12.12-.23.27-.34.41Zm-1.03-6.76c.1-.1.18-.17.25-.24,2.4-2.47,4.81-4.93,7.2-7.41,2.76-2.87,5.47-5.79,8.01-8.87,1.89-2.3,3.67-4.67,5.14-7.28,1.05-1.87,1.94-3.84,2.43-6,.63-2.78.57-5.63-.49-8.55-1.27-3.5-3.57-6.24-6.89-8.12-3.06-1.74-6.23-2.29-9.42-1.82-3.62.53-6.45,2.25-8.5,5.09-1.01,1.4-2.01,2.79-3.02,4.19-.05.07-.11.14-.18.23-.09-.09-.16-.15-.23-.22-1.44-1.44-2.88-2.88-4.33-4.32-4.29-4.28-10.63-6.24-15.99-4.47-3.24,1.08-5.5,3.2-6.67,6.39-1.08,2.94-.87,6.04.25,9.24.82,2.34,2.12,4.48,3.65,6.5,1.88,2.49,4.03,4.75,6.29,6.91,2.79,2.68,5.71,5.22,8.7,7.66,3.65,2.99,7.33,5.93,11.01,8.89.91.73,1.83,1.45,2.78,2.2Z"/><g class="cls-1"><path class="cls-13" d="m320.29,127.82h-75.19c-1.14,0-2.2-.93-2.36-2.08l-.08-.59c-.16-1.15.63-2.08,1.78-2.08h75.19c1.14,0,2.2.93,2.36,2.08l.08.59c.16,1.15-.63,2.08-1.78,2.08Z"/></g><g class="cls-7"><path class="cls-13" d="m321.94,139.55h-75.19c-1.14,0-2.2-.93-2.36-2.08l-.08-.59c-.16-1.15.63-2.08,1.78-2.08h75.19c1.14,0,2.2.93,2.36,2.08l.08.59c.16,1.15-.63,2.08-1.78,2.08Z"/></g><g class="cls-6"><path class="cls-13" d="m323.59,151.27h-75.19c-1.14,0-2.2-.93-2.36-2.08l-.08-.59c-.16-1.15.63-2.08,1.78-2.08h75.19c1.14,0,2.2.93,2.36,2.08l.08.59c.16,1.15-.63,2.08-1.78,2.08Z"/></g><path class="cls-19" d="m469.78,98.33h.02c-.9,2.3-1.23,4.92-.84,7.7,1.27,9.05,9.62,16.38,18.65,16.38s15.31-7.34,14.04-16.38c-.39-2.78-1.46-5.41-3.01-7.7h.02l-.46-.6c-.23-.31-.45-.62-.7-.92l-16.59-21.93-10.42,21.93c-.16.3-.3.61-.44.92l-.29.61Z"/><path class="cls-13" d="m505.91,236.52h-9.46l-1.3-9.21c-.15-1.1-1.18-1.99-2.28-1.99s-1.87.89-1.72,1.99l1.3,9.21h-9.46c-1.1,0-1.87.89-1.72,1.99.15,1.1,1.18,1.99,2.28,1.99h9.46l1.3,9.21c.15,1.1,1.18,1.99,2.28,1.99s1.87-.89,1.72-1.99l-1.3-9.21h9.46c1.1,0,1.87-.89,1.72-1.99-.15-1.1-1.18-1.99-2.28-1.99Z"/><g class="cls-23"><path class="cls-8" d="m404.29,50.98h-45.29c-.83,0-1.5-.67-1.5-1.5s.67-1.5,1.5-1.5h45.29c.83,0,1.5.67,1.5,1.5s-.67,1.5-1.5,1.5Z"/></g><g class="cls-23"><path class="cls-8" d="m405.64,60.39h-45.29c-.83,0-1.5-.67-1.5-1.5s.67-1.5,1.5-1.5h45.29c.83,0,1.5.67,1.5,1.5s-.67,1.5-1.5,1.5Z"/></g><g class="cls-23"><path class="cls-8" d="m406.99,69.79h-45.29c-.83,0-1.5-.67-1.5-1.5s.67-1.5,1.5-1.5h45.29c.83,0,1.5.67,1.5,1.5s-.67,1.5-1.5,1.5Z"/></g><g class="cls-23"><path class="cls-8" d="m408.34,79.19h-45.29c-.83,0-1.5-.67-1.5-1.5s.67-1.5,1.5-1.5h45.29c.83,0,1.5.67,1.5,1.5s-.67,1.5-1.5,1.5Z"/></g><path class="cls-8" d="m413.54,154.05h-29.87c-.25,0-.46-.18-.5-.43l-5.7-39.66c-.02-.14.02-.29.12-.4.09-.11.23-.17.38-.17h29.87c.25,0,.46.18.5.43l5.7,39.66c.02.14-.02.29-.12.4-.09.11-.23.17-.38.17Zm-29.44-1h28.86l-5.55-38.66h-28.86l5.55,38.66Z"/><polygon class="cls-2" points="388.21 140.02 370.39 140.02 363.04 88.88 380.86 88.88 388.21 140.02"/></g></g></g></svg>