<?xml version="1.0" encoding="UTF-8"?><svg xmlns="http://www.w3.org/2000/svg" xmlns:xlink="http://www.w3.org/1999/xlink" viewBox="0 0 439.39 289"><defs><style>.cls-1,.cls-2{fill:#fff;}.cls-3{isolation:isolate;}.cls-4{fill:#849faf;}.cls-5{mix-blend-mode:multiply;opacity:.46;}.cls-5,.cls-6{fill:#2680c7;}.cls-7,.cls-8,.cls-2,.cls-9{mix-blend-mode:overlay;}.cls-7,.cls-2,.cls-9{opacity:.67;}.cls-10{clip-path:url(#clippath-1);}.cls-11{fill:#030303;}.cls-12{clip-path:url(#clippath);}.cls-13{fill:#debd20;mix-blend-mode:screen;}.cls-14{fill:none;}.cls-15{fill:#edbf98;}.cls-9{fill:#b9e0f6;}.cls-16{fill:#bf808a;}.cls-17{fill:#010101;}.cls-18{fill:#d1e4eb;}.cls-19{fill:#060606;}</style><clipPath id="clippath"><circle class="cls-14" cx="99.06" cy="110.98" r="55.39"/></clipPath><clipPath id="clippath-1"><rect class="cls-14" x="7.16" y="11.95" width="407.74" height="252.08" transform="translate(-7.87 12.85) rotate(-3.42)"/></clipPath></defs><g class="cls-3"><g id="Layer_2"><g id="Layer_1-2"><g><rect class="cls-18" x="7.16" y="11.95" width="407.74" height="252.08" transform="translate(-7.87 12.85) rotate(-3.42)"/><circle class="cls-2" cx="99.06" cy="110.98" r="55.39"/><circle class="cls-13" cx="140.16" cy="76.17" r="12.29"/><path class="cls-15" d="M103.48,144.87c-1.45-1.29-3.3-.52-4.95-.93-4.21-1.07-4.36-.98-5.31-5.55,3.88-1.49,7.95-2.59,11.08-5.6,1.11-1.07,2.22-2.05,2.77-3.54,.66-1.77,.08-2.7-1.77-2.89-6.81-.68-12.76-3.46-18.25-7.39-3.87,.33-7.69,.74-11.21-1.69-4.8-3.31-5.62-9.96-1.57-13.67,1.65-1.51,3.8-1.62,6.07-2.22-1.52-4.14-1.25-8.14-.04-12.11,1.12-3.67,3.49-6.6,6.83-8.13,4.94-2.26,10.28-3.18,15.69-1.5,5.03,1.56,7.36,5.55,8.66,10.25,2.66,9.58,9.41,25.74,1.38,34.36-.71,.76-.26,1.47,.02,2.25,.9,2.52,1.81,5.05,2.56,7.61,1.24,4.23,.25,6.27-3.83,8.11-1.98,.89-4.01,1.69-6.02,2.52l-2.12,.13Zm-19.87-48.15c1.35,.51,2.43,.74,2.71-.74,.25-1.3,1.64-2.49,.74-3.88-.58-.89-1.64-1.05-2.24,.09-.69,1.32-1.1,2.77-1.21,4.53Zm-4.17,11.79c-.03,2.62,1.48,4.18,1.69,6.08,.07,.65,.46,1.1,1.13,1.02,.92-.1,.95-.83,.94-1.56-.03-2.35-.83-4.21-3.76-5.54Z"/><path class="cls-16" d="M87.05,118.96c5.49,3.93,11.44,6.71,18.25,7.39,1.85,.19,2.43,1.11,1.77,2.89-.56,1.49-1.66,2.48-2.77,3.54-3.13,3.02-7.19,4.12-11.08,5.6-2.39-5.16-3.16-10.85-5.21-16.13-.41-1.05-1.1-2.07-.96-3.3Z"/><path class="cls-16" d="M83.61,96.72c.11-1.76,.52-3.21,1.21-4.53,.6-1.14,1.66-.99,2.24-.09,.9,1.39-.49,2.58-.74,3.88-.29,1.49-1.36,1.26-2.71,.74Z"/><path class="cls-16" d="M79.44,108.52c2.93,1.34,3.72,3.2,3.76,5.54,.01,.72-.02,1.46-.94,1.56-.68,.08-1.06-.38-1.13-1.02-.21-1.9-1.71-3.46-1.69-6.08Z"/><path class="cls-11" d="M93.79,88.36c-2.65,2.94-5.5,5.14-8.84,6.82-.32,3.63,1.03,7.41-.41,10.94-.71,.62-1.49,.74-2.03,.21-4.69-4.66-7.34-11.6-8.06-18.16-.24-2.18,.85-3.61,2.57-4.61,4.82-2.79,10.03-4.72,15.23-6.64,1.03-.38,2.13-.44,3.23-.36,3.33,.26,5.87-2.27,8.85-3.26,1.12-.37,2.2-.78,3.37-.89,4.44-.43,6.4,2.16,4.65,6.31-1.74,4.15-5.08,7.83-9.1,9.43-3.01,1.2-6.12,1.5-9.46,.19Z"/><rect class="cls-17" x="94.66" y="102.06" width="2.8" height="5.73" rx=".93" ry=".93" transform="translate(-20.16 22.89) rotate(-12.31)"/><rect class="cls-17" x="108.46" y="98.12" width="2.8" height="5.73" rx=".93" ry=".93" transform="translate(-19 25.74) rotate(-12.31)"/><path class="cls-19" d="M80.97,112.2c-2.14-1.83-4.43-2.07-5.11-4.2-.84-2.64,3.34,.06,4.81,1.22,.97,.76,1.73,1.64,.3,2.98Z"/><g class="cls-12"><path class="cls-17" d="M64.61,160.57c.83-3,1.62-5.79,2.36-8.59,.45-1.7,1.44-2.79,3.11-3.46,6.91-2.75,13.91-5.2,21.08-7.18,.63-.17,1.22-.74,1.97-.39,4,1.86,7.91,.26,11.72-.57,4.25-.93,8.3-2.65,11.39-5.95,1.13-1.21,2.68-1.41,4.08-1.85,7.89-2.51,15.67-5.3,23.24-8.63,1.61-.71,3.07-.89,4.75-.52,3.4,.75,6.88,1.18,10.1,2.9-.22,3.88-1.06,7.47-2.41,10.99-3.85,10.08-9.86,18.62-17.97,25.73-6.08,5.33-13.33,8.16-21.03,9.95-6.3,1.46-12.69,2.58-19.19,2.59-6.79,.01-13.57-.23-20.16-2.24-5.5-1.67-9.66-4.73-11.38-10.4-.31-1.01-1.03-1.49-1.66-2.39Z"/></g><g class="cls-7"><rect class="cls-1" x="178.6" y="84.43" width="142.34" height="12.14" rx="2" ry="2" transform="translate(-4.96 15.08) rotate(-3.42)"/></g><path class="cls-4" d="M165.31,237.29c16.54-6.5,32.87-13.44,49.22-20.39,4.2-1.78,8.39-3.57,12.59-5.35,1.25-.53,5.2-2.97,6.49-2.75,1.13-.82,1.48-.4,1.04,1.27-.14,.95-.34,1.88-.6,2.8-1.12,4.46-3.5,9.65-4.46,12.88-.91,3.05,3.45,5.95,5.62,3.27,4.32-5.33,7.73-11.27,12.33-16.43,5.89-6.61,20.45-19.79,29.03-9.9,2.92,3.37,4.59,7.89,5.86,12.1,.7,2.32,.93,5.53,3.16,6.97,6.71,4.34,15.01-11.46,15.99-15.94,.65-2.95-3.49-5-5.05-2.13-2.12,3.89-6.34,9.92-10.25,11.92l2.85-.37-.68-.22,2.21,1.7c-.85-1.63-1.16-4.13-1.81-5.98-1.32-3.76-2.92-7.54-5.25-10.8-5.81-8.16-15.27-9.03-24.25-5.47-13.65,5.4-21.28,19.22-29.4,30.49l6.15,2.59c1.35-5.64,4.22-10.99,4.62-16.86,.2-2.88-.45-6.15-3.2-7.63-3.42-1.85-7.56,.98-10.61,2.35-21.05,9.43-42.16,18.67-62.95,28.65-1.8,.86-.52,4,1.37,3.26h0Z"/><path class="cls-4" d="M319.75,204.78c3.2,0,3.2-4.97,0-4.97s-3.2,4.97,0,4.97h0Z"/><g class="cls-8"><rect class="cls-6" x="178.04" y="75.15" width="142.34" height="12.14" rx="2" ry="2" transform="translate(-4.41 15.03) rotate(-3.42)"/></g><g class="cls-10"><g class="cls-7"><rect class="cls-1" x="180.34" y="107.17" width="253.74" height="21.44" rx="2" ry="2" transform="translate(-6.49 18.56) rotate(-3.42)"/></g><path class="cls-6" d="M355.38,209.32c7.92-2.98,16.16-5.28,24.91-4.35,5.54,.59,8.66-.93,12.25-4.8,8.68-9.36,19.21-16.36,32.43-18.69,9.54-1.68,11.55-.23,13.21,9.89,2.18,13.19,1.77,26.03-4.6,37.19-3.05,5.35-3.3,10.36-1.48,16.4,3.51,11.65,3.4,23.27,1.63,34.7-1.5,9.73-5.29,11.66-14.5,6.75-11.18-5.97-20.13-14.95-27.47-25.25-3.99-5.59-7.78-9.29-14.82-10.67-13.12-2.58-24.09-10.49-33.78-20.16-5.29-5.29-5.2-7.2-.51-12.49,3.47-3.92,7.84-6.58,12.7-8.5Zm44.17,1.77c.73,2.29,2.3,3.05,3.71,4,4.24,2.87,5.89,7.01,3.49,10.81-3.07,4.87-6.23-.05-9.21-1.9-1.09-.68-2.11-1.51-3.23-2.12-12.54-6.8-29.29-4.55-38.17,5.44,5.89,5.31,12.55,8.86,19.83,11.16,2.77,.88,5.07,1.16,7.7-1.16,8.48-7.49,10.53-6.57,13.71,4.98,.34,1.22,.43,2.49,.73,3.72,3.29,13.77,12.47,22.66,24.57,30.21,3.07-6.66,1.62-12.96,.62-19.01-1.66-10.07-1.97-10.14-12.81-13-2.95-.78-5.84-1.75-6.44-5.3-.56-3.29,2.2-4.11,4.36-4.71,17.98-4.92,18.81-20.46,19.74-35.93,.3-4.95-1.62-7.41-6.61-5.28-9.21,3.95-17.84,8.63-21.99,18.08Z"/></g><rect class="cls-5" x="362.28" y="102.34" width="51.45" height="21.44" transform="translate(-6.06 23.38) rotate(-3.42)"/><rect class="cls-9" x="347.38" y="104" width="25.73" height="21.44" transform="translate(-6.21 21.72) rotate(-3.42)"/></g></g></g></g></svg>