<?xml version="1.0" encoding="UTF-8"?><svg id="Layer_2" xmlns="http://www.w3.org/2000/svg" viewBox="0 0 837.88 802.65"><defs><style>.cls-1{fill:#ce99a2;}.cls-2{fill:#fff;}.cls-3{fill:#025ea2;}.cls-4{fill:#704b4e;}.cls-5{fill:#f0c19a;}.cls-6{fill:#070606;}.cls-7{fill:#c1818b;}.cls-8{fill:#809aa9;}.cls-9{fill:#f0c29b;}.cls-10{fill:#764b4e;}.cls-11{fill:#af6f4d;}.cls-12{fill:#dbedf0;}.cls-13{fill:#56a1da;}.cls-14{fill:#015ea1;}.cls-15{fill:#795051;}.cls-16{fill:#f0b043;}</style></defs><g id="Layer_1-2"><path class="cls-12" d="m785.46,393.49H251.97c-28.95,0-52.42,23.47-52.42,52.42v239.29c0,28.95,23.47,52.42,52.42,52.42h493.95c17.44,0,38.82.19,51.28,12.57,12.03,11.95,20.74,25.83,26.72,41.57,1.9,4.99,4.66,12,9.39,10.73,1.74-.47,2.23-1.89,2.29-3.08.72-15.9,1.76-31.81,1.97-47.72.28-21.97.28-43.93.31-65.9,0-.2.01-.39.01-.59v-239.29c0-28.95-23.47-52.42-52.42-52.42Z"/><path class="cls-10" d="m777.54,368.29c.36-.07.72.16.79.53,5.33,28.36,6.63,56.34-2.86,84.14-2.89,8.47-5.2,17.16-6.89,26.01-2.74,11.11-1.18,8.53-11.05,7.69-.66-.06-1.32-.16-1.98-.25-10.36-1.44-11.72-1.84-10.45-10.17.1-.92.67-3.2.87-5.33.07-.75-.97-1.02-1.26-.33-1,2.37-1.59,5.28-2.29,7.35-1.25,3.68-4.86,5.36-9.24,4.15-8-2.21-16.18-3.74-24.28-5.59-4.09-.93-5.63-2.6-5.08-7.62,1.09-9.82,6.92-17.13,11.14-25.32,1.17-2.26,3.22-2.57,5.79-2.87,21.56-2.5,21.48-2.63,31.49-22.1,3.49-6.8,7.32-13.43,11.21-20.02,5.09-8.61,10.12-17.21,11.3-27.43.14-1.19.5-2.41,2.79-2.86Z"/><path class="cls-10" d="m621.57,439.2c-7.05-3.24-13.36-6.19-19.71-9.03q-4.2-2.05-2-6.27c16.99-29.67,29.41-62.02,52.03-88.37,2.48-2.89,4.75-6.04,8.62-7.82.41,3.52-1.99,5.26-3.34,7.4-2.92,4.65-7,8.57-5.2,15.13.56,2.05-1.59,4.92-2.67,7.35-9.34,20.97-18.52,42-24.39,64.28-1.43,5.43-3.16,10.79-3.34,17.32Z"/><path class="cls-2" d="m412.09,452.52c-.44-1.53-.69-2.4-1.14-3.96,18.76,2.76,37.03,5.45,55.79,8.21,1.03,8.13.46,16.36-2.18,24.27-3.63,10.88-9.82,20.36-17.47,28.86-6.61,7.34-14.65,8.66-23.64,5.2-1.47-.57-3.91-1.71-3.9-2.56.14-10.07-9.04-7.78-14.1-10.81-2.44-1.46-5.36-2.11-7.88-3.45-4.64-2.46-9.49-4.71-13.6-7.9-3.34-2.58-5.72-6.4-9.29-10.57-1.19.57-3.93,1.87-6.67,3.18l-1.14-1.67c5.86-7.32,14.72-11.62,20.85-18.47,6.84-7.65,17.1-4.62,24.37-10.33Z"/><path class="cls-9" d="m417.13,462.57c-.2,4.39,6.32,7.13,1.81,11.21-3.24,2.93-7.39,2.51-11.27,1.07q-18.26-6.77-35.5.73c-2.35-9.48,2.34-15.92,8.25-21.68,2.59-2.53,5.43-4.46,6.67-8.27,2.85-8.71,10.62-11.69,18.15-10.46,9.44,1.54,16.83,8.1,20.09,17.41,2.08,5.94-4.36,7.14-8.21,9.99Zm-3.19-1.42l.36-.52-.59-.07.23.59Z"/><path class="cls-8" d="m401.65,494.87c-18.17-5.73-33.67-16.89-53.15-15.25-.17-.69-.33-1.39-.5-2.08,2.3-2.03,4.29-4.72,6.96-5.99,15.47-7.38,41.46,5.28,46.69,23.32Z"/><path class="cls-5" d="m773.35,404.19c-1.11-6.39-6.75-7.29-12.07-10.31-4.33-2.46-5.16-5.69-4.15-10,.3-1.29.95-2.53,1.11-3.83,1.1-9.3,2.43-18.92-3.42-27.03-5.46-7.58-12.73-13.3-21.31-17.61-15.82-7.94-32.59-9.48-49.6-7.55-16.75,1.9-30.53,9.68-37.64,25.84-9.91,22.51-18.77,45.47-25.72,69.07-3.03,10.31-6.84,23.49.93,31.28,4.02,4.03,1.7,9.94.46,14.66-2.09,7.96-4.7,15.9-8.39,23.28-7.68,15.16-4.53,11.31,4.07,25.85,5.58,9.43,14.1,15.77,25.5,17.49,7.91,1.19,15.7,1.27,23.62,0,13.61-2.19,28.06-13.07,32.33-25.06.32-.9.58-1.82.79-2.73l13.69-47.54c3.62-3.91,6.92-8.05,9.96-12.44,3.5-5.05,4.04-5.08,9.91-2.87,3.06,1.16,5.73,2.81,9.47,1.76,8.97-2.51,16.74-6.73,22.09-14.43,5.01-7.21,9.96-18.68,8.38-27.82Z"/><path class="cls-7" d="m713.55,459.98s-25.39,11.13-30.6,11.9c-5.21.78-23.02,1.59-31.77-1.81s.8,7.39.8,7.39c0,0,20.38,19.43,33.51,21.97,4.44.86,10.44,1.02,16.45.87l11.61-40.32h0Z"/><path class="cls-10" d="m638.08,362.51l17.43,7.03c.33.13.68.22,1.03.25,1.85.18,8.04.68,12.18-.05,4.91-.87,13.87-3.42,13.87-3.42,0,0,4.48-.59,1.55,2.34-2.25,2.25-7.34,4.19-9.55,4.96-.91.31-1.68.95-2.09,1.82-.37.79-.45,1.68.69,2.11,2.28.87,26.88,6.4,29.81,6.29,7.13-.26,11.47-5.17,16.16-9.79,3.48-3.43,6.95-6.86,10.43-10.29.12-.12.22-.24.32-.37.61-.8,3.03-3.66,2.46,2.03-.65,6.5-.87,49.32.87,53.33,1.73,4.01,8.45-7.15,8.45-7.15,0,0,7.59-12.03,9.54-13.12s10.19-2.49,15.39,4.34c2.77,3.63,2.51,9.11,2.11,13.4-.64,6.8-2.12,11.97-6.28,17.43-3.89,5.11-8.81,10.27-15.02,12.42-9.25,3.21-15.56-.63-17.29-1.9-.44-.32-.94-.53-1.48-.64-1.65-.31-3.03,3.64-4.7,7.04-1.96,4.02,28.78,5.02,37.79,6.33,1.39.2,2.77-.4,3.58-1.55l6.14-8.81c3.99-5.72,5.97-10.53,8.98-16.8,1.05-2.18.91-3.75.91-6.15,0-7.31,1.09-16.01,1.09-23.32,0-15.73-3.65-29.92-7.27-45.12-.61-2.54-2.38-4.65-4.79-5.68l-9.42-4.02c-.95-.4-1.68-1.18-2.03-2.15-1.15-3.19-3.86-10.4-5.21-11.5-1.73-1.41-14.85-10.95-27.32-13.55-12.47-2.6-41.95-6.29-55.39-1.41-13.44,4.88-31.54,38.16-31.54,38.16,0,0-3.94,6.5-1.41,7.52Z"/><path d="m746.72,419.47s-1.65,2.19,0,3.29c1.36.9,3.55-1.42,4.37-2.32,1.14-1.26,3.07-3.37,4.05-4.74.97-1.35,3.56-3.62,5.26-3.04.57.2,2.14,2.31,2.46,2.43.52.19,1.12.17,1.65.05,1.05-.23,2.13-1.05,1.66-2.24-.96-2.46-2.72-5.44-5.65-5.5-1.5-.03-2.95.56-4.26,1.3-3.72,2.12-7.82,6.88-9.54,10.77Z"/><path class="cls-7" d="m748.43,430.38c-.13.85-.9,1.45-1.75,1.35-.91-.11-1.44-.65-1.74-1.28-1.95-4.1,1.29-13.68,5.35-15.88.95-.51,2.21-.67,2.95.38.42.59.57,1.54.55,2.25-.02.62-.45,1-.8,1.47-.41.55-.8,1.11-1.16,1.7-.7,1.14-1.28,2.35-1.76,3.6-.8,2.06-1.31,4.23-1.65,6.41Z"/><path d="m648.45,389.91c-.96,1.71-2.54,2.98-4.37,2.21-1.72-.72-2.16-2.72-1.59-4.5.66-2.03,1.49-4.01,2.32-5.99.78-1.86,2.4-2.97,4.29-2.15,1.73.75,2.57,2.58,1.87,4.51-.48,1.36-2.1,5.16-2.52,5.91Z"/><path d="m684.69,404.84c-.56,1.88-.36,3.9,1.47,4.67,1.72.73,3.46-.35,4.33-2,1-1.89,1.83-3.87,2.66-5.84.78-1.86.45-3.79-1.46-4.57-1.75-.72-3.64-.04-4.54,1.81-.63,1.29-2.22,5.11-2.47,5.93Z"/><path class="cls-13" d="m706.89,522.44c13.6,7,27.2,13.98,40.78,21.02,2.06,1.07,4.18,2.16,5.93,3.65,1.77,1.52,2.15,3.86-.65,4.43-2.77.57-3.85,2.12-4.71,4.37-11.37,30.08-29.38,56.64-44.86,84.54-16.02,28.86-34.65,60.47-54.13,87.09-4.66,6.38-10.09,8.55-16.71,8.26-19.97-.88-39.82,1.69-59.81,1.04-29.27-.94-58.6-.37-87.9-.45-18.15-.05-18.96-1.1-16.59-18.7,3.87-28.68,8.83-61.62,15.43-89.85,7.75-33.17,20.32-64.61,32.49-96.21,3.95-10.26,10.06-19.48,16.21-28.61,3.22-4.78,6.96-7.07,13.1-7.14,13.99-.17,27.92-.13,41.79,1.94,7.32,1.09,10.68-4.39,16.82-7.99,7.39-4.33,8.58-4.22,14.11,2.37,3.41,4.06,9.35,11.18,12.09,15.72,3.59,5.94,8.28,8.03,15.07,6.17,16.02-4.38,32.6-6.48,48.38-11.95,9.17-3.18,9.28-2.99,10.64,7.03.4,2.96.52,5.95.76,8.93l1.76,4.34Z"/><path class="cls-2" d="m828.54,614.83c-.14-6.82-1.04-13.42-5.27-18.88-19.12-24.68-42.67-43.77-71.65-55.82-7.22-3.01-8.01-2.88-12.32,3.5-5.41,7.99-10.54,16.17-15.64,24.37-28.31,45.5-63.09,100.33-91.27,145.91-4.37,7.07-8.14,14.51-11.98,21.89-.3.58-.55,1.2-.77,1.84h126.28c17.44,0,38.82.19,51.28,12.57,2.74,2.72,5.3,5.55,7.7,8.46,5.59-24.17,13.91-51.4,17.47-72.35,4.01-23.64,6.66-47.43,6.18-71.49Z"/><path class="cls-2" d="m500.11,489.69c-13.91,7.49-25.95,16.37-33.75,31.22-34.43,65.52-63.63,140.82-88.9,210.31-.72,1.99-1.21,4.08-1.76,6.4h160.4c6.06-44.24,11.87-94.54,18.17-137.68,5.11-35.07,7.89-70.53,16.34-105.38-20.73-4.32-42.25-5.82-63.84-6.53-2.21-.07-4.69.6-6.65,1.66Z"/><path class="cls-2" d="m442.14,563.1c-6.51-1.18-13.05-2.89-19.6-3.02-14.27-.29-28.55.38-42.83.43-9,.03-10.07.67-11.61,9.58-.51,2.94-.81,5.94-.97,8.92-1.41,26.56-2.8,53.12-4.14,79.69-.52,10.29-.93,20.59-1.29,30.89-.41,11.77-.74,32.59-1.11,48.04h105.32c-.94-9.68-1.44-20.6-2.28-28.57-4.88-45.92-9.79-91.84-14.47-137.78-.49-4.84-2.61-7.38-7.03-8.18Z"/><path class="cls-14" d="m466.92,648.2c-2.76,1.68-5.92,1.12-8.68.55-30.71-6.34-61.33-13.16-92.1-19.19-6.51-1.28-8.65-4.59-10.15-10.15-11.93-44.21-24.02-88.37-36.06-132.55-.61-2.24-1.12-4.51-1.83-6.72-2.91-8.98-1.78-10.69,7.64-8.69,26.9,5.71,50.87,12.2,80.71,17.12,17.29,2.85,21.25,10.19,24.79,24.05,11.26,44.03,23.49,87.81,35.39,131.68.35,1.3.78,2.51.29,3.9Z"/><path class="cls-9" d="m447.14,585.14c2.92-2.02-3.72-11.42-.68-12.42,15.1,16.75,30.49,33.2,45.12,50.3,7.85,9.17,17.01,16.8,25.82,24.86,4.4,4.03,4.76,7.38.93,11.71-13.11,14.85-28.2,27.12-46.03,35.93-3.1,1.53-5.55,1.36-8-1.27-16.27-17.51-35.02-32.71-48.47-52.83-12.49-18.7-18.02-38.99-14.15-61.35.69-3.98-1.1-7.1-1.74-10.61-1.01-5.53-2.79-11,2.47-15.71,3.95-3.53-.11-7.4-.39-11.09-.23-3.01-1.63-6.15,1.67-8.01,3.49-1.96,5.77,1,7.47,3.22,9.49,12.38,18.74,24.95,28.11,37.42.96,1.28,6.46,8.35,7.87,9.85Z"/><path class="cls-3" d="m616.74,535.23c-2.09.9-4.54.2-5.9-1.62-7.4-9.89-12.08-21.9-19.48-32.15-.17-.24-.29-.49-.37-.76-.57-2.01,2.17-3.44,3.58-1.89.43.48.78,1.07,1.13,1.65,4.75,7.98,9.47,15.98,14.19,23.98,3.52,5.98,4.95,6.38,11.05,2.9,4.76-2.72,8.88-6.29,13.35-10.3,1.04-.93,2.7-.61,3.31.65,4.17,8.49,8.2,16.68,12.39,25.21.4.82,1.29,1.31,2.2,1.17,17.96-2.66,33.07-12.33,48.87-19.79,1.12-.53,2.52,0,2.89,1.19.42,1.34-.39,2.39-1.81,3.17-13.57,7.47-27.38,14.41-42.19,19.14-1.4.45-2.86.76-4.32.94-7.49.95-9.36-.13-12.23-6.97-2.17-5.19-4.64-12.15-7.06-18.18-.49-1.21-1.93-1.69-3.06-1.03-5.71,3.36-10.04,9.9-16.54,12.69Z"/><path class="cls-1" d="m404.12,454.33c-7.36-.51-13.22-5.22-20.76-3.08,4.87-6.84,14.53-5.24,20.76,3.08Z"/><path class="cls-3" d="m579.43,653.79c-1.93-.75-1.24-3.76-.91-4.61,10.72-27.21,24.38-53.11,35.73-80.05.36-.86,1.28-1.53,2.5-1.27,1.91,1.11,1.28,2.77.66,4.24-5.95,14.06-11.88,28.12-17.98,42.12-5.04,11.56-10.3,23.02-15.46,34.53-.69,1.53-2.44,5.85-4.54,5.03Z"/><path class="cls-1" d="m400.47,594.88c0-5.11,4.27,4.59,6.39,1.41-1.46-3.99-3.8-10.19-5.3-14.53-.21-.59.08-1.29.19-1.98s-.07-1.4.8-1.69c1.06-.36,1.99.15,2.45,1.1,4.75,9.81,9.47,19.64,14.17,29.47.46.97.86,2.12.89,3.15.03,1.26-1.5,1.92-2.42,1.07-9.3-8.59-2.56,7.43-.44,10.53.33.9.33,1.97-.82,2.84-1.26.44-2.24-.4-3.02-1.5-6.26-8.78-11.26-21.06-12.88-29.88Z"/><path class="cls-1" d="m402.8,553.58c.51-1.4,2.45-1.54,3.14-.21,2.19,4.23,3.87,7.52,5.63,10.77,3.32,6.14,6.79,12.19,10.06,18.35,1.56,2.93,3.68,5.85,2.59,9.34-.33,1.06-1.62,1.53-2.56.91-1.72-1.13-2.46-3.15-3.3-4.94-5.2-11.08-12.55-21.16-15.71-33.19-.07-.28-.01-.6.15-1.04Z"/><path d="m514.91,635.33c-.74,0-1.38-.54-1.48-1.29-.05-.38-5.33-38.42-6.46-47.66-1.11-9.12-10.11-41.12-10.2-41.45-.17-.59.04-1.22.52-1.59.48-.38,1.14-.42,1.67-.12l18.13,10.4-2.69-60.18c-.04-.83.6-1.53,1.43-1.57.86-.07,1.53.6,1.57,1.43l2.82,62.9c.03.55-.25,1.06-.72,1.35-.47.28-1.05.29-1.53.02l-17.33-9.94c2.4,8.69,8.38,30.77,9.31,38.37,1.12,9.22,6.4,47.23,6.45,47.61.11.82-.46,1.58-1.28,1.69-.07,0-.14.01-.21.01Z"/><path d="m639.24,715.4c-.45,0-.9-.2-1.19-.59-.5-.66-.37-1.6.29-2.1l54.32-41.34,56.69-43.67-19.15-14c-.38-.28-.61-.72-.61-1.2,0-.47.21-.92.59-1.21l53.41-40.71c.66-.5,1.6-.38,2.1.28.5.66.38,1.6-.28,2.1l-51.81,39.49,19.15,14c.38.28.61.72.61,1.19s-.21.92-.58,1.21l-58.28,44.9-54.32,41.35c-.27.21-.59.31-.91.31Z"/><path class="cls-2" d="m600.9,716.7c-22.97-24.46-46.31-48.57-69.56-72.76-1.59-1.66-3.73-4.38-5.31-4.18-6.91.87-10.46-5.06-17.21-7.6-20.32,17.13-40.14,34.58-58.57,54.63,5.33,6.26,10.37,11.91,10.73,20.01.08,1.66,2.1,3.3,3.37,4.83,5.3,6.39,10.77,12.65,15.96,19.14,1.44,1.8,2.98,4.35,4.68,6.88h137.61c-4.94-8.05-18.27-17.29-21.69-20.93Z"/><path class="cls-12" d="m52.42,0h533.49c28.95,0,52.42,23.47,52.42,52.42v239.29c0,28.95-23.47,52.42-52.42,52.42H91.97c-17.44,0-38.82.19-51.28,12.57-12.03,11.95-20.74,25.83-26.72,41.57-1.9,4.99-4.66,12-9.39,10.73-1.74-.47-2.23-1.89-2.29-3.08-.72-15.9-1.76-31.81-1.97-47.72C.04,336.23.05,314.27.01,292.3c0-.2-.01-.39-.01-.59V52.42C0,23.47,23.47,0,52.42,0Z"/><path class="cls-11" d="m451.58,67.39c-1.85-6.48-5.8-12.23-11.04-16.45-16.8-13.54-35.22-22.17-57.16-26.29-6.97-1.31-13.31-1.7-20.36.09-7.25,1.84-12.44,5.63-16.91,11-5.14,6.17-10.06,12.53-15.07,18.81-.16.21-.45.28-.69.18-1.54-.68-2.88-1.65-4.19-2.6-3-2.19-6.63-3.34-10.35-3.29l-3.47.05c-.83.01-1.66.17-2.41.51-14.98,6.55-20.77,19.42-22.35,34.73-.73,7.06,2.16,13.02,9.09,16.32,1.73.82,3.79,1.32,4.6,3.52.02.05.03.1.04.16,1.21,8.84-1.82,16.82-5.26,24.81-6.97,16.18-13.61,32.5-20.63,48.66-2.73,6.29-2.39,11.69,1.26,17.71,11.96,19.76,29.75,31.75,50.84,39.65.02,0,.04.01.06.02,1.23.28,2.39.78,3.6,1.13,1.1.32,2.22.32,3.35.39,6.4.39,10.75-4.61,13-10.22l12.92-29.82c.13-.3.32-.56.56-.78.8-.74,2.77-2.12,5.54-1.13,0,0,0,0,0,0,2.81,1.09,5.74,2.08,8.49,2.38,9.56,1.03,14.36-8.91,18.68-15.66,17.62-27.53,36.02-54.75,50.95-83.87,1.97-3.83,3.97-7.85,4.91-11.93,1.36-5.86,3.92-11.34,1.99-18.07Z"/><path class="cls-15" d="m308.68,92.83c-1.91-.07-3.88-2.3-2.78-3.86,3.31-4.73,3.17-.24,6.7-13.66,1.36-6.12,2.73-7.29,4.39-6.14,1.1.77,1.77,4.72,1.24,6.69-2.22,5.13-3.59,12.53-7.98,16.41-.44.39-.95.58-1.56.56Z"/><path class="cls-15" d="m346.92,188.13c-.99.75-1.82,1.39-1.76,4.49.06,3.1,1.82,14.99,1.82,14.99l2.55,14.07,10.93-25.21c.13-.3.32-.56.56-.78.8-.74,2.77-2.12,5.54-1.13,0,0-6.47-2.17-10.56-4.96-4.09-2.79-7.98-2.28-9.07-1.46Z"/><path class="cls-16" d="m480.43,337.68c-4.58-21.46-6.84-43.3-11.68-64.7-.15-.65-.3-1.3-.45-1.95-2.31-9.87-5.6-19.65-11.22-28.08-12.95-19.4-34.73-21.69-55.99-25.01-1.51-.24-16.1-2.37-17.76-2.61-9.71-1.83-25.06-4-25.06-4,0,0-4.19-.23-4.41.23,0,0-2.62,5.59-4.96,9.86-.96,1.75-1.9,3.52-2.92,5.23-3.82,6.38-4.14,6.54-11.08,4.58-4.88-1.38-9.67-3.08-14.29-5.15-.71-.32-1.41-.64-2.11-.97-8.48-4.06-16.24-9.5-23.03-15.99-4.51-4.32-8.51-9.11-12.42-13.96-3.49-4.33-6.52-9.26-6.51-15,0-.89-.02-5.52-.02-5.52,0,0-23.57-8.44-44.8-15.11-1.81-.57-5.84-1.65-10.28-2.55-11.08-2.72-27.61-6.71-31.07-7.14-17.39-2.16-35.76-2.17-51.95,5.4-16.31,7.63-28.45,22.03-38.14,37.2-15.35,24.02-31.2,48.88-42.68,74.99-12.11,27.55-20.58,56.51-28.46,85.5-1.79,6.57-3.16,13.51-2.99,21.46,4.18-6.3,9-12.2,14.53-17.69,12.46-12.38,33.85-12.57,51.28-12.57h388.45c.06-3.25.08-6.07,0-6.45Z"/><path class="cls-6" d="m329.39,70.79c0-.19,0-.38,0-.57,0-3.11.37-6.27.54-9.38.25-4.45,1.96-8.26,4.54-11.9,7.3-10.3,14.35-20.77,21.56-31.12,5.78-8.3,10.9-10.13,20.61-7.1,6.35,1.98,12.41,4.72,18.21,7.99,17.11,9.63,33.29,20.66,49.2,32.14,6.79,4.9,9.83,11.73,10.5,19.52.68,7.95-3.21,14.16-9.95,18.26-4.38,2.66-9,1.7-13.25-.73-7.55-4.32-14.32-9.6-19.91-16.36-7.64-9.23-15.02-18.61-20.21-29.53-1.72-3.62-4.14-6.76-7.42-9.24-6.63-5.01-12.99-2.99-15.09,5.11-.74,2.87-1.03,5.91-1.1,8.89-.11,4.64-2.06,8-5.37,11.25-8.52,8.36-18.06,15.71-25.42,25.24-1.08,1.4-2.59,1.8-4.36.79-1.77-1.01-3.64-1.93-3.57-4.29.08-3,.46-5.96.5-8.96Z"/><path class="cls-6" d="m312.18,60.74c4.25.24,5.94,1.84,6.83,5.18.03.12.06.26.07.38.3,3.1-.19,5.73-.73,9.13-.02.15-.06.3-.11.44-.56,1.46-1.1,2.08-3.05,1.71-1.59-.3-1.84-1.67-1.92-3.04-.02-.33-.06-.67,0-.99.72-3.53,0-6.47-2.66-9.17-1.38-1.39-.38-3.75,1.58-3.64Z"/><path d="m380.75,99.44c-1.14,1.6-2.85,2.69-4.59,1.72-1.63-.9-1.86-2.94-1.09-4.64.87-1.95,1.92-3.83,2.96-5.7.98-1.76,2.71-2.69,4.5-1.67,1.64.93,2.27,2.84,1.37,4.69-.63,1.3-2.65,4.9-3.15,5.6Z"/><path d="m413.23,117.49c-.76,1.81-.78,3.84.96,4.81,1.63.91,3.48.02,4.52-1.52,1.2-1.77,2.24-3.65,3.28-5.52.98-1.76.86-3.72-.96-4.7-1.66-.9-3.61-.43-4.71,1.31-.77,1.22-2.76,4.84-3.1,5.63Z"/><path class="cls-11" d="m196.04,284l20.7-49.58s.02-.05.03-.07c.55-1.58,19.23-55.19,25.35-65.17,6.21-10.13,7.84-14.05,7.84-14.05,0,0,10.13-23.2,16.01-24.83,5.23-1.45,7.36,3.56,7.77,4.68.05.14.07.29.07.44h0c0,1.1,1.27,1.71,2.13,1.03l29.82-23.74s.09-.07.14-.1l13.17-7.96c.48-.29,1.1-.24,1.53.12l3.06,2.59c.29.25.46.62.46,1v6.67c0,.16-.03.32-.08.46l-7.39,19.61c-.02.07-.04.13-.06.2l-1.22,5.98c-.1.48.08.97.46,1.28l3.01,2.45c.25.2.42.49.47.81.17,1.08.57,3.64.57,4.41s.39,4.41.56,6.05c.05.5.39.92.86,1.09l2.53.92c.2.07.37.19.51.34l3.68,3.96c.23.24.35.56.35.89v13.32c0,.35.14.68.38.93l3.39,3.39c.29.29.43.71.37,1.12l-1.53,10.13-1.93,12.53c-.02.14-.07.28-.13.4l-42.32,82.06c-.23.45-.7.72-1.2.71l-88.19-2.26c-.92-.02-1.53-.97-1.18-1.82Z"/><path class="cls-4" d="m326.59,191.24c-1.26,2.55-2.47,2.31-2.46-.54,0-.32.03-.71.09-1.2.76-6.94,1.31-13.9,1.81-20.87.27-3.69.22-4.18-2.29-7.13-.69-.81-1.99-.72-2.51.21-2.25,3.98-1.83,9.06-4.05,12.9-.98,1.7-3.61.92-3.47-1.04.03-.44.13-.9.23-1.32,1.52-6.81,3.27-13.58,3.52-20.6.06-1.65.09-3.32-.06-4.96-.13-1.45-1.13-2.52-2.55-2.54-.85-.01-2.08.59-2.51,1.3-1.55,2.55-2.82,5.27-4.24,7.9-1.14,2.13-1.85,4.58-3.52,6.32-.67.7-1.76.72-2.37-.04-.85-1.06-.23-2.23.29-3.33,3.29-6.9,6.7-13.73,10.79-20.22,2.83-4.49,5.32-9.21,7.8-13.92,1.39-2.65,2.42-5.47,2.54-8.54.23-5.74-3.02-8.04-8.15-5.52-2.35,1.16-4.45,2.83-6.64,4.32-1.86,1.27-3.03,3.6-5.62,3.71-1.72-.87-1.51-2.26-.56-3.24,3.51-3.57,7.46-6.63,11.94-8.91,3.82-1.95,7.6-2.24,11.2.66,3.45,2.78,3.07,6.28,2.19,10.01-1.87,7.9-6.07,14.72-10.08,21.87-.3.54-.36,1.19-.15,1.78s.41,1.13.8,1.53c3.3,3.4,3.14,7.78,3.98,12.01.9,4.49,6.68,5.68,7.7,10.28.42,1.92.3,3.94.58,5.89.31,2.17.78,4.31,1.28,6.44.96,4.12,2.04,8.23,2.35,12.47.69,9.6-1.35,18.51-6.91,26.44-2.37,3.38-4.21,7.14-6.61,10.6-1.4,2.01-4.48.11-3.3-2.04l.03-.06c2.81-5.21,5.88-10.28,8.74-15.46,1.69-3.05,3.53-8.39,3.91-11.85.07-.6.17-1.2.31-1.78.54-2.21.54-4.68-1.23-5.28-.85-.29-2,2.12-2.81,3.76Z"/><path class="cls-15" d="m273.52,134.4c1.72,2.25,0,3.76-1.37,4.97-5.64,4.97-9.84,11.7-17.91,15.48,3.49-8.13,12.32-17.21,19.29-20.45Z"/><path class="cls-16" d="m245.59,274.21c-13.57-1.12-27.1-2.69-40.63-4.21-6-.67-9.81,1.6-12.9,6.86-12.65,21.52-23.76,43.76-32.74,67.05-.03.07-.04.15-.06.22h113.96c8.84-22.03,17.4-43.39,26.14-65.17-2.66-.77-3.85-1.35-5.08-1.43-16.23-1.13-32.47-1.99-48.68-3.33Z"/><path d="m159.25,345.64c-.19,0-.38-.04-.57-.11-.77-.31-1.13-1.19-.82-1.96,1.11-2.69,27.12-65.9,32.91-72.23,2.18-2.38,4.57-3.76,7.1-4.1,1.82-.24,3.75-.1,3.83-.1.83.06,1.44.78,1.38,1.61-.06.83-.81,1.44-1.61,1.38-.01,0-1.71-.12-3.2.08-1.82.25-3.6,1.31-5.29,3.15-4.51,4.93-24.88,53.17-32.35,71.34-.24.58-.8.93-1.39.93Z"/><path d="m269.98,335.1h-51.71c-.83,0-1.5-.67-1.5-1.5s.67-1.5,1.5-1.5h51.71c.83,0,1.5.67,1.5,1.5s-.67,1.5-1.5,1.5Z"/><path d="m277.34,345.64c-.17,0-.35-.03-.52-.09-.78-.29-1.17-1.15-.88-1.93.75-2.02,18.41-49.63,22.04-58.04.75-1.73.8-3.11.17-4.11-1.27-2-5.07-2.55-6.42-2.6-.83-.03-1.48-.72-1.45-1.55.03-.83.71-1.47,1.54-1.45.66.02,6.52.3,8.86,3.98,1.2,1.89,1.22,4.22.06,6.92-3.6,8.34-21.79,57.4-21.98,57.9-.22.6-.8.98-1.41.98Z"/></g></svg>