<?xml version="1.0" encoding="UTF-8"?><svg xmlns="http://www.w3.org/2000/svg" xmlns:xlink="http://www.w3.org/1999/xlink" viewBox="0 0 649.16 433.15"><defs><style>.cls-1{fill:#8c6239;}.cls-2{opacity:.18;}.cls-3{fill:#fff;}.cls-4{fill:#b5d1e1;}.cls-5{isolation:isolate;}.cls-6{fill:#603813;}.cls-7{opacity:.54;}.cls-8{fill:gray;}.cls-9{fill:#92d6f3;}.cls-10,.cls-11{fill:#cedfe3;}.cls-12{fill:#c7dde2;}.cls-13{clip-path:url(#clippath);}.cls-14{fill:#f0f5f7;}.cls-15{fill:none;}.cls-16{fill:#ccc;}.cls-11,.cls-17,.cls-18{mix-blend-mode:multiply;}.cls-19{fill:#272424;}.cls-17{opacity:.59;}.cls-20{fill:#010101;}.cls-21{opacity:.56;}</style><clipPath id="clippath"><rect class="cls-15" x="345.39" y="120.32" width="253.84" height="98.04" rx="6.1" ry="6.1"/></clipPath></defs><g class="cls-5"><g id="Layer_2"><g id="Layer_1-2"><rect class="cls-14" x="105.18" width="543.98" height="348.61"/><polygon class="cls-1" points="279.09 225.72 267.99 239.59 244.61 246.59 214.43 247.76 194.56 225.72 194.56 194.4 277.35 190.5 277.93 202.16 278.39 211.52 279.09 225.72"/><path class="cls-12" d="m572.45,393.16h-79.38c-1.1,0-2-.9-2-2s.9-2,2-2h79.38c1.1,0,2,.9,2,2s-.9,2-2,2Z"/><path class="cls-12" d="m55.27,176.87l-6.87-6.51,6.38-6.72c.76-.8.73-2.07-.07-2.83-.8-.76-2.07-.73-2.83.07l-6.38,6.72-6.87-6.51c-.8-.76-2.07-.73-2.83.07-.76.8-.73,2.07.07,2.83l6.87,6.51-6.38,6.72c-.76.8-.73,2.07.07,2.83s2.07.73,2.83-.07l6.38-6.72,6.87,6.51c.8.76,2.07.73,2.83-.07s.73-2.07-.07-2.83Z"/><g class="cls-7"><path class="cls-6" d="m277.93,202.16c-4.72,8.3-12.85,17.7-23.29,19.4-6.16,1.01-12.32,1.22-18.49,1.15-6.16.07-12.33-.14-18.49-1.15-10.31-1.67-18.36-10.96-23.1-19.08v-8.08l82.79-3.9.58,11.66Z"/></g><path class="cls-1" d="m281.73,183.65c1.04-5.3.78-10.8,2.41-15.75,1.62-1.63,3.45-1.16,5.12-1.31,4.18-.39,8.02-1.74,11.51-4.04,3.96-2.62,6.49-5.95,7.23-10.96.88-6.01,2.14-11.91,1.02-18-.47-2.57-1.04-5.11-2.39-7.37-3.47-5.83-9.15-7.16-14.94-3.56-.88.55-1.47,1.61-3.13,1.53-.61-2.4-.3-4.91-.05-7.38,1-10.12,1.9-20.21,1.11-30.42-.8-10.35-6.03-17.04-15.34-21.4-12.29-5.77-25.12-6.87-38.14-6.67-13.02-.2-25.85.9-38.14,6.67-9.3,4.36-14.54,11.05-15.34,21.4-.79,10.2.12,20.3,1.11,30.42.24,2.48.56,4.98-.05,7.38-1.66.08-2.25-.98-3.13-1.53-5.79-3.61-11.46-2.27-14.94,3.56-1.35,2.26-1.92,4.8-2.39,7.37-1.12,6.09.14,12,1.02,18,.74,5.01,3.27,8.34,7.23,10.96,3.49,2.31,7.33,3.65,11.51,4.04,1.67.16,3.5-.32,5.12,1.31,1.63,4.95,1.37,10.45,2.41,15.75,2.78,14.12,12.76,23.59,27.1,25.93,6.16,1,12.32,1.21,18.49,1.15,6.16.07,12.33-.14,18.49-1.15,14.34-2.34,24.32-11.81,27.1-25.93Z"/><path class="cls-16" d="m276.21,64.88c.65.16,1.04.36,1.43.35,8.5-.29,10.2.76,12.79,8.66,1.76,5.35,3.02,10.84,3.03,16.54,0,9.1.03,18.21.03,27.31,0,2.17.21,4.51-1.61,6.09-3.82,3.31-4.07,7.96-4.88,12.39-.47,2.55-.76,5.14-1.06,7.72-.28,2.46-1.99,3.16-4.07,3.38-2.12.23-3.44-.8-3.2-2.98.54-5-.2-9.97-.05-14.93.37-12.13-.09-24.28,1.03-36.38.42-4.58-.49-9.07-1.02-13.58-.23-1.94-1.13-3.71-2.2-5.37-1.13-1.75-2.55-2.27-4.39-1.17-1.49.89-2.97,1.8-4.4,2.76-3.41,2.3-6.94,4.46-10.17,7-7.86,6.17-16.64,6.74-25.89,4.6-8.66-2-17.36-3.75-26.17-4.96-.64-.09-1.28-.25-1.92-.32-5.99-.6-9.77,2.12-10.25,8.1-.39,4.73-.18,9.54.1,14.29.64,11.04.84,22.06.19,33.1-.11,1.93.19,3.89.36,5.83.16,1.85.08,3.59-2.19,4-2.29.41-4.52-.91-5.06-2.97-.28-1.04-.35-2.14-.5-3.21-.4-2.79-.67-5.6-1.21-8.36-.57-2.97-1.16-5.99-3.6-8.17-2.13-1.91-2.49-4.48-2.53-7.12-.17-11.48-.36-22.97-.42-34.45-.01-2.8.44-5.61.71-8.41.39-4.21,2.53-7.05,6.21-9.27,13.77-8.31,28.54-13.32,44.55-15.15,11.09-1.27,22.08-.32,33.11.14,7.68.32,12.27,2.7,12.81,12.22.05.83.32,1.64.46,2.35Z"/><path class="cls-6" d="m292.5,138.17c.54,1.63,1.32,2.95,3.4,2.48.12,2.79.27,5.57.35,8.36.04,1.36-.3,2.83-1.8,2.96-1.9.16-2.52-1.4-2.58-3.01-.11-3.61-.92-7.27.63-10.79Z"/><path class="cls-19" d="m292.09,140.41c-.09-.25-.12-.52-.07-.77,1.21-5.77,3.31-8.03,7.51-8.01,1.09,0,2.2.33,2.52,1.51.26.94-.44,1.61-1.3,1.88-3.36,1.08-3.71,4.31-5.04,6.83-.24.46-.73.75-1.25.74-1.3-.04-1.93-.98-2.38-2.17Z"/><path class="cls-6" d="m179.79,138.17c-.54,1.63-1.32,2.95-3.4,2.48-.12,2.79-.27,5.57-.35,8.36-.04,1.36.3,2.83,1.8,2.96,1.9.16,2.52-1.4,2.58-3.01.11-3.61.92-7.27-.63-10.79Z"/><path class="cls-19" d="m180.2,140.41c.09-.25.12-.52.07-.77-1.21-5.77-3.31-8.03-7.51-8.01-1.09,0-2.2.33-2.52,1.51-.26.94.44,1.61,1.3,1.88,3.36,1.08,3.71,4.31,5.04,6.83.24.46.73.75,1.25.74,1.3-.04,1.93-.98,2.38-2.17Z"/><path d="m216.25,132.43c-.3,2.12-1.41,4.02-3.57,3.97-2.03-.05-3.27-1.92-3.39-3.94-.13-2.33-.06-4.66,0-7,.06-2.19,1.27-3.96,3.51-3.87,2.05.08,3.62,1.61,3.68,3.85.04,1.57-.1,6.07-.24,7Z"/><path d="m256.71,132.2c.17,2.13,1.17,4.1,3.34,4.17,2.03.06,3.38-1.72,3.61-3.74.27-2.31.33-4.65.41-6.98.07-2.19-1.04-4.03-3.28-4.07-2.06-.04-3.71,1.39-3.9,3.63-.13,1.56-.25,6.06-.17,7Z"/><path class="cls-11" d="m349.57,49.92h246.34c2.37,0,4.29,1.92,4.29,4.29v12.61c0,2.37-1.92,4.29-4.29,4.29h-246.23c-2.37,0-4.29-1.92-4.29-4.29v-12.73c0-2.31,1.87-4.18,4.18-4.18Z"/><rect class="cls-11" x="155.12" y="289.54" width="444.11" height="21.2" rx="3.5" ry="3.5"/><rect class="cls-11" x="345.39" y="80.62" width="133.16" height="6.32" rx="3.16" ry="3.16"/><g class="cls-13"><g class="cls-21"><g class="cls-18"><rect class="cls-10" x="315.6" y="119.67" width="324.86" height="99.34"/></g><g class="cls-2"><rect class="cls-3" x="340.41" y="119.67" width="2" height="99.34"/></g><g class="cls-2"><rect class="cls-3" x="367.67" y="119.67" width="2" height="99.34"/></g><g class="cls-2"><rect class="cls-3" x="394.93" y="119.67" width="2" height="99.34"/></g><g class="cls-2"><rect class="cls-3" x="422.2" y="119.67" width="2" height="99.34"/></g><g class="cls-2"><rect class="cls-3" x="315.6" y="134.12" width="324.86" height="2.23"/></g><g class="cls-2"><rect class="cls-3" x="315.6" y="164.46" width="324.86" height="2.23"/></g><g class="cls-2"><rect class="cls-3" x="315.6" y="194.8" width="324.86" height="2.23"/></g><g class="cls-2"><rect class="cls-3" x="449.46" y="119.67" width="2" height="99.34"/></g><g class="cls-2"><rect class="cls-3" x="476.72" y="119.67" width="2" height="99.34"/></g><g class="cls-2"><rect class="cls-3" x="503.99" y="119.67" width="2" height="99.34"/></g><g class="cls-2"><rect class="cls-3" x="531.25" y="119.67" width="2" height="99.34"/></g><g class="cls-2"><rect class="cls-3" x="558.51" y="119.67" width="2" height="99.34"/></g><g class="cls-2"><rect class="cls-3" x="585.78" y="119.67" width="2" height="99.34"/></g><g class="cls-2"><rect class="cls-3" x="613.04" y="119.67" width="2" height="99.34"/></g></g></g><g class="cls-17"><rect class="cls-4" x="369.84" y="135.23" width="106.41" height="70.39" rx="6.81" ry="6.81"/></g><path class="cls-14" d="m578.06,193.02h-122.22c-3.09,0-5.6-2.51-5.6-5.6v-22.23c0-3.09,2.51-5.6,5.6-5.6h122.22c3.09,0,5.6,2.51,5.6,5.6v22.23c0,3.09-2.51,5.6-5.6,5.6Zm-122.22-32.43c-2.54,0-4.6,2.06-4.6,4.6v22.23c0,2.54,2.06,4.6,4.6,4.6h122.22c2.54,0,4.6-2.06,4.6-4.6v-22.23c0-2.54-2.06-4.6-4.6-4.6h-122.22Z"/><path class="cls-9" d="m192.94,351.58l-6.9-5.37c-5.3,6.79-11.67,12.66-18.85,17.38l4.8,7.31c7.97-5.24,15.06-11.77,20.95-19.32Z"/><path class="cls-14" d="m178.89,365.86l-5.49-6.8c-15.23,12.3-35.05,18.97-56.1,17.15-2.04-.18-4.04-.45-6.02-.78l-1.43,8.63c2.2.36,4.43.64,6.69.84,23.39,2.03,45.42-5.37,62.34-19.03Z"/><path class="cls-14" d="m188.82,218.36h0l7.15,7.14s13.55,15.09,38.4,15.09,43.29-15.09,43.29-15.09l5.79-6.18,4.19,2.45-1.51,67.77-79.8.27-17.52-71.45Z"/><path class="cls-8" d="m187.03,287.84l-14.54-16.52c-.77.63-1.5,1.31-2.17,2.07l14.46,16.43c.55.62,1.5.68,2.12.13.62-.55.68-1.5.13-2.12Z"/><path class="cls-8" d="m191.99,209.26c-1.93.15-4.32,1.46-7.26,4-3.09,2.67-9.25,6.53-15.43,10.14.94.43,1.73,1.21,2.26,2.16,6.04-3.56,11.99-7.32,15.12-10.03,4.11-3.55,5.65-3.34,5.92-3.26.02,0,.05.02.07.03v.73c.07-.28.15-.56.26-.83-.6-.85-.93-1.88-.96-2.94Z"/><path class="cls-8" d="m311.27,230.66c.96.14,1.92.25,2.82.38.74.11,1.46.27,2.17.45.43-.07.76-.11.81-.12.38-.05.75-.02,1.11.05-7.26-3.92-23.93-13.14-29.76-18.17-3.44-2.97-6.12-4.26-8.2-3.97-.01.37-.06.75-.18,1.13-.02.06-.04.12-.06.18.2.78.4,1.56.62,2.33.04.02.08.05.12.07-.09-.27-.18-.52-.26-.72.02-.01.04-.02.07-.03.27-.08,1.82-.29,5.92,3.26,4.56,3.94,15.07,10.11,23.18,14.64.55.12,1.1.29,1.63.49Z"/><path class="cls-8" d="m396.11,291.31c-.53,0-1.05-.28-1.32-.78-6.61-12.18-25.4-44.51-32.89-47.81-9.34-4.12-52.31-12.93-52.74-13.02-.81-.17-1.33-.96-1.17-1.77.17-.81.96-1.33,1.77-1.17,1.78.36,43.72,8.97,53.35,13.22,4.32,1.91,11.21,10.54,21.07,26.4,7.14,11.49,13.18,22.61,13.24,22.72.4.73.12,1.64-.6,2.03-.23.12-.47.18-.71.18Z"/><circle class="cls-3" cx="124.1" cy="297.98" r="82.88"/><path class="cls-11" d="m197.23,330.33h-105.85c-2.51,0-4.55-2.04-4.55-4.55v-36.54c0-2.51,2.04-4.55,4.55-4.55h110.44c2.74,0,4.85,2.4,4.51,5.12l-4.59,36.54c-.29,2.27-2.22,3.98-4.51,3.98Z"/><rect class="cls-20" x="24.7" y="346.29" width="30.34" height="89.74" rx="3.57" ry="3.57" transform="translate(272.59 74.25) rotate(42.11)"/><path class="cls-4" d="m211.01,305.53c4.17-48-31.37-90.29-79.37-94.46-48-4.17-90.29,31.37-94.46,79.37-4.17,48,31.37,90.29,79.37,94.46,48,4.17,90.29-31.37,94.46-79.37Zm-93.7,70.68c-43.2-3.75-75.18-41.81-71.43-85.01,3.75-43.2,41.81-75.18,85.01-71.43,43.2,3.75,75.18,41.81,71.43,85.01-3.75,43.2-41.81,75.18-85.01,71.43Z"/></g></g></g></svg>