<?xml version="1.0" encoding="UTF-8"?><svg xmlns="http://www.w3.org/2000/svg" xmlns:xlink="http://www.w3.org/1999/xlink" viewBox="0 0 636.73 533.38"><defs><style>.cls-1{fill:#fff;}.cls-2{mix-blend-mode:multiply;opacity:.72;}.cls-3{isolation:isolate;}.cls-4{fill:#020202;}.cls-5{fill:#cce2e7;}.cls-6{fill:#d6e7eb;mix-blend-mode:screen;}.cls-7{fill:#849faf;}.cls-8{opacity:.86;}.cls-9{opacity:.35;}.cls-10{fill:#d7d7d7;}.cls-11{fill:#8da9b8;}.cls-12{clip-path:url(#clippath-1);}.cls-13{opacity:.54;}.cls-14{fill:#2680c7;}.cls-15{fill:#e7edee;}.cls-16{fill:#cd4159;}.cls-17{fill:#cedfe3;}.cls-18{fill:#2280c5;}.cls-19{fill:#fff4f4;}.cls-20{clip-path:url(#clippath);}.cls-21{fill:#d04554;}.cls-22{fill:none;}.cls-23{fill:#f3c467;}.cls-24{fill:#e0b84c;mix-blend-mode:exclusion;}</style><clipPath id="clippath"><rect class="cls-22" x="11.2" y="156.68" width="425.79" height="329.02" rx="12" ry="12"/></clipPath><clipPath id="clippath-1"><rect class="cls-22" x="376.96" y="372.54" width="34.58" height="69.19"/></clipPath></defs><g class="cls-3"><g id="Layer_2"><g id="Layer_1-2"><g><g><polygon class="cls-5" points="579.26 326.9 153.47 326.9 210.94 0 636.73 0 579.26 326.9"/><ellipse class="cls-6" cx="516.76" cy="224.96" rx="65.9" ry="55.3" transform="translate(-17.65 403.99) rotate(-42.05)"/><ellipse class="cls-24" cx="533.07" cy="132.16" rx="65.9" ry="55.3" transform="translate(48.7 391.04) rotate(-42.05)"/></g><g><g><polygon class="cls-1" points="534.43 374.73 108.64 374.73 166.1 47.83 591.9 47.83 534.43 374.73"/><path class="cls-10" d="M534.43,376.17H108.64c-.43,0-.83-.19-1.1-.51-.27-.32-.39-.76-.32-1.17L164.69,47.58c.12-.69,.72-1.19,1.42-1.19h425.79c.43,0,.83,.19,1.1,.51,.27,.32,.39,.76,.32,1.17l-57.47,326.9c-.12,.69-.72,1.19-1.42,1.19Zm-424.07-2.88h422.87l56.96-324.02H167.31l-56.96,324.02Z"/></g><g class="cls-9"><path class="cls-7" d="M528.5,296.95h-34.31c-1.19,0-2.16-.97-2.16-2.16s.97-2.16,2.16-2.16h34.31c1.19,0,2.16,.97,2.16,2.16s-.97,2.16-2.16,2.16Z"/></g><g class="cls-9"><path class="cls-7" d="M497.92,319.58c-1.19,0-2.15-.96-2.16-2.14,0-1.19,.95-2.17,2.14-2.18l26.64-.2h.02c1.19,0,2.15,.96,2.16,2.14,0,1.19-.95,2.17-2.14,2.18l-26.64,.2h-.02Z"/></g><g class="cls-9"><path class="cls-7" d="M493.83,342.6c-1.18,0-2.14-.94-2.16-2.13-.02-1.19,.94-2.17,2.13-2.19l26.72-.4h.03c1.18,0,2.14,.94,2.16,2.13,.02,1.19-.94,2.17-2.13,2.19l-26.72,.4h-.03Z"/></g><path class="cls-16" d="M401.92,73.99H221.58c-11.53,0-21.69,4.14-22.58,9.2l-2.13,12.09-.07,.37h222.27l.07-.37,2.13-12.09c.89-5.06-7.81-9.2-19.34-9.2Z"/></g><g><polygon class="cls-18" points="484.98 422.56 59.19 422.56 116.66 95.66 542.45 95.66 484.98 422.56"/><path class="cls-19" d="M497.42,173.46h-54.01c-1.19,0-2.16-.97-2.16-2.16s.97-2.16,2.16-2.16h54.01c1.19,0,2.16,.97,2.16,2.16s-.97,2.16-2.16,2.16Z"/><path class="cls-19" d="M445.06,196.22c-1.19,0-2.15-.96-2.16-2.14,0-1.19,.95-2.17,2.14-2.18l48.41-.34h.02c1.19,0,2.15,.96,2.16,2.14,0,1.19-.95,2.17-2.14,2.18l-48.41,.34h-.02Z"/><path class="cls-19" d="M443.15,218.96c-1.19,0-2.15-.96-2.16-2.15,0-1.19,.95-2.16,2.15-2.17l46.32-.26h.01c1.19,0,2.15,.96,2.16,2.15,0,1.19-.95,2.16-2.15,2.17l-46.32,.26h-.01Z"/><path class="cls-1" d="M481.18,349.98c-.82,4.68-5.38,8.51-10.14,8.51h-20.2c-4.75,0-8.66-3.89-8.69-8.64l-.47-80.31c-.03-4.75,3.84-8.64,8.59-8.64h37.92c4.75,0,7.97,3.83,7.14,8.51l-14.16,80.57Z"/><g class="cls-9"><path class="cls-7" d="M437.22,338.7c-.49,0-.99-.17-1.39-.51-.91-.77-1.02-2.13-.25-3.04l31.78-37.49c.77-.91,2.13-1.02,3.04-.25,.91,.77,1.02,2.13,.25,3.04l-31.78,37.49c-.43,.5-1.04,.76-1.65,.76Z"/></g><g class="cls-2"><polygon class="cls-18" points="443.41 154.11 522.12 211.28 484.98 422.56 444.74 422.56 443.41 154.11"/></g></g><g><rect class="cls-15" x="11.2" y="156.68" width="425.79" height="329.02" rx="12" ry="12"/><g class="cls-20"><path class="cls-1" d="M11.2,433.89s105.87-106.83,212.9-106.83,212.9-81.16,212.9-81.16V503.39H11.2v-69.5Z"/></g><circle class="cls-1" cx="380.56" cy="217.94" r="29.05"/><path class="cls-14" d="M369.07,201.92c3.25,.14,6.5,.55,9.37,2.08,1.82,.97,3.16,.92,5.06,.15,4.6-1.84,9.45-2.66,14.42-1.56,3.59,.79,4.04,1.55,2.89,5.1-1.5,4.63-3.83,8.78-7.95,11.54-1.97,1.32-2.91,2.93-3.31,5.17-.78,4.31-2.8,8.1-5.36,11.6-2.18,2.98-3.82,3.08-6.17,.17-2.85-3.53-4.41-7.74-5.2-12.15-.42-2.39-1.11-4.14-3.31-5.59-4.1-2.7-6.55-6.83-8.25-11.37-.93-2.48-.57-3.09,1.96-4.17,1.87-.8,3.84-1.05,5.85-1Zm14.99,6.8c-.14,.85,.28,1.32,.6,1.83,.98,1.54,.84,3.13-.64,4.04-1.9,1.16-2.15-.89-2.87-1.92-.26-.38-.47-.79-.75-1.15-3.18-4-9.36-5.62-14.14-3.59,1.13,2.57,2.83,4.67,4.96,6.45,.81,.68,1.56,1.09,2.86,.7,4.22-1.26,4.77-.67,3.9,3.56-.09,.45-.28,.88-.39,1.32-1.21,4.98,.45,9.18,3.34,13.36,2.2-1.75,2.78-4.02,3.46-6.14,1.14-3.53,1.05-3.6-2.21-6.07-.89-.67-1.72-1.39-1.32-2.65,.37-1.16,1.46-1.04,2.31-.93,7.06,.92,10.01-4.06,12.97-8.99,.95-1.58,.71-2.66-1.39-2.66-3.86,0-7.65,.31-10.7,2.83Z"/><g><g class="cls-8"><path class="cls-17" d="M404.26,387.82c0,.29-.25,3.09-.35,4.2-.14,1.43-.28,2.87-.43,4.3-.4,3.75-1.06,7.46-1.94,11.13-1.22,5.05-2.91,9.93-5.41,14.49-2.53,4.61-5.78,8.61-10.05,11.74-2.73,2-5.72,3.5-8.93,4.55-.13,.04-.3,.03-.44-.02-6.11-2.12-11.17-5.72-15.2-10.79-2.8-3.51-4.9-7.42-6.55-11.59-1.67-4.24-2.82-8.63-3.66-13.1-.59-3.18-1.01-6.38-1.28-9.59-.2-2.33-.29-4.67-.44-7-.02-.29,.09-.37,.34-.44,5.31-1.59,10.62-3.19,15.93-4.78,3.57-1.07,7.14-2.15,10.71-3.21,.24-.07,.54-.08,.78,0,8.85,2.65,17.69,5.31,26.53,7.95,.35,.11,.51,.24,.46,.63-.07,.51-.07,1.02-.07,1.53Z"/></g><g class="cls-12"><g class="cls-8"><path class="cls-17" d="M404.26,387.82c0,.29-.25,3.09-.35,4.2-.14,1.43-.28,2.87-.43,4.3-.4,3.75-1.06,7.46-1.94,11.13-1.22,5.05-2.91,9.93-5.41,14.49-2.53,4.61-5.78,8.61-10.05,11.74-2.73,2-5.72,3.5-8.93,4.55-.13,.04-.3,.03-.44-.02-6.11-2.12-11.17-5.72-15.2-10.79-2.8-3.51-4.9-7.42-6.55-11.59-1.67-4.24-2.82-8.63-3.66-13.1-.59-3.18-1.01-6.38-1.28-9.59-.2-2.33-.29-4.67-.44-7-.02-.29,.09-.37,.34-.44,5.31-1.59,10.62-3.19,15.93-4.78,3.57-1.07,7.14-2.15,10.71-3.21,.24-.07,.54-.08,.78,0,8.85,2.65,17.69,5.31,26.53,7.95,.35,.11,.51,.24,.46,.63-.07,.51-.07,1.02-.07,1.53Z"/></g></g></g><g class="cls-8"><rect class="cls-17" x="47.12" y="245.13" width="254.16" height="20.63" rx="5.76" ry="5.76"/></g><path class="cls-7" d="M212.41,204.33H47.12c-1.19,0-2.16-.97-2.16-2.16s.97-2.16,2.16-2.16H212.41c1.19,0,2.16,.97,2.16,2.16s-.97,2.16-2.16,2.16Z"/><path class="cls-7" d="M212.41,219.39H47.12c-1.19,0-2.16-.97-2.16-2.16s.97-2.16,2.16-2.16H212.41c1.19,0,2.16,.97,2.16,2.16s-.97,2.16-2.16,2.16Z"/><g><path class="cls-1" d="M149.43,328.7H47.45s-.76,2.23,0,3.66c.38,.71,3.35,2.54,6.42,4.4v92.19c0,8.83,7.22,16.05,16.05,16.05h79.51c8.83,0,16.05-7.22,16.05-16.05v-100.25h-16.05Z"/><g class="cls-8"><rect class="cls-17" x="59.12" y="335.08" width="100.44" height="37.23"/></g><g class="cls-13"><path class="cls-11" d="M59.12,369.81v55.79c0,7.94,6.5,14.44,14.44,14.44h71.56c7.94,0,14.44-6.5,14.44-14.44v-55.79H59.12Z"/></g><path class="cls-7" d="M272.15,385.87h-127.93c-.8,0-1.44-.64-1.44-1.44s.64-1.44,1.44-1.44h127.93c.8,0,1.44,.64,1.44,1.44s-.64,1.44-1.44,1.44Z"/><path class="cls-7" d="M239.63,414.48c-.29,0-.59-.09-.84-.27l-39.67-28.61c-.65-.47-.79-1.37-.33-2.01,.47-.64,1.36-.79,2.01-.33l39.67,28.61c.65,.47,.79,1.37,.33,2.01-.28,.39-.72,.6-1.17,.6Z"/><circle class="cls-23" cx="293.21" cy="384.67" r="6.78"/><circle class="cls-21" cx="256.08" cy="427.68" r="6.78"/><path class="cls-7" d="M92.35,393.38c2.78,0,2.78-4.32,0-4.32s-2.78,4.32,0,4.32h0Z"/><path class="cls-7" d="M129.83,413.41c2.78,0,2.78-4.32,0-4.32s-2.78,4.32,0,4.32h0Z"/><path class="cls-7" d="M117.23,422.78c2.78,0,2.78-4.32,0-4.32s-2.78,4.32,0,4.32h0Z"/></g><path class="cls-4" d="M429.74,148.02H18.46c-10.15,0-18.46,8.31-18.46,18.46V475.9c0,10.15,8.31,18.46,18.46,18.46H429.74c10.15,0,18.46-8.31,18.46-18.46V166.48c0-10.15-8.31-18.46-18.46-18.46Zm7.25,319.22c0,10.15-8.31,18.46-18.46,18.46H29.66c-10.15,0-18.46-8.31-18.46-18.46V175.13c0-10.15,8.31-18.46,18.46-18.46H418.54c10.15,0,18.46,8.31,18.46,18.46V467.24Z"/><polygon class="cls-4" points="178.52 490.04 163.88 533.38 218.89 533.38 229.4 533.38 284.41 533.38 269.78 490.04 178.52 490.04"/></g></g></g></g></g></svg>