<?xml version="1.0" encoding="UTF-8"?><svg xmlns="http://www.w3.org/2000/svg" viewBox="0 0 651.89 664.32"><defs><style>.cls-1{fill:#ba8083;}.cls-2{fill:#fff;}.cls-3{fill:#cd4554;}.cls-4{opacity:.34;}.cls-4,.cls-5,.cls-6,.cls-7,.cls-8,.cls-9{mix-blend-mode:multiply;}.cls-10{isolation:isolate;}.cls-11{fill:#020202;}.cls-5{opacity:.37;}.cls-6{opacity:.05;}.cls-12{fill:#333;}.cls-13{fill:#387da9;}.cls-14{fill:#c4dadf;}.cls-7{opacity:.3;}.cls-15{fill:#513837;}.cls-16{opacity:.66;}.cls-17{fill:#2680c4;}.cls-18{fill:#5b88bd;}.cls-19{opacity:.53;}.cls-20{fill:#898f9b;}.cls-8{opacity:.71;}.cls-21{fill:#dce3e6;opacity:.38;}.cls-22{fill:#cbdce0;}.cls-23{fill:#4386cd;}.cls-24{fill:#d7e2e2;}.cls-25{fill:#819cac;}.cls-26{fill:#eab892;}.cls-27{fill:#f1cd95;}</style></defs><g class="cls-10"><g id="Layer_2"><g id="Layer_1-2"><path class="cls-21" d="m161.17,13.5l-56.67,556.43c-.68,4.15,2.52,7.92,6.73,7.92l273.79-3.96L247.35,18.61l-86.17-5.1Z"/><path class="cls-12" d="m503.79,561.28H239.52c-4.27,0-8.07-3.46-8.5-7.72L176.32,7.72c-.43-4.27,2.68-7.72,6.95-7.72h264.27c4.27,0,8.07,3.46,8.5,7.72l54.7,545.83c.43,4.27-2.68,7.72-6.95,7.72Z"/><path class="cls-12" d="m497.35,549.43L443.82,15.26c-.4-3.94-3.91-7.14-7.86-7.14h-249.67l-6.92-7-12.2,7.89h0c-2.08,1.22-3.34,3.56-3.07,6.26l54.82,546.99c.4,3.94,3.91,7.14,7.86,7.14h265.43c1.11,0,2.13-.26,3.03-.71h0c.55-.28,1.06-.64,1.5-1.06l11.62-7.95v-5.74l-11-4.5Z"/><path class="cls-24" d="m496.17,553.93h-250.52c-4.2,0-7.95-3.41-8.37-7.61L183.99,11.55c-.42-4.2,2.64-4.65,6.84-4.65h250.52c4.2,0,7.95.22,8.37,4.42l53.3,535c.42,4.2-2.64,7.61-6.84,7.61Z"/><g class="cls-9"><path class="cls-22" d="m436.85,119.96h-215.45c-4.15,0-7.85-3.36-8.26-7.51l-3.07-30.65c-.42-4.15,2.61-7.51,6.76-7.51h215.45c4.15,0,7.85,3.36,8.26,7.51l3.07,30.65c.42,4.15-2.61,7.51-6.76,7.51Z"/></g><g class="cls-9"><path class="cls-22" d="m443.7,187.93h-215.53c-4.12,0-7.8-3.34-8.22-7.47l-3.08-30.73c-.41-4.12,2.6-7.47,6.72-7.47h215.53c4.12,0,7.8,3.34,8.22,7.47l3.08,30.73c.41,4.12-2.6,7.47-6.72,7.47Z"/></g><g class="cls-9"><polygon class="cls-22" points="458.06 256.66 227.59 256.66 226.82 248.99 457.29 248.99 458.06 256.66"/></g><g class="cls-9"><polygon class="cls-22" points="462.61 302.09 232.14 302.09 231.37 294.42 461.84 294.42 462.61 302.09"/></g><polygon class="cls-11" points="281.77 458.2 255.22 458.2 245.54 361.55 272.09 361.55 281.77 458.2"/><polygon class="cls-11" points="332.95 458.2 306.39 458.2 296.71 361.55 323.26 361.55 332.95 458.2"/><path class="cls-11" d="m470.88,458.2h-100.48c-4.07,0-7.71-3.3-8.12-7.38l-8.21-81.9c-.41-4.07,2.56-7.38,6.64-7.38h100.48c4.07,0,7.71,3.3,8.12,7.38l8.21,81.9c.41,4.07-2.56,7.38-6.64,7.38Z"/><g class="cls-9"><path class="cls-22" d="m485.25,522.95h-224.04l-1.91-19.06h224.04l1.91,19.06Zm-223.14-1h222.03l-1.71-17.06h-222.03l1.71,17.06Z"/></g><g class="cls-19"><polygon class="cls-2" points="431.83 100.95 225.79 100.95 225.15 94.56 431.19 94.56 431.83 100.95"/></g><g class="cls-19"><polygon class="cls-2" points="438.6 168.42 232.55 168.42 231.91 162.03 437.96 162.03 438.6 168.42"/></g><path class="cls-2" d="m282.66,269.6h-5.9c-4.6,0-8.7-3.73-9.16-8.33l-1.69-16.89c-.46-4.6,2.89-8.33,7.49-8.33h5.9c4.6,0,8.7,3.73,9.16,8.33l1.69,16.89c.46,4.6-2.89,8.33-7.49,8.33Z"/><path class="cls-2" d="m362.75,315.03h-5.9c-4.6,0-8.7-3.73-9.16-8.33l-1.69-16.89c-.46-4.6,2.89-8.33,7.49-8.33h5.9c4.6,0,8.7,3.73,9.16,8.33l1.69,16.89c.46,4.6-2.89,8.33-7.49,8.33Z"/><polygon class="cls-18" points="232.85 101.56 225.85 101.56 225.15 94.56 232.15 94.56 232.85 101.56"/><polygon class="cls-18" points="282.74 101.56 275.74 101.56 275.04 94.56 282.04 94.56 282.74 101.56"/><g class="cls-8"><polygon class="cls-3" points="332.62 101.56 325.62 101.56 324.92 94.56 331.92 94.56 332.62 101.56"/></g><polygon class="cls-18" points="432.39 101.56 425.39 101.56 424.69 94.56 431.69 94.56 432.39 101.56"/><polygon class="cls-18" points="382.5 101.56 375.5 101.56 374.8 94.56 381.8 94.56 382.5 101.56"/><polygon class="cls-18" points="239.58 168.72 232.58 168.72 231.88 161.72 238.88 161.72 239.58 168.72"/><polygon class="cls-18" points="289.47 168.72 282.47 168.72 281.77 161.72 288.77 161.72 289.47 168.72"/><polygon class="cls-18" points="339.35 168.72 332.35 168.72 331.65 161.72 338.65 161.72 339.35 168.72"/><polygon class="cls-18" points="439.12 168.72 432.12 168.72 431.42 161.72 438.42 161.72 439.12 168.72"/><polygon class="cls-18" points="389.23 168.72 382.23 168.72 381.53 161.72 388.53 161.72 389.23 168.72"/><ellipse class="cls-25" cx="398.64" cy="97.12" rx="8.86" ry="9.8" transform="translate(53.53 319.03) rotate(-46.43)"/><ellipse class="cls-25" cx="289.9" cy="165.37" rx="8.86" ry="9.8" transform="translate(-29.72 261.46) rotate(-46.43)"/><polygon class="cls-17" points="281.77 458.2 255.22 458.2 247.28 378.97 273.83 378.97 281.77 458.2"/><polygon class="cls-17" points="332.95 458.2 306.39 458.2 301.55 409.87 328.1 409.87 332.95 458.2"/><polygon class="cls-14" points="464.63 443.79 451.11 421.62 436.46 421.62 419.36 399.93 399.22 399.93 393.28 424.34 370.71 380.8 371.6 380.34 392.94 421.51 398.44 398.93 419.84 398.93 436.94 420.62 451.67 420.62 465.49 443.26 464.63 443.79"/><ellipse class="cls-14" cx="451.39" cy="421.12" rx="1.52" ry="1.68" transform="translate(-164.95 455.95) rotate(-46.25)"/><ellipse class="cls-14" cx="436.62" cy="420.93" rx="1.52" ry="1.68" transform="translate(-169.38 445.22) rotate(-46.25)"/><ellipse class="cls-14" cx="419.26" cy="399.53" rx="1.52" ry="1.68" transform="translate(-159.27 426.08) rotate(-46.25)"/><ellipse class="cls-14" cx="398.83" cy="399.43" rx="1.52" ry="1.68" transform="translate(-165.5 411.29) rotate(-46.25)"/><ellipse class="cls-14" cx="393.05" cy="422.99" rx="1.52" ry="1.68" transform="translate(-184.3 414.39) rotate(-46.25)"/><ellipse class="cls-14" cx="371.16" cy="380.57" rx="1.52" ry="1.68" transform="translate(-160.41 385.49) rotate(-46.25)"/><ellipse class="cls-14" cx="465.06" cy="443.53" rx="1.52" ry="1.68" transform="translate(-176.92 472.74) rotate(-46.25)"/><polygon class="cls-2" points="477.43 515.4 266.34 515.4 265.92 511.17 477 511.17 477.43 515.4"/><polygon class="cls-23" points="331.76 515.4 266.34 515.4 265.92 511.17 331.34 511.17 331.76 515.4"/><polygon class="cls-3" points="340.3 515.4 317.46 515.4 317.04 511.17 339.88 511.17 340.3 515.4"/><path class="cls-11" d="m355.57,22.47h-86.52c-1.59,0-3.01-1.73-3.17-3.86h0c-.16-2.13,1-3.86,2.6-3.86h86.52c1.59,0,3.01,1.73,3.17,3.86h0c.16,2.13-1,3.86-2.6,3.86Z"/><ellipse class="cls-11" cx="374.06" cy="18.61" rx="3.67" ry="4.06" transform="translate(102.78 276.82) rotate(-46.43)"/><path class="cls-14" d="m77.24,489.13H2c-1.1,0-2-.9-2-2s.9-2,2-2h75.24c1.1,0,2,.9,2,2s-.9,2-2,2Z"/><path class="cls-14" d="m626.81,55.5h-27.5c-1.1,0-2-.9-2-2s.9-2,2-2h27.5c1.1,0,2,.9,2,2s-.9,2-2,2Z"/><path class="cls-14" d="m649.89,55.5h-11.81c-1.1,0-2-.9-2-2s.9-2,2-2h11.81c1.1,0,2,.9,2,2s-.9,2-2,2Z"/><path class="cls-15" d="m509.98,619.75l1.58,38.07s-1.05,3.66-4.25,3.99-25.85,1.07-25.85,1.07l-20.16-4.92c-1.6-.39-2.78-1.77-2.86-3.41s.22-3.55,1.81-4.65c3.12-2.14,10.02-5.23,10.85-9.48.83-4.25,4.81-19.47,6.43-19.33s32.46-1.34,32.46-1.34Z"/><path class="cls-15" d="m592.15,621.8l1,39.11s-1,3.01-1.8,3.01h-31.08l-10.23-1.72s-.8-5.7,2.41-7.91c3.21-2.21,4.61-4.01,5.21-10.23.6-6.22,2.41-16.65,3.61-17.25s30.88-5.01,30.88-5.01Z"/><path class="cls-13" d="m568.48,627.82v3.94c0,1.16.92,2.11,2.08,2.15l21.91.72-.24-9.3-23.76,2.49Z"/><path class="cls-13" d="m481.6,622.53l-.72,3.12c-.34,1.46.68,2.89,2.17,3.04l27.42,2.71-.48-11.66-28.39,2.78Z"/><path class="cls-27" d="m481.43,663.13c-.48,0-.9-.35-.99-.83l-1.41-8.41c-1.89,3.04-5.17,7.41-8.07,6.72-.54-.13-.87-.67-.73-1.21.13-.54.67-.87,1.21-.73,1.7.42,5.3-4.47,7.23-8.16.2-.38.61-.6,1.04-.52.42.07.76.4.83.82l1.87,11.16c.09.54-.28,1.06-.82,1.15-.06,0-.11.01-.17.01Z"/><path class="cls-27" d="m560.26,664.32c-.08,0-.16,0-.23-.03-.54-.13-.87-.67-.74-1.21l3.41-14.24c.12-.49.58-.83,1.09-.76.5.06.88.49.88.99v14.24c0,.55-.45,1-1,1s-1-.45-1-1v-5.77l-1.44,6c-.11.46-.52.77-.97.77Z"/><path class="cls-26" d="m627.04,247.11s4.55,30.48,3.48,35.56c-1.07,5.08-.27,7.49-5.62,12.84s-22.33,19.79-22.33,19.79l-9.23-58.03,33.69-10.16Z"/><path class="cls-26" d="m519.28,59.4s-9.63-.53-11.63,4.68c-2.01,5.21-1.74,26.07-1.74,29.95s-.94,15.91,4.81,20.72c5.75,4.81,12.17,5.48,12.17,5.48l16.15-7.75-6.79-48.53-12.97-4.55Z"/><path class="cls-26" d="m513.27,114.48s.8,24.6,0,28.08c-.8,3.48,17.38,2.67,17.38,2.67,0,0,16.04-1.74,16.04-2.41s-.94-14.17,0-25.27-33.42-3.08-33.42-3.08Z"/><path class="cls-18" d="m535.07,362.79l-.18,2.77-1.13,17.45-5.3,82.02-11.12,158.22c-19.47,4.82-42.18-.66-42.18-.66,0,0-3.67-11.09-3.74-31.96-.06-20.87,3.87-110.15,3.87-110.15l-4.06-98.2v-.02l-.5-11.99,42.8-4.98,21.52-2.51Z"/><path class="cls-18" d="m602.58,360.09l-.12,6.14-.35,17.65-4.75,241.46s-8.82,3.89-21.26,4.69c-12.43.8-24.46-4.69-24.46-4.69l-10.27-256.84-.12-3.02-.04-.97,61.37-4.42Z"/><g class="cls-16"><polygon class="cls-1" points="628.36 256.55 603.41 288.61 600.57 265.43 628.36 256.55"/></g><g class="cls-4"><path class="cls-18" d="m497.48,596.78s-.04,0-.07,0c-.69-.04-1.22-.63-1.18-1.32l5.95-110.91,1.67-95.82c.01-.68.57-1.23,1.25-1.23h.02c.69.01,1.24.58,1.23,1.27l-1.67,95.86-5.95,110.96c-.04.67-.59,1.18-1.25,1.18Z"/></g><g class="cls-7"><path class="cls-18" d="m534.9,365.56l-1.13,17.45c-15.31,1.21-62.52-.72-62.52-.72v-.02l-.92-17.5,43.23.53,21.34.26Z"/></g><g class="cls-7"><path class="cls-18" d="m602.46,366.22l-.35,17.65c-17.39.86-59.98-.88-59.98-.88v-.02l-.77-14.48-.16-3.02h.04l43.19.53,18.02.22Z"/></g><g class="cls-4"><path class="cls-18" d="m580.11,555.07c-.67,0-1.23-.54-1.25-1.21l-4.41-148.41c-.02-.69.52-1.27,1.21-1.29.01,0,.03,0,.04,0,.67,0,1.23.54,1.25,1.21l4.41,148.41c.02.69-.52,1.27-1.21,1.29-.01,0-.03,0-.04,0Z"/></g><path class="cls-26" d="m460.97,260.9s-20.03,18.83-26.72,20.97c-6.68,2.14-14.97.42-18.18-10.48-3.21-10.91-24.33-89.25-24.87-98.35,0,0-4.91-15.91-5.41-24.43-.5-8.52,2.41-5.11,2.41-5.11,0,0-.5-7.32,2.01-8.42,0,0,1.4-.4,2.01,0,0,0-.1-6.32,1.91-6.62s2.01.7,2.01.7c0,0-3.51-14.44-1.4-16.34,2.11-1.91,3.81.7,3.81.7l12.73,29.28s1.5-10.73,5.41-10.43c0,0,2.11-.6,2.21.6s.4,14.14.6,17.55c.2,3.41.5,10.03,1.3,11.93s14.94,41.95,14.94,41.95l25.25,56.5Z"/><g class="cls-16"><polygon class="cls-1" points="426.17 227.75 421.28 237.75 451.36 240.52 426.17 227.75"/></g><path class="cls-18" d="m637.3,249.29c-.55,2.52-3.3,4.2-5.38,5.31-6.95,3.69-22.4,11.09-27.93,13.74-1.28.61-2.02.97-2.02.97l.06.87,1.97,30.82,4.4,68.86c-7.17.71-14.23,1.31-21.14,1.8-68.37,4.92-122.19.06-122.19.06-1.34-9.36,7.76-104.55,7.76-104.55-.01,0-.03-.01-.04-.01-6.35-2.46-12.56-6.3-18.33-10.7-13.14-10.01-23.91-22.89-28.47-28.71-1.44-1.83-1.61-4.36-.43-6.36l39.17-66.69c.75-1.26,1.93-2.21,3.33-2.64,69.83-21.61,86.74-13.2,115.08-6.73,6.02,1.38,19.65,4.1,23.4,7.94,5.54,5.69,21.93,59.36,21.93,59.36,2.77,11.53,5.01,23.34,8.68,34.59.23.73.36,1.31.18,2.08Z"/><path d="m531.28,343.54c-.21,0-.42-.04-.62-.13-.75-.34-1.09-1.23-.75-1.98,14.13-31.31,40.27-128.15,40.53-129.13.21-.8,1.04-1.27,1.84-1.06.8.21,1.27,1.04,1.06,1.84-.26.98-26.47,98.05-40.7,129.58-.25.55-.8.88-1.37.88Z"/><path d="m555.45,326.69c-.19,0-.37-.03-.56-.11-.77-.31-1.14-1.18-.84-1.95,4.72-11.79,13.08-47.26,13.17-47.62.19-.81,1-1.31,1.8-1.12.81.19,1.31,1,1.12,1.8-.34,1.47-8.5,36.04-13.3,48.04-.23.59-.8.94-1.39.94Z"/><g class="cls-5"><path class="cls-18" d="m477.3,213.89l-4.28,52.67-.04.59c-6.35-2.46-12.56-6.3-18.33-10.7l.21-.44,22.44-42.13Z"/></g><path d="m451.36,222.72c-.21,0-.41-.04-.61-.13-.76-.34-1.09-1.23-.75-1.98l3.29-7.33c.34-.76,1.23-1.1,1.98-.75.76.34,1.09,1.23.75,1.98l-3.29,7.33c-.25.56-.8.89-1.37.89Z"/><g class="cls-16"><path class="cls-1" d="m513.24,116.59s5.64,3.24,9.65,3.65c4.01.4-9.27,13.77-9.27,13.77l-.38-17.42Z"/></g><path class="cls-20" d="m528.64,53.92s-20.38-5.55-16.41,6.38c3.97,11.93-2.04,15.14-2.04,15.14,0,0-1.07,14.57-.67,17.38.4,2.81,2.67.8,2.67.8,0,0,1.04-10.16,3.61-10.83,2.6-.68,6.15-.27,5.62,5.48-.4,4.32-.94,16.85-5.88,15.38-3.55-1.06-2.3,2.54-2.3,2.54,0,0,4.71,12.03,7.31,15.84s8.09,3.21,8.09,3.21l16.58.03s4.21-3.04,5.41-8.66c1.2-5.62,4.01-27.88,4.21-33.49.2-5.62.6-16.65-10.43-22.06-11.03-5.41-15.78-7.15-15.78-7.15Z"/><path d="m420.9,239.79c-.22,0-.45-.05-.66-.15-.74-.36-1.05-1.26-.69-2.01l4.89-10.01c.37-.74,1.26-1.05,2.01-.69.74.36,1.05,1.26.69,2.01l-4.89,10.01c-.26.53-.79.84-1.35.84Z"/><g class="cls-16"><path class="cls-1" d="m399,140.78c-.46,0-.9-.25-1.12-.69-.84-1.69-2.88-10.33-3.11-11.3-.16-.67.26-1.34.93-1.5.67-.16,1.34.26,1.5.93.84,3.59,2.37,9.68,2.91,10.76.31.62.06,1.37-.56,1.68-.18.09-.37.13-.56.13Z"/></g><g class="cls-16"><path class="cls-1" d="m392.99,146.59c-.49,0-.95-.29-1.15-.77-.82-1.96-1.61-9.16-1.7-9.98-.07-.69.42-1.3,1.11-1.38.67-.07,1.3.42,1.38,1.11.31,2.94,1,8.05,1.51,9.28.27.64-.03,1.37-.67,1.64-.16.07-.32.1-.48.1Z"/></g><g class="cls-16"><path class="cls-1" d="m389.58,151.21c-.49,0-.95-.28-1.15-.76-1.26-2.95-1.68-6.82-1.7-6.98-.07-.69.43-1.3,1.11-1.37.69-.05,1.3.43,1.38,1.11,0,.04.4,3.66,1.51,6.26.27.63-.02,1.37-.66,1.64-.16.07-.33.1-.49.1Z"/></g><g class="cls-16"><path class="cls-1" d="m413.98,151.94c-.52,0-1-.32-1.18-.84l-3.41-9.76c-.23-.65.12-1.36.77-1.59.65-.23,1.36.12,1.59.77l3.41,9.76c.23.65-.12,1.36-.77,1.59-.14.05-.28.07-.41.07Z"/></g><path d="m601.97,269.3l.06.87-5.94-63.59,2.12-.19,5.78,61.95c-1.28.61-2.02.97-2.02.97Z"/><g class="cls-6"><path class="cls-18" d="m608.39,369.85c-7.17.71-14.23,1.31-21.14,1.8l16.74-70.67,4.4,68.86Z"/></g><g class="cls-4"><path class="cls-18" d="m471.99,355.81c-.08,0-.15,0-.23-.02-3.56-.52-6.34-2.29-6.46-2.36-.58-.37-.75-1.15-.38-1.73.37-.58,1.15-.75,1.73-.38.02.01,2.17,1.37,4.92,1.9,1.45-3.51,2.06-25.27,1.83-45.62h-4.13c-.69,0-1.25-.56-1.25-1.25s.56-1.25,1.25-1.25h5.37c.68,0,1.24.55,1.25,1.23.18,13.85.28,46.35-2.79,49.04-.32.28-.7.43-1.09.43Z"/></g></g></g></g></svg>