<?xml version="1.0" encoding="UTF-8"?><svg xmlns="http://www.w3.org/2000/svg" viewBox="0 0 816.53 515.45"><defs><style>.cls-1{fill:#bf6780;}.cls-2{fill:#be6480;}.cls-3{fill:#be6380;}.cls-4{fill:#d86435;}.cls-5{isolation:isolate;}.cls-6{fill:#d6e7eb;}.cls-7{fill:#849faf;}.cls-8{fill:#333;}.cls-9{opacity:.44;}.cls-10{opacity:.23;}.cls-11{mix-blend-mode:screen;}.cls-12{fill:#5b8bc0;}.cls-13{fill:#c4444b;}.cls-14{fill:#5785b9;}.cls-15{fill:#d18c72;}.cls-16{fill:#0b0b0b;}.cls-17{fill:#be6580;}.cls-18{fill:#070707;}.cls-19{fill:#d08b70;}.cls-20{mix-blend-mode:multiply;}.cls-21{fill:#f6bb49;}.cls-22{fill:#010101;}</style></defs><g class="cls-5"><g id="Layer_2"><g id="Layer_1-2"><g><path class="cls-15" d="M791.15,397.72c-1.33,6.23-5.68,11.36-9.4,16.55-.84,1.17-1.78,2.25-2.95,3.08-.83,.6-1.88,.66-2.71,.11-.97-.65-15.19-13.06-20.06-11.6-1.17-1.88-.88-2.98,.53-3.73,1.47-.79,2.96-1.53,4.47-2.22,4.86-2.23,9.76-4.39,14.39-7.09,2.16-1.26,4.53-2.01,7.01-2.51,4.51-.89,7.61-.45,8.71,3.85,.29,1.15,.25,2.4,0,3.57Z"/><path class="cls-19" d="M290.3,74.24c.2-1.78,.51-3.58,.93-5.4,1.21-5.26,3.58-9.56,8.12-12.8,5.04-3.59,10.58-5.7,16.57-6.77,1.67-.3,3.42-.1,5.14-.11,1.95-.01,3.9,0,5.9,0,1.94-4.86,3.74-9.69,6.67-14.01,7.47-11,17.8-17.43,30.85-19.8,6.39-1.16,12.77-2.39,19.17-3.42,4.75-.76,9.69-1.62,14.54-.84,5.61,.89,11.28,1.05,16.9,1.95,3.09,.5,6.16,1.22,9.26,1.55,5.55,.59,8.97,4.11,11.9,8.17,2.21,3.06,3.16,6.57,3.16,10.56,0,6.37-.76,12.46-2.8,18.51-.82,2.43-2.12,4.92-1.75,7.68,0,0-.52,.24-.73,.68-2.14,4.4-3.54,9.08-5.13,13.68-2.83,8.18-4.95,16.59-7.89,24.73-.27,.76-.31,1.38,.18,2.03,.61,.8,1.47,.82,2.33,.69,1.22-.17,1.35-1.36,1.6-2.17,1.12-3.5,2-7.08,3.12-10.58,2.29-7.12,4.48-14.26,7.17-21.25,.97-2.51,2.26-5.02,2.29-7.83,3.62-1.33,5.72-.03,5.94,3.56,.16,2.59-.47,5.03-1.17,7.47-1.33,4.63-3.1,9.1-4.96,13.52-3.2,7.58-7.06,14.84-11.64,21.67-2.19,3.26-4.87,6.13-9.15,6.63-1.18,.14-1.59,.88-1.96,1.85-1.16,3.03-2.4,6.02-3.59,9.04-4.29,10.89-9.39,21.41-14.77,31.8-1,1.93-2.4,3.65-4,5.19-1.02,.98-2.04,1.75-3.42,1.33-1.24,1.88-1.08,3.85-1.43,5.72-2,10.64-2.51,21.5-4.25,32.19-.2,1.23-.54,2.64,.69,3.78,1.15,1.06,.86,2.45,.38,3.73-3.55,9.45-9.72,16.41-19.33,19.98-7.81,2.9-15.94,4.26-24.25,3.62-9.16-.71-18.23-2.02-26.42-6.68-3.99-2.27-7.25-5.25-9.49-9.28-.23-.42-.31-1.06-.66-1.26-3.2-1.89-2.22-4.85-1.66-7.41,1.7-7.85,3.67-15.63,5.52-23.44,.14-.59,.13-1.21,.19-1.82,2.18,.03,4.29-.2,6.45-.64,4.91-1,10-1.21,14.86-2.41,6.68-1.66,13.43-3.18,19.83-5.8,4.22-1.73,8.35-3.66,12.38-5.78,1.13-.6,1.97-1.46,2.7-2.4,1.49-1.9,1.02-3.85-1.19-5-1.7-.89-3.49-1.55-5.49-1.49-1.46,.04-2.95,.08-4.38-.16-3.52-.59-7.01-1.38-10.52-2.02-5.31-.97-10.5-2.17-15.24-4.95-2.71-1.59-4.79-3.71-4.71-6.74,.14-5.12-.87-10.14-.85-15.23,.03-6.85-.01-13.69,0-20.54,0-1.9-.32-3.59-2.09-4.67-.22-.52-.46-.57-1.07-.37-3.41,1.1-6.86,2-10.38,2.79-7.12,1.61-13.91-2.24-15.97-8.88-2.31-7.46-3.28-14.68-2.42-22.16Zm12.49,7.56c2.73,2.66,5.29,5.09,7.79,7.6,.63,.63,1.37,1,2.13,1.33,2.1,.91,3.16,.38,3.61-1.84,.93-4.58,1.58-9.2,1.5-13.89-.02-1.13-.26-2.12-.76-3.1-.49-.95-1.17-1.64-2.3-1.32-1.06,.31-1.41,1.15-1.4,2.26,.04,3.29,.04,6.58,0,9.87-.01,.79,.39,1.71-.7,2.57-1.79-1.1-3.05-2.92-4.66-4.32-1.65-1.43-3.01-1.28-5.22,.85Z"/><path class="cls-3" d="M320.13,102.86c1.77,1.08,2.1,2.78,2.09,4.67-.02,6.85,.02,13.69,0,20.54-.02,5.09,.98,10.11,.85,15.23-.08,3.03,2,5.15,4.71,6.74,4.75,2.78,9.94,3.99,15.24,4.95,3.51,.64,7,1.43,10.52,2.02,1.43,.24,2.92,.2,4.38,.16,2-.06,3.79,.6,5.49,1.49,2.21,1.15,2.67,3.09,1.19,5-.73,.94-1.57,1.8-2.7,2.4-4.04,2.12-8.17,4.05-12.38,5.78-6.4,2.62-13.16,4.14-19.83,5.8-4.85,1.2-9.94,1.41-14.86,2.41-2.17,.44-4.28,.67-6.45,.64,.94-4.56,1.91-9.12,2.8-13.69,1.22-6.35,2.6-12.67,3.48-19.07,.54-3.92,1.39-7.79,1.76-11.75,.44-4.76,1.64-9.46,1.97-14.23,.2-2.9,.55-5.79,1.02-8.61,.59-3.5,.43-6.99,.74-10.47Z"/><path class="cls-3" d="M437.81,59.5c-.04,2.82-1.33,5.32-2.29,7.83-2.69,6.99-4.88,14.13-7.17,21.25-1.12,3.5-2,7.08-3.12,10.58-.26,.81-.39,1.99-1.6,2.17-.86,.12-1.72,.11-2.33-.69-.49-.65-.45-1.28-.18-2.03,2.94-8.15,5.06-16.55,7.89-24.73,1.59-4.6,2.99-9.28,5.13-13.68,.25-.72,.73-.68,.73-.68h2.95Z"/><path class="cls-3" d="M302.78,81.79c2.21-2.13,3.57-2.28,5.22-.85,1.61,1.4,2.87,3.22,4.66,4.32,1.08-.86,.68-1.78,.7-2.57,.05-3.29,.05-6.58,0-9.87-.01-1.11,.34-1.96,1.4-2.26,1.12-.32,1.81,.36,2.3,1.32,.5,.98,.74,1.98,.76,3.1,.07,4.7-.57,9.31-1.5,13.89-.45,2.22-1.52,2.75-3.61,1.84-.76-.33-1.5-.7-2.13-1.33-2.49-2.5-5.05-4.94-7.79-7.6Z"/><path class="cls-12" d="M298.64,185.02c.77,.14,1.52,.27,2.26,.34,3.12,.31,6.72-.06,7.8,3.66,.49,1.66,1.69,3.12,2.59,4.66,.76,1.3,1.97,2.05,3.36,2.53,8.19,2.82,16.25,5.9,25.08,6.63,7.89,.65,15.76,.68,23.62,.36,4.6-.19,9.18-1.24,13.71-2.16,2.12-.43,6.29-2.26,6.83-4.77,.37-1.75,1.65-2.49,3.49-2.3,4.14,.43,8.09,1.73,12.23,2.08,4.39,.38,6.63,.55,11.02,.83,4.44,.28,7.62,2.51,8.05,6.13,.26,2.23,.28,4.51-.21,6.76-3.03,13.86-6.78,27.54-10.48,41.23-4.84,17.92-9.58,35.87-14.36,53.8-3.56,13.37-7.37,26.67-11.48,39.89-7.16,23.05-14.37,46.09-21.46,69.17-5.47,17.81-12.03,35.21-19.81,52.13-1.49,3.24-3.19,6.38-4.96,9.48-1.81,3.18-4.73,4.31-8.14,2.85-3.27-1.4-6.74-1.53-10.1-1.93-12.88-1.54-25.38-4.69-37.83-8.15-14.38-3.99-28.74-8.06-43.19-11.78-7.22-1.86-14.59-3.12-21.93-4.49-3.65-.68-4.68-2.93-3.92-6.15,3.15-13.35,6.54-26.65,10.6-39.76,8.26-26.67,15.93-53.51,23.65-80.34,7.59-26.37,15.59-52.63,23.36-78.95,3.85-13.05,7.65-26.11,11.32-39.2,1.37-4.88,2.51-9.82,3.84-14.72,.91-3.36,2.16-6.92,5.24-8.16,3.06-1.23,6.56-.31,9.81,.29Z"/><path class="cls-15" d="M323.91,423.32c-4.8,4.19-11.36,5.68-17.45,7.6-1.37,.43-2.77,.73-4.21,.7-1.02-.02-1.9-.6-2.23-1.54-.39-1.1-4.31-19.56-9.09-21.32,.19-2.21,1.08-2.91,2.66-2.67,1.65,.25,3.29,.55,4.91,.9,5.23,1.14,10.44,2.34,15.77,2.97,2.48,.29,4.83,1.11,7.11,2.21,4.14,1.99,6.36,4.2,4.66,8.3-.46,1.1-1.24,2.07-2.14,2.85Z"/><g><path class="cls-19" d="M322,453.74c-1.33,6.8-3.61,13.34-5.47,19.99-1.25,4.49-2.59,8.96-3.9,13.44,.06-1.27-.35-2.11-1.55-2.89-8.91-5.82-17.44-12.23-26.72-17.49-4.25-2.42-8.79-4.13-13.57-5.13-1.47-.31-3.06-.34-4.53,.48-1.01,.56-1.95,1.14-1.53,2.42,.41,1.22,1.53,1.5,2.64,1.16,1.26-.38,2.39-.72,3.78-.22,3.11,1.14,6.3,2.03,9.28,3.56,7.61,3.91,14.52,8.9,21.59,13.65,3.21,2.15,5.92,5.16,9.95,5.96,.07,1.51-.67,2.75-1.42,3.96-1.48,2.42-3.19,3.04-5.68,1.66-14.53-8.05-30.55-11.83-46.41-15.97-10.45-2.73-21.23-2.69-31.98-2.43-4.78,.11-9.56-.02-14.34-.05-2.04-.01-3.25-.73-2.54-3.27,3.19-.89,6.55,.12,10.07-.52-2.96-12.77,.74-24.73,5-36.5,4.32-11.93,11.81-21.8,21.93-30.34-2.45,0-4.33,.01-6.2,0-1.39-.01-2.92-.32-2.94-1.91-.02-1.64,1.29-2.36,2.98-2.31,10.62,.31,21.26-.44,31.86,.69,9.56,1.02,18.93,2.79,26.61,9.08,6.61,5.4,11.96,11.94,16.1,19.39,2.83,5.08,5.36,10.32,7.65,15.66,1.21,2.82,1.28,5.47-.69,7.98,.65-2.54-1.01-3.92-2.75-5.19-3.07-2.24-5.88-4.78-8.69-7.31-3.71-3.33-7.18-6.94-11.02-10.11-3.92-3.22-7.76-6.62-12.47-8.77-1.23-.56-2.43-.89-3.79-.79-1.05,.08-1.94,.39-2.09,1.53-.17,1.34,.67,2.02,1.91,2.01,1.52-.01,2.74,.59,3.97,1.37,5.34,3.37,10.06,7.49,14.68,11.75,5.31,4.9,10.5,9.93,16.35,14.23,1.28,.94,2.46,1.29,3.91,1.25Zm-7.73,19.84c1.6-2.33,1.59-3.06-.22-4.46-8.5-6.6-16.94-13.27-25.58-19.69-3.11-2.31-6.53-4.37-10.38-5.38-1.82-.48-3.75-.94-5.41,.53-.77,.67-1.25,1.48-.64,2.5,.5,.82,1.31,1.11,2.16,.73,1.16-.53,2.23-.7,3.41-.09,2.53,1.32,5.21,2.34,7.56,3.98,7.68,5.34,14.83,11.36,22.24,17.05,2.2,1.69,3.94,4.14,6.85,4.82Z"/><path class="cls-17" d="M311.99,488.67c-4.03-.8-6.75-3.81-9.95-5.96-7.07-4.75-13.98-9.74-21.59-13.65-2.98-1.53-6.17-2.42-9.28-3.56-1.39-.51-2.52-.16-3.78,.22-1.12,.34-2.24,.06-2.64-1.16-.42-1.28,.52-1.86,1.53-2.42,1.47-.82,3.05-.78,4.53-.48,4.78,.99,9.32,2.71,13.57,5.13,9.28,5.27,17.81,11.67,26.72,17.49,1.2,.78,1.61,1.62,1.55,2.89-.03,.58-.09,1.15-.65,1.5Z"/><path class="cls-2" d="M314.27,473.58c-2.91-.68-4.66-3.13-6.85-4.82-7.41-5.69-14.56-11.71-22.24-17.05-2.36-1.64-5.04-2.66-7.56-3.98-1.18-.62-2.25-.44-3.41,.09-.84,.39-1.66,.1-2.16-.73-.62-1.02-.13-1.82,.64-2.5,1.66-1.47,3.59-1.01,5.41-.53,3.85,1.01,7.27,3.06,10.38,5.38,8.64,6.42,17.08,13.09,25.58,19.69,1.8,1.4,1.82,2.13,.22,4.46Z"/><path class="cls-2" d="M322,453.74c-1.45,.04-2.63-.31-3.91-1.25-5.85-4.3-11.04-9.33-16.35-14.23-4.62-4.26-9.34-8.38-14.68-11.75-1.23-.78-2.45-1.38-3.97-1.37-1.24,.01-2.08-.67-1.91-2.01,.14-1.13,1.04-1.45,2.09-1.53,1.35-.1,2.56,.23,3.79,.79,4.71,2.15,8.55,5.54,12.47,8.77,3.84,3.16,7.31,6.77,11.02,10.11,2.81,2.53,5.62,5.08,8.69,7.31,1.74,1.26,3.39,2.64,2.75,5.19l.02-.03Z"/></g><path class="cls-13" d="M682.57,416.85c.57-2.31,1.16-4.61,1.71-6.92,1.41-5.92,4.27-8.63,10.35-8.8,13.14-.37,26.26,.35,39.4,.99,11.9,.58,23.84,1.88,35.79,.41,7.22-.89,13.66,2.55,15.1,7.97,.15,.57,.28,1.16,.33,1.75q.47,5.29,5.71,5.29c4.66,0,9.36-.42,13.97,.06,7.83,.82,11.1,3.58,11.57,9.26,.23,2.76-.63,5.43-1.31,8.05-5.61,21.38-11.23,42.75-17.03,64.08-1.11,4.09-2.45,8.25-5.71,11.35-4.1,3.91-8.77,6.03-14.58,4.73-.92-.2-1.9-.14-2.86-.16-33.1-.6-66.19,.15-99.28-.06-8.63-.05-14.39-4.8-12.96-13.45,4.3-12.61,6.39-25.77,9.47-38.68,3.64-15.25,6.91-30.58,10.33-45.88Zm86.89,92.55c1.49-.29,4.23,.9,4.8-.58,1.44-3.73,4.54-2.69,6.9-2.86,3.47-.25,5.07-1.84,6.06-4.94,2.96-9.28,6.02-18.53,8.54-27.96,3.64-13.65,9.15-26.77,11.56-40.77,.73-4.21-.71-6.09-4.96-6.22-4.05-.12-8.09,.08-12.14-.65-6.13-1.1-6.24-.98-7.41,4.94-4.89,24.84-11.29,49.33-17.69,73.81q-1.36,5.21,4.33,5.21Z"/><path class="cls-6" d="M682.57,416.85c-3.43,15.3-6.69,30.63-10.33,45.88-3.08,12.91-5.17,26.07-9.47,38.68-23.36,.05-39.72,.09-63.08,.13-6.52,.01-7.68-1.45-6.08-7.67,6.01-23.29,12.03-46.57,18.05-69.86,.18-.69,.37-1.38,.57-2.06,.77-2.56,1.34-4.11,5.18-3.78,7.93,.68,16,.25,23.98-.22,5.38-.32,10.74-.29,16.11-.46,8.35-.26,16.71-.43,25.06-.64Z"/><path class="cls-14" d="M247.69,180.45c1.08,9.57,2.13,19.14,3.24,28.71,1.29,11.1,2.76,22.19,3.92,33.3,.48,4.58-1.03,5.37-5.21,3.22-4.13-2.13-8.31-4.17-12.38-6.41-2.48-1.37-3.53-1.18-3.48,1.99,.13,7.99-.03,15.98,.1,23.96,.35,22.06,2.58,43.99,4.36,65.95,1.33,16.5,2.53,33.01,3.77,49.51,.19,2.57,1.18,5.1,.25,7.79,1.66,.5,3.12-.37,4.63-.3-.26,1.48-.52,2.96-.79,4.43-7.67-.24-15.26,.77-22.84,1.6-14.45,1.57-28.87,3.48-43.28,5.46-16.28,2.24-32.46,5.09-48.48,8.8-1.27,.29-2.54,.68-3.71,1.23-1.42,.67-2.84,1.29-3.5-.67-.58-1.74,.68-2.54,2.19-3.06,3.61-1.25,7.3-2.22,11.07-2.76,3.1-.45,4.61-1.87,5.72-4.96,12.61-35.06,27.3-69.27,43.01-103.05,1.05-2.26,1.87-4.64,2.9-6.91,.69-1.53,1.08-4.03,3.49-3.05,2.32,.94,.78,2.92,.17,4.3-6.43,14.59-13,29.12-19.4,43.73-9.55,21.79-18.46,43.85-26.59,66.21-.12,.33-.19,.67-.48,1.73,30.96-5.57,61.75-9.8,92.55-12.36-.93-11.55-1.82-22.83-2.74-34.1-1.09-13.3-2.24-26.6-3.3-39.9-1.97-24.86-3.8-49.72-3.07-74.69,.04-1.3,.3-2.6,.57-3.88,.59-2.75,2.18-3.52,4.73-2.28,5.01,2.44,10.02,4.88,15.91,7.75-2.6-20.86-5.12-41.08-7.65-61.3,1.43,0,2.87,.02,4.3,.03Z"/><g><path class="cls-6" d="M246.1,392.6c2.51,1.17,5.11,.55,7.65,.3,5.97-.57,11.95-.36,17.93-.43,1.3-.01,2.43,.36,2.97,1.57,.61,1.35-.37,2.29-1.27,3.04-15.54,12.84-23.35,30.31-29.25,48.88-3.13,9.83-5.88,19.77-7.55,29.98-.75,4.57-2.09,5.77-6.85,6.09-4.89,.33-9.8,.58-14.7,.66-19.26,.29-38.24,3.16-57.31,5.51-31.03,3.84-61.05,12.13-91.37,19.21-10.8,2.53-21.72,4.48-32.92,4.03-5.51-.22-10.9-1.02-16.13-2.78-14.17-4.77-19.93-15.09-16.21-29.5,4.48-17.35,11-34.05,16.93-50.93,19.48-55.51,42.6-109.47,70.43-161.33,10.68-19.9,20.86-40.11,32.87-59.26,8.8-14.03,21.19-23.41,37.88-26.18,5.75-.96,11.61-1.6,17.44-1.75,22.25-.56,44.49,.44,66.73,.72,2.52,20.22,5.04,40.44,7.65,61.3-5.89-2.87-10.9-5.3-15.91-7.75-2.55-1.24-4.15-.47-4.73,2.28-.27,1.28-.53,2.58-.57,3.88-.73,24.97,1.1,49.83,3.07,74.69,1.05,13.3,2.21,26.6,3.3,39.9,.92,11.28,1.81,22.56,2.74,34.1-30.79,2.56-61.59,6.79-92.55,12.36,.29-1.06,.36-1.41,.48-1.73,8.12-22.37,17.04-44.42,26.59-66.21,6.4-14.61,12.97-29.14,19.4-43.73,.61-1.38,2.15-3.36-.17-4.3-2.41-.98-2.8,1.51-3.49,3.05-1.03,2.28-1.84,4.65-2.9,6.91-15.71,33.78-30.4,67.99-43.01,103.05-1.11,3.09-2.63,4.51-5.72,4.96-3.76,.55-7.46,1.51-11.07,2.76-1.51,.52-2.78,1.32-2.19,3.06,.66,1.97,2.08,1.35,3.5,.67,1.17-.56,2.45-.94,3.71-1.23,16.02-3.71,32.2-6.56,48.48-8.8,14.41-1.98,28.82-3.89,43.28-5.46,7.58-.82,15.17-1.84,22.84-1.6Z"/><path class="cls-6" d="M247.69,180.45c13.13,.38,26.31,.21,39.38,1.35,7.53,.65,9.76,4.45,8.26,11.16-7.62,34.12-16.49,67.92-26.49,101.42-8.9,29.81-15.8,60.06-21.18,90.67-.18,1.05-.5,2.08-.76,3.11-1.51-.07-2.97,.79-4.63,.3,.93-2.68-.06-5.22-.25-7.79-1.24-16.51-2.43-33.02-3.77-49.51-1.78-21.96-4-43.9-4.36-65.95-.13-7.99,.03-15.98-.1-23.96-.05-3.16,1-3.35,3.48-1.99,4.07,2.24,8.25,4.28,12.38,6.41,4.18,2.15,5.69,1.36,5.21-3.22-1.17-11.12-2.63-22.2-3.92-33.3-1.12-9.56-2.16-19.14-3.24-28.71Z"/><g><path class="cls-6" d="M448.76,198.34c11.94,1.39,23.68,3.83,35.35,6.63,2.42,.58,4.9,.91,7.31,1.52,5.49,1.39,9.49,4.56,12.09,9.72,4.75,9.42,8.73,19.16,12.8,28.87,5.36,12.79,10.88,25.51,16.3,38.28,1.91,4.49,1.25,5.36-3.66,5.24-30.1-.75-60.2-1.48-90.29-2.24-7.64-.19-15.28-.52-22.92-.78,.43-.85,.84-1.7,1.28-2.54,4.03-7.69,8.46-15.18,11.73-23.26,.51-1.26,1.07-2.52,.05-3.66-1.03-1.15-2.46-.71-3.7-.37-3.06,.85-6.09,1.8-9.58,2.84,.34-.9,.43-1.32,.64-1.68,10.53-18.12,20.62-36.51,32.05-54.1,.97-1.49,1.93-2.77,.55-4.46Z"/><path class="cls-6" d="M411.27,285.52c-12.51-.7-25.01,.17-37.51,.27-1.65,.01-3.37,.16-4.85-.85-1.47-1-2.54-2.23-1.82-4.16,5.12-13.73,8.87-27.9,13.33-41.84,4.14-12.94,8.09-25.93,11.97-38.95,1.15-3.86,4.46-4.7,7.44-5.88,1.7-.67,3.78-.69,5.66-.54,12.94,1.03,25.94,1.43,38.74,3.89,.82,.16,1.66,.14,2.5,.21-.03,.24,.02,.53-.1,.7-13.19,19.47-24.04,40.33-36.12,60.45-.7,1.16-1.85,2.4-.55,3.86,1.19,1.34,2.54,.67,3.96,.36,3.25-.72,6.3-2.18,9.67-2.42l-.04-.06c.7,1.47-.46,2.48-1.01,3.55-3.69,7.17-7.49,14.29-11.25,21.43Z"/></g></g><path class="cls-14" d="M413.9,263.03c-1.42,.31-2.77,.98-3.96-.36-1.3-1.46-.15-2.7,.55-3.86,12.08-20.13,22.93-40.98,36.12-60.45,.12-.18,.07-.47,.1-.7,.85-.26,1.44,.24,2.05,.68,1.38,1.68,.42,2.97-.55,4.46-11.43,17.59-21.52,35.97-32.05,54.1-.21,.36-.31,.79-.64,1.68,3.49-1.04,6.52-1.99,9.58-2.84,1.25-.35,2.67-.79,3.7,.37,1.02,1.14,.46,2.41-.05,3.66-3.27,8.08-7.69,15.57-11.73,23.26-.44,.84-.85,1.69-1.28,2.54-1.49-.02-2.98-.03-4.47-.05,3.76-7.14,7.56-14.26,11.25-21.43,.55-1.06,1.19-3.13,1.1-3.17-.17-.07-6.47,1.38-9.71,2.1Z"/><path class="cls-22" d="M439.41,267.81l.4-.36,.03,.3c-.16,0-.31,0-.47,0l.04,.06Z"/><g class="cls-20"><path class="cls-4" d="M753.87,403.15s-15.57,82.01-21.73,95.79c-5.05,11.29,3.25,15.74,3.25,15.74h35.86l14-102.44c-.27-1.62-.53-4.31-1.73-5.51-1.53-1.53-4.07-2.5-5.97-3.44-3.72-1.85-23.69-.14-23.69-.14Z"/></g><path class="cls-19" d="M792.13,470.69c2.35,2.28,5.02,4.27,6.7,7.18,1.56,2.69,2.89,5.41,1.16,8.55-5.67-.21-11.32,.19-16.97,.66-2.93,.24-4.07,.59-3.82,1.95,.41,2.22,2.28,1.57,3.72,1.68,3.03,.24,6.11-.54,9.1,.48l-2.25,.52c1.31,2.61,3.23,4.74,4.23,7.38,1.68,4.43,1.18,6.38-2.54,9.6-3.24-.79-6.54-.86-9.86-.77-4.02,.11-7.99-.69-11.99-.92-2.4-.14-4.92-.26-7.35-.69-3.7-.65-7.39-1.42-11.19-1.22l.04,.03c-.38-1.14-1.36-.67-2.12-.78-2.03-.83-2.38-2.54-2.16-4.42,.8-6.79,3.47-10.31,11.05-11.28,2.58-.33,5.13-1.09,7.83-1.06-3.22-1.15-6.48-2.2-9.64-3.49-2.63-1.08-4.77-2.74-4.99-5.94-.26-3.92,2.07-6.7,6.58-7.49,5.11-.89,10.25-1.59,15.63-2.41-3.68-1.67-7.13-3.23-10.57-4.81-3.19-1.46-5.87-3.68-8.4-6.02-3.64-3.36-3.47-6.83,.36-10,2.89-2.39,6.05-4.27,10.01-4.13,.71,.03,1.45,0,2-.86-2.56-1.61-5.19-3.12-7.67-4.85-2.95-2.06-4.95-4.81-5.08-8.57-.13-3.52,1.4-5.88,4.74-7.15,1.65-.63,3.41-1.3,5.14-1.34,5.12-.13,10.25-.4,15.38,.34,3.41,.49,6.86,.88,10.29,.93,3.12,.04,6.15,.7,9.25,.87,1.79,.1,3.26,1.18,4.71,2.32,2.48,1.96,4.5,4.26,6.01,6.99,2.07,3.71,1.66,6.29-1.31,9.35-.49,.51-1.07,.93-1.61,1.39-.36-.02-.72-.03-1.08-.05-7.61-.3-15.26,.67-22.85-.69-.81-.14-1.68-.08-2.5,.03-1.09,.13-1.63,.82-1.71,1.94-.07,1.03,.51,1.47,1.31,1.88,.67,.35,1.35,.48,2.07,.42,5.37-.41,10.66,1.12,16.03,.75-.19,1.06,.69,1.36,1.31,1.87,2.69,2.21,4.72,4.95,6.03,8.17,1.74,4.26,.45,7.72-3.66,10.09-5.77-.43-11.59,.62-17.34-.72-1.35-.31-2.66,.05-2.88,1.81-.2,1.56,.62,2.36,2.67,2.42,2.73,.08,5.46,.06,8.19,.09Z"/><path class="cls-1" d="M751.06,505.09c3.8-.2,7.49,.57,11.19,1.22,2.43,.43,4.95,.55,7.35,.69,4,.23,7.97,1.03,11.99,.92,3.31-.09,6.61-.03,9.86,.77-2.32,3.09-5.47,4-9.16,3.48-4.23-.6-8.46-1-12.65-1.98-5.84-1.36-11.46-3.56-17.42-4.41-.5-.07-.91-.21-1.15-.69Z"/><path class="cls-1" d="M797.81,446.97c-5.37,.37-10.65-1.16-16.03-.75-.72,.06-1.4-.07-2.07-.42-.8-.41-1.38-.85-1.31-1.88,.08-1.12,.62-1.81,1.71-1.94,.83-.1,1.7-.17,2.5-.03,7.58,1.36,15.23,.39,22.85,.69,.36,.01,.72,.03,1.08,.05-1.7,2.06-3.88,3.26-6.52,3.6-.81,.03-1.76-.41-2.24,.69h.03Z"/><path class="cls-21" d="M429.77,.23c6.43,.98,11.1,3.12,12.49,10.1,.21,1.07,.6,1.38,1.59,1.54,2.62,.4,3.43,2.05,3.64,4.63,.44,5.4-1.35,10.38-2.53,15.44-1.87,7.97-5.02,15.53-8.22,23.04-.86,2.03-1.97,3.95-3.64,5.46-2.12,1.92-4.17,1.79-5.97-.51-1.53-1.96-2.34-4.2-2.52-6.75-.4-5.68,.87-11.16,1.81-16.68,.67-3.93,1.59-7.81,2.49-12.11-5.1,1-10.08,.51-15.04,.88-6.08,.45-12.15,1.2-18.25,.57-2.48-.26-4.16,.18-5.8,2.52-5.53,7.89-12.29,14.49-20.9,19.18-4.96,2.7-10.2,4.04-15.65,4.62-2.67,.28-5.32,.88-8.02,.81-1.79-.05-2.55,.79-3.11,2.4-1.82,5.18-2.89,10.56-4.38,15.83-1.13,3.98-2.27,7.96-3.4,11.94-.33,1.18-.67,2.33-1.57,3.26-1.73,1.77-3.99,1.42-4.46-.94-.4-2.01-1.02-4.1-.66-6.17,1.38-7.83-.41-15.62-.29-23.44,.04-2.42-1.04-4.6-3.6-5.43-2.09-.69-2.41-2.14-2.23-4.02,.6-6.17,1.17-12.35,2.57-18.41,.6-2.6,1.19-5.22,1.91-7.79,2.3-8.15,7.88-12.76,16.05-14.19,6.96-1.22,13.96-2.22,21.07-2.42,7.83-.22,15.65,.47,23.46,.08,11.14-.55,22.34-1.18,33.19-3.51,.71-.15,1.45-.15,2.18-.15l4.99,.03c.73,0,1.46,0,2.18,.11,.21,.03,.41,.06,.61,.09Z"/><path class="cls-18" d="M309.82,61.58c2.2-.07,4,1.53,5.28,3.72,1.79,3.08,2.49,6.55,2.99,10.04,.18,1.28-.05,2.54-1.71,2.68-1.39,.11-1.85-.94-2.14-2.05-.6-2.35-1.03-4.75-1.8-7.04-1.03-3.05-2.24-3.66-5.46-2.93-1.1,.25-1.97,.22-2.49-.79-.6-1.17-.08-2.11,.91-2.8,1.16-.81,2.48-.89,4.42-.81Z"/><path class="cls-1" d="M792.01,491.19c-2.99-1.02-6.07-.24-9.1-.48-1.45-.12-3.31,.54-3.72-1.68-.25-1.37,.89-1.71,3.82-1.95,5.65-.47,11.3-.86,16.97-.66-.44,2.17-2.24,2.85-3.94,3.64-1.28,.59-2.62,1-4.03,1.13Z"/><path class="cls-1" d="M792.13,470.69c-2.73-.02-5.46,0-8.19-.09-2.04-.06-2.86-.87-2.67-2.42,.22-1.76,1.53-2.12,2.88-1.81,5.75,1.33,11.57,.29,17.34,.72-2.76,2.14-5.96,3.14-9.36,3.6Z"/><path class="cls-19" d="M797.78,446.99c.48-1.1,1.43-.66,2.24-.69-.56,.84-1.43,.65-2.24,.69Z"/><path class="cls-1" d="M748.98,504.34c.76,.12,1.74-.36,2.12,.78-.77-.09-1.65,.12-2.12-.78Z"/><rect class="cls-16" x="403.02" y="84.99" width="7.1" height="13.42" rx="1.9" ry="1.9" transform="translate(781.19 274.35) rotate(-166.72)"/><rect class="cls-16" x="361.59" y="80.85" width="7.22" height="13.42" rx="1.9" ry="1.9" transform="translate(700.51 256.68) rotate(-166.72)"/><g><path class="cls-8" d="M315.59,514.82h268.4c9.5,0,19.34-7.76,21.86-17.25l56.55-212.84c2.52-9.49-3.19-17.25-12.7-17.25H381.31c-9.5,0-19.34,7.76-21.86,17.25l-56.55,212.84c-2.52,9.49,3.19,17.25,12.7,17.25Z"/><path class="cls-8" d="M190.03,514.82h138.13c3.04,0,5.71-1.99,6.58-4.9l5.47-18.27c1.32-4.41-1.98-8.84-6.58-8.84H195.5c-3.04,0-5.71,1.99-6.58,4.9l-5.47,18.27c-1.32,4.41,1.98,8.84,6.58,8.84Z"/><path class="cls-7" d="M194.39,500.27h102.55c3.15,0,5.89-2.14,6.66-5.19l.94-3.71c1.09-4.34-2.19-8.55-6.66-8.55h-102.38c-3.04,0-5.71,1.99-6.58,4.9l-1.11,3.71c-1.32,4.41,1.98,8.84,6.58,8.84Z"/><polygon class="cls-7" points="306.81 482.81 302.3 500.27 296.94 500.27 296.94 482.81 306.81 482.81"/></g><g class="cls-9"><path class="cls-7" d="M695.78,145.34h-94.11c-1.19,0-2.16-.97-2.16-2.16s.97-2.16,2.16-2.16h94.11c1.19,0,2.16,.97,2.16,2.16s-.97,2.16-2.16,2.16Z"/></g><g class="cls-9"><path class="cls-7" d="M570.74,145.34h-19.92c-1.19,0-2.16-.97-2.16-2.16s.97-2.16,2.16-2.16h19.92c1.19,0,2.16,.97,2.16,2.16s-.97,2.16-2.16,2.16Z"/></g><g class="cls-9"><path class="cls-7" d="M161.21,50.71h-47.57c-1.19,0-2.16-.97-2.16-2.16s.97-2.16,2.16-2.16h47.57c1.19,0,2.16,.97,2.16,2.16s-.97,2.16-2.16,2.16Z"/></g><g class="cls-9"><path class="cls-7" d="M728.43,380.45c-.48-7.79,2.16-16.42,6.61-22.81s10.38-10.68,15.09-16.47c7.96-9.81,12.85-25.24,9.18-37.69-1.98-6.7-12.11-5.43-12.2,1.65-.09,7.57,.3,14.28-2.91,21.4-3.14,6.97-8.57,12.02-13.4,17.78-9.28,11.08-11.73,23.16-6.88,36.76,.82,2.29,4.68,2.14,4.51-.61h0Z"/></g><g class="cls-10"><path class="cls-7" d="M762.61,366.88c4.33-7.42,12.54-10.63,15.89-19.03,3.85-9.66,5.76-20.42,7.57-30.62,1.05-5.94-8.19-8.31-8.98-2.48-1.36,10.01-2.6,20.96-6.15,30.47-2.88,7.7-10.24,11.82-11.91,20.14-.42,2.1,2.41,3.51,3.58,1.51h0Z"/></g><g class="cls-11"><path class="cls-13" d="M685.41,499.8c7.35-11.33,9.83-26.98,13.18-39.9,3.52-13.56,7.52-27.6,8.89-41.57,.58-5.94-8.55-6.78-10.14-1.37-3.97,13.51-6,27.76-9.25,41.47-3.03,12.76-8.66,26.54-8.81,39.71-.04,3.38,4.41,4.32,6.13,1.66h0Z"/></g><g class="cls-11"><path class="cls-13" d="M699.83,422.99l-.15,.13c-.74,.68-1.26,1.5-1.56,2.43-.47,.9-.69,1.87-.65,2.91l.27,2.01c.36,1.28,1.01,2.39,1.94,3.33l.15,.13,1.57,1.21,1.85,.78c1.03,.32,2.06,.37,3.09,.14,.7,0,1.35-.18,1.95-.53,.66-.18,1.23-.52,1.71-1,.58-.34,1.05-.81,1.39-1.39,.48-.48,.81-1.05,1-1.71,.48-.92,.71-1.92,.67-2.98l-.28-2.06-.78-1.85-1.21-1.57-1.57-1.21-1.85-.78c-1.03-.32-2.06-.37-3.09-.14-.7,0-1.35,.18-1.95,.53-.96,.31-1.79,.85-2.49,1.6h0Z"/></g></g></g></g></g></svg>