<?xml version="1.0" encoding="UTF-8"?><svg xmlns="http://www.w3.org/2000/svg" viewBox="0 0 506.64 406.62"><defs><style>.cls-1{opacity:.74;}.cls-2{opacity:.69;}.cls-3{fill:#fff;}.cls-4{opacity:.52;}.cls-5{isolation:isolate;}.cls-6{fill:#c8e6f4;}.cls-7{opacity:.47;}.cls-7,.cls-8{mix-blend-mode:multiply;}.cls-9{fill:#2680c7;}.cls-10{fill:#96daf7;}.cls-11{fill:#2280c5;}.cls-12{opacity:.16;}.cls-13{opacity:.76;}.cls-14{fill:#d04554;}.cls-15{opacity:.36;}.cls-16{mix-blend-mode:overlay;}.cls-17{fill:#f30b37;}.cls-18{opacity:.87;}.cls-19{fill:#d8edf5;}.cls-20{fill:#231f20;}.cls-21{fill:#010101;}</style></defs><g class="cls-5"><g id="Layer_2"><g id="Layer_1-2"><g><path class="cls-21" d="M492.12,354.51H61.34c-8.02,0-15.47-6.5-16.62-14.53L.15,31.08c-1.16-8.02,4.41-14.53,12.43-14.53H443.36c8.02,0,15.47,6.5,16.62,14.53l44.56,308.91c1.16,8.02-4.41,14.53-12.43,14.53Z"/><polygon class="cls-6" points="491.26 340.11 58.04 340.11 13.44 30.95 446.66 30.95 491.26 340.11"/><polygon class="cls-21" points="506.64 354.51 46.81 354.51 43.76 333.38 503.6 333.38 506.64 354.51"/><polygon class="cls-10" points="178.68 175.36 34.28 175.36 13.44 30.95 157.85 30.95 178.68 175.36"/><g class="cls-16"><polygon class="cls-19" points="323.09 175.36 178.68 175.36 157.85 30.95 302.25 30.95 323.09 175.36"/></g><polygon class="cls-10" points="343.92 319.76 199.51 319.76 178.68 175.36 323.09 175.36 343.92 319.76"/><g class="cls-16"><polygon class="cls-19" points="488.28 319.68 343.88 319.68 323.05 175.28 467.45 175.28 488.28 319.68"/></g><g class="cls-16"><polygon class="cls-9" points="201.48 333.38 57.07 333.38 55.11 319.76 199.51 319.76 201.48 333.38"/></g><polygon class="cls-11" points="345.88 333.38 201.48 333.38 199.51 319.76 343.92 319.76 345.88 333.38"/><g class="cls-7"><polygon class="cls-11" points="490.29 333.38 345.88 333.38 343.92 319.76 488.32 319.76 490.29 333.38"/></g><polygon class="cls-10" points="494.04 144.4 349.63 144.4 328.8 0 473.2 0 494.04 144.4"/><g class="cls-16"><polygon class="cls-19" points="199.57 320.13 55.16 320.13 34.33 175.72 178.73 175.72 199.57 320.13"/></g><g class="cls-13"><path class="cls-9" d="M112.65,83.31c.65,5.93-5.01,14.57-7.66,21.79-.93,2.54-1.06,2.53-3.71,1.26-5.15-2.46-10.27-5.01-15.43-7.44-1.79-.84-2.38-1.72-1.57-3.45,2.2-4.71,4.19-9.54,6.39-14.26,1.54-3.29,3.96-5.84,7.29-7.4,5.8-2.71,10.56,.18,13.56,5.9,.08,.17,.95,1.88,1.14,3.59Z"/></g><path class="cls-3" d="M73.89,123c-.65-5.93,5.01-14.57,7.66-21.79,.93-2.54,1.06-2.53,3.71-1.26,5.15,2.46,10.27,5.01,15.43,7.44,1.79,.84,2.38,1.72,1.57,3.45-2.2,4.71-4.19,9.54-6.39,14.26-1.54,3.29-3.96,5.84-7.29,7.4-5.8,2.71-10.56-.18-13.56-5.9-.08-.17-.95-1.88-1.14-3.59Z"/><path class="cls-3" d="M259.53,235.3c-13.25,0-26.62,8.17-31.9,17.36,11.54,11.86,25.65,17.36,38.9,17.36s26.62-8.17,31.9-17.36c-11.54-11.86-25.65-17.36-38.9-17.36Z"/><ellipse class="cls-10" cx="263.06" cy="252.91" rx="15.09" ry="17.43" transform="translate(-101.29 273.22) rotate(-47.06)"/><ellipse class="cls-20" cx="262.99" cy="252.41" rx="6.82" ry="7.87" transform="translate(-100.95 273) rotate(-47.06)"/><path class="cls-14" d="M432.45,62.84h-11.37c-.8,0-1.54-.65-1.66-1.45l-1.64-11.37c-.12-.8-.86-1.45-1.66-1.45h-15.83c-.8,0-1.36,.65-1.24,1.45l1.64,11.37c.12,.8-.44,1.45-1.24,1.45h-11.37c-.8,0-1.36,.65-1.24,1.45l2.28,15.83c.12,.8,.86,1.45,1.66,1.45h11.37c.8,0,1.54,.65,1.66,1.45l1.64,11.37c.12,.8,.86,1.45,1.66,1.45h15.83c.8,0,1.36-.65,1.24-1.45l-1.64-11.37c-.12-.8,.44-1.45,1.24-1.45h11.37c.8,0,1.36-.65,1.24-1.45l-2.28-15.83c-.12-.8-.86-1.45-1.66-1.45Z"/><g class="cls-2"><path class="cls-10" d="M277.15,96.8h-75.19c-1.14,0-2.2-.93-2.37-2.07l-.08-.59c-.16-1.14,.63-2.07,1.77-2.07h75.19c1.14,0,2.2,.93,2.37,2.07l.08,.59c.16,1.14-.63,2.07-1.77,2.07Z"/></g><g class="cls-18"><path class="cls-10" d="M275.46,85.11h-75.19c-1.14,0-2.2-.93-2.37-2.07l-.08-.59c-.16-1.14,.63-2.07,1.77-2.07h75.19c1.14,0,2.2,.93,2.37,2.07l.08,.59c.16,1.14-.63,2.07-1.77,2.07Z"/></g><g class="cls-4"><path class="cls-10" d="M278.83,108.5h-75.19c-1.14,0-2.2-.93-2.37-2.07l-.08-.59c-.16-1.14,.63-2.07,1.77-2.07h75.19c1.14,0,2.2,.93,2.37,2.07l.08,.59c.16,1.14-.63,2.07-1.77,2.07Z"/></g><g class="cls-15"><path class="cls-10" d="M280.52,120.19h-75.19c-1.14,0-2.2-.93-2.37-2.07l-.08-.59c-.16-1.14,.63-2.07,1.77-2.07h75.19c1.14,0,2.2,.93,2.37,2.07l.08,.59c.16,1.14-.63,2.07-1.77,2.07Z"/></g><g class="cls-12"><path class="cls-10" d="M282.21,131.88h-75.19c-1.14,0-2.2-.93-2.37-2.07l-.08-.59c-.16-1.14,.63-2.07,1.77-2.07h75.19c1.14,0,2.2,.93,2.37,2.07l.08,.59c.16,1.14-.63,2.07-1.77,2.07Z"/></g><g class="cls-1"><path class="cls-10" d="M120.68,273.46h-.11c-.12-.11-.24-.23-.37-.33-4.72-3.67-9.42-7.38-14.03-11.19-2.62-2.17-5.18-4.39-7.59-6.8-1.76-1.75-3.42-3.58-4.85-5.59-1.61-2.26-2.85-4.64-3.49-7.24-.05-.22-.12-.43-.18-.65l-.26-1.8c0-.08,.01-.15,.01-.23,0-.54-.04-1.09-.02-1.63,.19-3.57,1.59-6.44,4.23-8.59,1.83-1.49,4.02-2.33,6.5-2.61,1.71-.19,3.44-.09,5.2,.31,3.29,.76,6.22,2.35,8.76,4.78,.05,.05,.11,.09,.18,.15,.07-.09,.13-.17,.19-.25,3.25-4.25,8.86-6.04,14.61-4.6,4.12,1.04,7.47,3.37,9.91,7.02,2.13,3.18,2.89,6.56,2.62,10.04-.16,2.05-.74,3.95-1.56,5.74-1.08,2.39-2.53,4.53-4.11,6.59-1.64,2.13-3.42,4.15-5.26,6.12-3.31,3.55-6.7,7.02-10.12,10.45-.1,.1-.17,.21-.26,.31Zm-.82-5.25c.08-.08,.14-.13,.2-.19,1.86-1.92,3.73-3.82,5.58-5.75,2.14-2.23,4.25-4.49,6.21-6.89,1.46-1.78,2.84-3.63,3.98-5.65,.82-1.45,1.5-2.98,1.87-4.66,.48-2.16,.43-4.37-.4-6.64-1-2.72-2.79-4.84-5.38-6.3-2.39-1.35-4.85-1.78-7.33-1.41-2.82,.41-5.01,1.75-6.6,3.95-.78,1.08-1.56,2.17-2.34,3.25-.04,.06-.09,.11-.14,.17-.07-.07-.13-.12-.18-.17-1.13-1.12-2.25-2.23-3.38-3.35-3.35-3.32-8.28-4.85-12.45-3.47-2.52,.84-4.27,2.48-5.18,4.96-.83,2.28-.66,4.69,.22,7.17,.64,1.82,1.66,3.47,2.86,5.05,1.47,1.93,3.15,3.69,4.91,5.37,2.18,2.08,4.46,4.05,6.79,5.95,2.85,2.32,5.72,4.6,8.58,6.9,.71,.57,1.43,1.13,2.17,1.71Z"/></g><g class="cls-8"><path class="cls-17" d="M117.7,260.07s-.05,0-.08,0c-.59-.03-1.16-.4-1.45-.95l-10.09-18.8-1.55,10.19c-.1,.64-.62,1.07-1.28,1.07h-22.75c-.83,0-1.6-.67-1.72-1.5s.46-1.5,1.28-1.5h21.63l2.02-13.3c.09-.61,.58-1.04,1.22-1.07,.63-.04,1.28,.35,1.6,.95l10.62,19.79,4.42-11.78c.18-.49,.64-.8,1.18-.81,.55,.01,1.1,.28,1.44,.75l3.92,5.47h3.95c.83,0,1.6,.67,1.72,1.5s-.46,1.5-1.28,1.5h-4.82c-.54,0-1.08-.29-1.41-.75l-2.75-3.83-4.6,12.27c-.19,.5-.66,.81-1.21,.81Z"/></g><g class="cls-8"><path class="cls-17" d="M153.36,251.58h-8.4c-.83,0-1.6-.67-1.72-1.5s.46-1.5,1.28-1.5h8.4c.83,0,1.6,.67,1.72,1.5s-.46,1.5-1.28,1.5Z"/></g><g class="cls-1"><path class="cls-10" d="M409.7,275.46c-15.43,0-29.79-12.55-32.02-27.98-2.23-15.43,8.52-27.98,23.94-27.98s29.79,12.55,32.02,27.98c2.23,15.43-8.52,27.98-23.94,27.98Zm-7.5-51.96c-13.22,0-22.43,10.76-20.52,23.98,1.91,13.22,14.22,23.98,27.44,23.98s22.43-10.76,20.52-23.98-14.22-23.98-27.44-23.98Z"/></g><path class="cls-9" d="M406.19,236.07c.21,1.21-.53,2.17-1.94,2.17-1.25,0-2.27-.96-2.44-2.17s.61-2.21,1.89-2.21,2.31,.96,2.49,2.21Zm-.34,24.91l-2.81-19.45h3.54l2.81,19.45h-3.54Z"/><polygon class="cls-21" points="213.17 343.94 209.1 406.62 346.5 406.62 334.98 343.94 213.17 343.94"/><polygon class="cls-21" points="497.84 345.44 49.32 345.44 49.94 326.07 498.46 326.07 497.84 345.44"/></g></g></g></g></svg>