<?xml version="1.0" encoding="UTF-8"?><svg id="Layer_2" xmlns="http://www.w3.org/2000/svg" viewBox="0 0 441.43 463.34"><defs><style>.cls-1,.cls-2{fill:#fff;}.cls-3{fill:#9dc3b2;}.cls-4{fill:none;stroke-width:12px;}.cls-4,.cls-2{stroke:#e6e6e6;stroke-miterlimit:10;}.cls-5{fill:#e1f1f4;}.cls-6{fill:#e4f0e8;}.cls-7{fill:#005d92;}.cls-8{fill:#c36780;}.cls-9{fill:#333;}.cls-10{fill:#e6e6e6;}.cls-11{fill:#d48f70;}.cls-2{stroke-width:.75px;}.cls-12{fill:#9f6b54;}.cls-13{fill:#2280c5;}.cls-14{fill:#0b0b0b;}.cls-15{fill:#1a1a1a;}.cls-16{fill:#c26480;}.cls-17{fill:#070707;}.cls-18{fill:#060606;}</style></defs><g id="Layer_1-2"><path class="cls-5" d="M325.6,232.58c-.39,17.52,8.19,30.84,9.63,33.02,20.01,30.22,56.06,16.78,74.29,43.34,13.01,18.95,8.91,46.55,0,63.97-8.84,17.29-23.07,25.88-28.2,28.89-25.38,14.88-44.17,7.02-100.32,12.19-22.91,2.11-22.49,3.67-41.56,5.6-34.15,3.45-104.43,10.56-167.85-25.58-18.73-10.67-48.29-27.52-63.11-63.06C-1.37,307.33-.62,285.28,.91,272.48c2.25-33.69,13.56-49.9,24.08-58.47,16.22-13.21,34.36-11.33,42.96-26.45,6.86-12.07,3.23-27.21-.99-38.22-2.5-8.99-5.14-22.76-3.44-39.21,4.42-42.71,34.57-69.24,42.65-76.36C161.84-15.22,239.6,2.65,252.23,5.56c22.55,5.18,61.74,14.19,85.75,49.55,21.68,31.92,20.38,69.7,19.26,82.55-1.18,13.53-4.42,25.21-6.19,30.96-10.18,32.98-24.95,41.51-25.45,63.97Z"/><circle class="cls-5" cx="393.43" cy="230.38" r="48"/><path class="cls-6" d="M161.64,328.7c10.33-6.33,20.67-12.67,31-19"/><path class="cls-11" d="M153.86,154.01v-5.77c.52-.28,.4-.8,.49-1.26,1.5-7.58,4.87-14.12,11.41-18.45,8.5-5.62,18.03-8.69,28.16-8.9,8.13-.16,15.36,2.73,20.41,9.65,6.2,8.49,10.01,17.8,9.58,28.54-.09,2.25-.01,4.51-.01,7.32,2.18-2.71,3.45,1.25,5.98-.21,5.63-3.25,10.89-1.28,12.91,4.9,.55,1.68,.79,3.43,.62,5.21-.64,6.73-3.44,12.43-8.2,17.16-1.89,1.87-4.11,3.15-6.83,3.7-3.3,.67-6.5,.21-9.74-.12-1.81,.39-1.07-4.1-1.31-2.88-.06,.33-.13,.65-.17,.98-1.03,8.97-6.67,15.56-6.67,15.56-1.2,1.4-2.61,2.7-3.9,5.31-.7,1.42-1.05,2.58-1.15,2.93-1.09,3.77-.51,7.03,.01,9.76,.62,3.28,1.62,5.64,2.29,7.22,1.14,2.67,2.3,4.57,3.44,6.42,1.51,2.44,2.98,4.47,4.24,6.08-3.02,4.5-9.24,12.3-19.46,16.73-3.48,1.51-8.25,4.03-14,2.65-3.26-.78-6.42-1.92-9.42-3.42-3.87-1.94-7-4.72-9.2-8.5-.57-.98-.92-1.92-.64-3.16,2.18-9.63,4.14-19.31,5.45-29.12,.17-1.26,.02-2.05-1.33-2.61-3.58-1.46-5.9-4.27-7.55-7.69-1.19-2.46-2-5.05-2.51-7.73-1.79-9.3-2.14-18.72-2.49-28.15,.03-6.79,.06-13.58,.08-20.36,0-.63,.06-1.29-.48-1.79Z"/><path class="cls-16" d="M229.64,178.03c-.45,2.98-1.34,5.92-.64,8.99,.11,.47-.18,.97-.77,1.01-.69,.04-.98-.54-1.12-1.06-.56-2.11-.43-4.27-.13-6.4,.15-1.01,.57-1.99,.92-2.96,.18-.52,.44-1.14,1.14-.97,.69,.17,.56,.86,.6,1.4Z"/><path class="cls-15" d="M200.55,113.99c3.38,.2,8.64,.56,15.02,2.75,5.77,1.99,11.81,4.07,16.11,9.87,2.39,3.23,3.16,6.15,4.48,11.16,1.45,5.53,2.67,14.08,.85,17.83,0,0-1.45,3-1.61,4.93-.01,.13-.06,.88-.19,1.89-.05,.42-.13,.95-.15,1.09-.33,1.75-4.2,2.27-7.5,4.75-2.03,1.53-1.59,2.17-2.87,2.66-3,1.14-6.76-1.11-10.08-3.81-5.47-4.46-8.07-10.58-9.16-17.44-.61-3.85-1.18-7.69-.91-11.84-3.72,3.09-6.52,6.69-9.73,9.86-3.87,3.82-8.05,7.01-12.53,9.59-4.46,2.57-11.15,6.29-19.73,7.22-3.6,.39-9.05,.44-11.8,4.17-.69,.94-1.1,1.96-1.76,1.91-1.71-.12-2.59-7.17-2.8-10.83-.12-1.92-.3-4.98,.33-8.68,1.32-7.75,5.33-14.45,10.86-20.58,5.96-6.61,12.49-9.48,17.06-11.6,2.62-1.22,6.76-3.11,12.59-4.22,5.87-1.12,10.48-.87,13.53-.69Z"/><path class="cls-7" d="M137.99,241.91c3.54,.11,7.09,.3,10.63,.38-2.51,6.21-.69,11.96,2.07,17.5,1.67,3.34,4.24,3.9,7.33,1.89,2.49-1.61,4.89-3.35,7.36-5,2.66-1.79,5.33-3.56,8.03-5.3,1.57-1.01,2.78-1.06,3.69,1.02,.8,1.82,1.98,3.49,3.11,5.14,2.23,3.25,4.55,6.42,7.94,8.61,4.09,2.64,8.38,3.1,12.79,1.02,8.82-4.16,16.23-9.75,19.13-19.68,12.27,1.76,24.45,4.03,36.5,6.96,17.21,4.18,34.22,9.02,50.75,15.44,7.23,2.81,13.44,6.99,18.23,13.26,4.13,5.4,5.15,11.38,4.42,17.94-1.57,14.15-7.11,26.84-14.77,38.55-15.34,23.42-29.75,47.47-46.66,69.84-7.64,10.11-15.13,20.37-23.35,30.01-9.61,11.27-21.52,19.56-36.28,22.65-7.23,1.51-14.47,.22-21.49-2.34-10.44-3.81-20.27-8.8-29.89-14.17-8.38-4.68-12.59-7-18.18-10.5-3.73-2.34-29.66-18.72-41.89-32.53-2.36-2.67-4.99-5.11-7.34-7.8-3.76-4.32-6.01-7.44-9.33-8.46-.51-.16-1.57-.43-2.7-1.28-1.04-.79-1.29-1.43-2.8-3.68-.51-.76-1.54-2.28-2.85-3.94-1.47-1.87-1.83-2.04-2.6-3.28-.77-1.22-1.47-2.34-1.63-3.46-.67-4.82,8.54-12.58,10.16-14.91,.63-.9,.58-1.53,0-2.35-5.33-7.41-9.86-15.4-16.44-21.91-5.61-5.55-5.56-5.71-1.71-12.47,8.18-14.37,17.35-28.13,26.06-42.17,5.78-9.3,11.87-18.28,19.99-25.77,3.21-2.96,6.7-5.19,10.46-6.73,4.8-1.96,9.12-2.41,11.92-2.5m70.57,149.98c3.57-3.34,6.67-6.91,9.48-10.7,10.73-14.5,21.43-29.01,32.04-43.6,3.53-4.86,7.26-9.59,10.39-14.73,.5-.83,1.04-1.84,0-2.58-1.21-.87-1.64,.34-2.18,1.08-10.67,14.74-21.38,29.45-32,44.22-5.71,7.93-10.95,16.2-17.61,23.43-1.56,1.69-2.71,1.76-4.69,.78-22.33-11.15-43.75-23.87-64.96-36.98-5.58-3.45-11.09-7.07-17.44-9.06-1.58-.49-3.37-1.34-4.86-.24-.85,.62-1.66,.94-2.45,1.05-1.93,.25-3.81-.83-5.03-1.55-.72-.43-1.47-.97-2.72-1.33-.75-.22-1.38-.28-1.9,.03-.1,.06-.59,.36-.64,.77-.13,1.14,3.37,1.68,7.46,3.87,1.5,.81,2.85,.78,4.26-.21,1.57-1.1,3.35-1.04,5.07-.43,1.58,.56,3.14,1.21,4.63,1.98,7.98,4.14,15.43,9.17,23.04,13.91,20.75,12.94,41.84,25.27,64.21,35.26,1,.45,1.92,.73,2.46-.37,.5-1.04-.37-1.6-1.19-2.01-1.71-.85-3.43-1.66-5.36-2.6Z"/><path class="cls-18" d="M191.89,182.91c-.15-1.71,.2-3.05,.87-4.37,.51-1.01,1.2-1.46,2.26-1.31,1.1,.16,1.62,.96,1.78,1.97,.31,1.92,.15,3.82-.6,5.63-.44,1.08-1.08,2.09-2.42,1.91-1.44-.19-1.87-1.31-1.9-2.63,0-.48,0-.96,0-1.19Z"/><path class="cls-17" d="M167.49,179.8c.09,1.77-.22,3.17-.75,4.49-.32,.78-.74,1.59-1.82,1.67-1.02,.07-1.35-.73-1.78-1.36-1.17-1.72-.68-5.88,.81-7.38,.63-.64,1.37-.69,2.19-.47,.88,.24,1.34,.78,1.34,1.7,0,.56,0,1.11,0,1.35Z"/><path class="cls-14" d="M233.25,171.13c1.24-.12,1.9,.31,2.08,1.02,.22,.83-.52,.79-1.14,1.01-2.35,.84-3.4,2.93-4.43,5.02-.35,.72-.54,2-1.7,1.5-1.16-.5-.65-1.54-.29-2.48,.75-1.99,1.94-3.64,3.57-4.96,.66-.53,1.49-.87,1.91-1.1Z"/><g><path class="cls-11" d="M40.85,340.65c-2.9-2.53-5.17-5.55-6.58-9.14-1.08-2.75-.46-4.17,2-5.01,2.12,3.55,5.52,5.83,8.46,8.57,.45,.42,1.13,.91,1.63,.16,.47-.7-.22-1.14-.69-1.55-1.61-1.41-3.12-2.96-4.86-4.18-1.53-1.06-2.25-3.2-4.44-3.35-2.35-3.78-5.03-7.37-7.04-11.37-.91-1.81-1.49-3.66-.58-5.72,.93-2.08,1.91-2.55,3.89-1.45,3.01,1.67,5.78,3.75,8.27,6.07,4.92,4.58,11.3,5.62,17.29,7.63,1.81,.61,2.89-1.28,2.05-3.51-1.19-3.12-2.59-6.16-3.66-9.31-1.38-4.07-2.37-8.25-2.81-12.54-.06-.56-.19-1.14-.08-1.67,.28-1.32,.59-2.77,2.05-3.28,1.6-.56,2.34,.81,2.97,1.84,5.19,8.41,11.2,16.25,16.72,24.43,6.44,9.54,10.74,10.27,12.12,17.17,.72,3.62,0,4.99,1.38,7.99,3.4,7.4,11.05,6.23,12.56,11.09,1.64,5.26-6.87,8.17-14.56,23.06-3.14,6.09-3.71,9.45-6.14,9.72-3.26,.36-4.69-5.41-13.27-14.83-2.01-2.21-6.27-5.48-11.09-10.5-3.21-3.34-7.18-5.8-10.77-8.71-2.38-1.93-4.51-4.08-5.8-6.88-.69-1.5-1.47-3.29,1.15-3.94,.43,1.21,1.24,1.98,2.55,2.08,.3,.02,.48-.42,.5-.66,.1-1.03-2.8-2.06-3.24-2.21Z"/><path class="cls-16" d="M36.37,326.14c2.19,.15,2.91,2.29,4.44,3.35,1.74,1.21,3.26,2.77,4.86,4.18,.47,.41,1.16,.86,.69,1.55-.5,.75-1.18,.25-1.63-.16-2.94-2.73-6.34-5.02-8.46-8.57,0-.13,.02-.25,.1-.35Z"/><path class="cls-8" d="M40.85,340.65c.31,0,.69-.11,.91,.03,.92,.57,1.99,1.02,2.33,2.19,.09,.32-.16,.69-.5,.66-1.31-.1-2.12-.87-2.55-2.08-.07-.26-.13-.53-.2-.79Z"/></g><path class="cls-9" d="M199.25,391.85c1.93,.94,3.65,1.75,5.36,2.6,.82,.41,1.69,.98,1.19,2.01-.54,1.11-1.46,.82-2.46,.37-22.37-9.99-43.46-22.32-64.21-35.26-7.61-4.75-15.06-9.78-23.04-13.91-1.49-.77-3.05-1.42-4.63-1.98-1.72-.62-3.5-.67-5.07,.43-.67,.47-1.33,.72-1.99,.77-.77,.06-1.4-.14-2.28-.56-3.44-1.66-4.33-3-5.51-2.63-.44,.14-.74,.51-1.36,1.24-1.13,1.35-1.27,2.59-1.91,2.56-.15,0-.41-.19-.92-.57-.62-.46-.93-.69-.99-.94-.11-.41,.24-.7,.95-1.66,1.01-1.36,.89-1.57,1.74-2.54,.49-.56,.95-.96,1.26-1.22,.29-.23,.73-.5,1.3-.55,.71-.07,1.2,.24,2.54,1.07,2.07,1.27,2.51,1.52,3.04,1.78,1.02,.49,1.55,.74,2.25,.76,.91,.03,1.75-.28,2.35-.5,.86-.32,1.12-.56,1.85-.65,.57-.07,1.01,.01,1.41,.1,2.24,.45,3.49,.91,3.49,.91,1.17,.43,2.71,1.06,4.51,2,.41,.25,.73,.45,.96,.58,.14,.08,.38,.22,.75,.44,.13,.08,.23,.14,.3,.18,3.19,2.03,6.38,4.07,9.57,6.1,4.98,3.32,13.36,7.41,24.13,14.06,13.28,8.19,27.36,15.02,40.82,22.92,.35,.21,1.39,.82,2.59,.6,.7-.13,1.35-.57,2.1-1.38,6.66-7.23,11.9-15.5,17.61-23.43,10.63-14.77,21.33-29.49,32-44.22,.54-.75,.97-1.95,2.18-1.08,1.03,.74,.5,1.75,0,2.58-3.13,5.15-6.86,9.87-10.39,14.73-10.61,14.59-21.31,29.1-32.04,43.6-2.81,3.79-5.9,7.36-9.48,10.7Z"/><path class="cls-1" d="M237.97,152.64c-15.19,2.59-27.15,6.39-35.7,9.62,0,0-39.91,15.09-48.69,10.14-.11-.06-.21-.13-.21-.13-.46-1.52-.7-2.73-.84-3.56-.1-.64-.2-1.44,.27-1.94,.11-.12,.21-.18,.39-.27,.84-.46,1.26-.69,1.86-.89,1.59-.53,3.18-.69,3.18-.69,2.63-.26,4.78-.47,6.13-.65,2.3-.32,4.01-.83,5.27-1.21,2.73-.82,4.69-1.73,6.26-2.47,1.82-.85,4.11-2.05,6.65-3.69,3.21-2.05,5.65-3.72,6.94-4.68,1.26-.95,2.28-1.71,3.6-2.88,1.57-1.39,2.31-2.24,5.38-5.5,.81-.85,2.04-2.15,3.57-3.75,11.17-1.59,22.34-3.17,33.5-4.76,.02,0,.04-.02,.07-.02,.03,0,.06,0,.09,0,.17,.04,.24,.28,.27,.39,.87,2.97,.99,4.07,.99,4.07,.12,1.08,.11,.37,.47,2.85,.84,5.72,.73,7.2,.7,7.79-.02,.48-.06,1.26-.17,2.24Z"/><path class="cls-15" d="M204.11,197.53c4.49-1.1,8.98-2.2,13.48-3.31,2.62-7.92,5.23-15.83,7.85-23.75-2.49-.32-4.98-.63-7.47-.95-4.62,9.33-9.24,18.67-13.85,28Z"/><path class="cls-12" d="M210.19,239.44c-5.9,2.51-9.25,1.82-11.21,.79-4.89-2.58-4.49-8.85-9.94-11.01-2.12-.84-2.49,.07-6.61-.92-3.12-.74-5.54-1.89-7.11-2.75-2.48-1.72-4.97-3.44-7.45-5.16,12.9-1.89,25.81-3.77,38.71-5.66-.33,.65-.79,1.66-1.15,2.93-.82,2.88-.61,5.24-.49,6.61,.57,6.44,4.79,14.32,5.25,15.16Z"/><path class="cls-15" d="M178.73,223.26s-4.99-.57-10.85-2.87c-1.21-.47-2.5-1.05-3.9-2.06-.4-.29-1.99-1.47-3.55-3.55-.42-.55-1.96-2.67-2.98-6-.39-1.28-.23-1.19-1.16-7.14-.09-.55-.43-2.78-.87-5.77-.5-3.39-.72-5.15-.41-5.24,.11-.03,.25,.17,.41,.4,.8,1.14,.6,2.03,1.12,3.7,.24,.76,.51,1.33,.69,1.71,.26,.54,.51,1.06,.94,1.62,0,0,.74,.97,1.75,1.6,2.87,1.8,8.56-.64,8.56-.64,2.83-.94,5.25-1.24,7.07-1.32,3.76-.16,6.94,.55,11.73,1.63,4.18,.94,4.83,1.36,7.13,1.39,0,0,4.16,.06,7.34-1.6,.45-.24,.89-.51,.89-.51,.84-.52,1.4-.99,1.48-1.06,1.08-.88,11.14-6.87,13.22-4.65,.73,.78-.24,3.37-2.18,8.54-1.27,3.39-2.21,5.1-2.68,5.92-1.33,2.3-2.61,3.89-3.15,4.53-.59,.7-1.44,1.71-2.73,2.86-1.73,1.54-3.28,2.45-4.24,3.02-.91,.53-.99,.52-4.24,2.18-1.75,.89-2.69,1.39-2.97,1.53-3.46,1.76-10.14,2.5-16.4,1.79Z"/><ellipse class="cls-15" cx="166.77" cy="284.65" rx="2.35" ry="1.83" transform="translate(-143.23 397.52) rotate(-79.64)"/><ellipse class="cls-15" cx="175.16" cy="264.59" rx="2.35" ry="1.83" transform="translate(-116.62 389.32) rotate(-79.64)"/><ellipse class="cls-15" cx="170.05" cy="274.02" rx="2.35" ry="1.83" transform="translate(-130.08 392.02) rotate(-79.64)"/><path class="cls-3" d="M174.98,253.76c1.93,0,1.93-3,0-3s-1.93,3,0,3h0Z"/><path class="cls-15" d="M174.29,250.63c-8.83,12.82-15.45,27.27-18.21,42.65-.66,3.66-1.1,7.36-1.34,11.07-.13,1.93,2.87,1.92,3,0,.9-13.79,4.95-27.19,11.37-39.4,2.32-4.43,4.94-8.69,7.77-12.8,1.1-1.59-1.5-3.1-2.59-1.51h0Z"/><path class="cls-2" d="M227.26,408.3c2.75,1.25,7.87,3.36,18.11,7.57,5.85,2.4,10.7,4.37,14.04,5.72-2.53,3.44-6.2,8.27-10.88,13.88-4.1,4.93-6.15,7.39-9.03,10.15-3.49,3.35-8.66,8.23-16.66,12.1-3.71,1.79-9.45,4.06-16.99,5.08-2.12,.17-5.26,.29-9.02-.06-8.95-.84-16.17-3.88-27.75-10.1-9.9-5.32-17.1-9.82-19.26-11.16-28.87-17.96-32.67-17.45-44.69-26.39-9.07-6.75-21.43-18.14-32.67-37.66,11.39-16.5,19.8-28.44,20.89-29.92,.85-1.15,1.57-2.11,1.57-2.11,1.42-1.9,1.43-1.9,1.45-1.95,0-.02,.03-.09,.1-.14,.07-.05,.16-.06,.23-.05,.25,.13,.63,.32,1.09,.57,.52,.28,.93,.52,1.93,1.12,1.7,1.01,1.65,1,1.94,1.15,.99,.49,1.48,.74,2.08,.77,1.23,.07,2.38-.6,2.64-.76,.29-.17,.79-.53,1.59-.73,.39-.1,1.46-.44,3.48,.3,.64,.23,1.56,.58,2.66,1.05,3.1,1.31,5.51,2.67,9.07,4.83,4.02,2.43,6.45,4,6.45,4,0,0,2.18,1.41,14.95,9.41,7.32,4.58,13.08,7.93,16.93,10.16,0,0,13.55,7.85,27.13,14.75,2.06,1.04,4.19,2.1,6.72,3.29,4.6,2.15,8.04,3.56,9.24,4.06,7.27,3.03,10,4.94,16.89,8.35"/><path class="cls-4" d="M190.04,390.76c5.97-12.9,11.95-25.81,17.92-38.71,7.21-16.58,14.33-34.48,21.1-53.66,5.77-16.34,10.75-32.11,15.06-47.17"/><path class="cls-4" d="M143.27,249.91c.23-.9,.58-2.32,.54-2.35-.07-.06-1.3,4.19-1.71,5.6-8.4,28.97-13.84,74-13.84,74-5.3,43.89-5.32,77.49-5.13,91.67,0,0,.06,4.51,.18,8.98"/><path class="cls-10" d="M117.41,428.75c.26,.9,.92,1.51,1.78,1.84,.72,.28,1.58,.29,2.34,.36,1.51,.14,3.03,.23,4.55,.25,.83,.01,1.69,.07,2.46-.28,.9-.41,1.45-1.47,1.18-2.44-.52-1.86-2.79-1.56-4.27-1.57-.87,0-1.75-.05-2.61-.02-.51,.02-1,.13-1.41,.45-.21,.16-.38,.35-.5,.59-.09,.18-.15,.35-.18,.56-.01,.09-.02,.17-.03,.26-.01,.12-.01,.08,0-.11l.39-.66c.77-.23,.93-.33,.5-.31h-2.62c-.78,0-1.54,.69-1.5,1.5s.66,1.5,1.5,1.5,1.75,0,2.62,0c.57,0,1.12-.09,1.55-.5s.49-.9,.57-1.47l-.2,.76c-.17,.27-.39,.41-.66,.43-.12,.01-.11,.01,.04,0,.15,0,.3,0,.46,0h.91l1.91,.02c.3,0,.61,0,.91,0,0,0,.42,.02,.43,.01-.15,.17-.5-.39-.49-.37-.34-.33-.34-.73,.02-1.2l.11-.09c.07-.04,.3-.06,.14-.07-.31-.03-.63,0-.94,0-1.24-.01-2.49-.06-3.73-.16-.64-.05-1.27-.11-1.9-.18,0,0-.51-.09-.23-.03-.1-.02-.19-.04-.29-.07-.27-.07-.05,0,.05,.07-.2-.12,0-.04,.05,.12-.22-.75-1.07-1.3-1.85-1.05s-1.28,1.04-1.05,1.85h0Z"/><path class="cls-10" d="M119.02,431.43c1.76,.49,3.56,.82,5.38,1.02,.84,.09,1.69,.15,2.53,.18,.43,.01,.87,0,1.3,.03s.61,.04,1.03,.16c.78,.23,1.63-.28,1.85-1.05s-.27-1.62-1.05-1.85c-.89-.26-1.81-.27-2.73-.29-.85-.01-1.69-.06-2.54-.14-1.66-.16-3.34-.5-4.97-.95-1.86-.52-2.66,2.38-.8,2.89h0Z"/><path class="cls-10" d="M129.89,432.88c1.93,0,1.93-3,0-3s-1.93,3,0,3h0Z"/><path class="cls-10" d="M127.71,431.62c.33,.26,.65,.53,1.01,.76s.72,.38,1.09,.54c.66,.27,1.36,.4,2.06,.44,.37,.02,.8-.18,1.06-.44s.46-.69,.44-1.06-.14-.79-.44-1.06-.65-.41-1.06-.44c-.13,0-.25-.02-.37-.03l.4,.05c-.44-.06-.88-.18-1.29-.35l.36,.15c-.42-.18-.81-.41-1.17-.69l.3,.23c-.09-.07-.18-.14-.27-.21-.14-.15-.3-.25-.48-.31-.18-.09-.37-.14-.58-.13-.37,0-.81,.16-1.06,.44s-.46,.66-.44,1.06c.02,.37,.14,.82,.44,1.06h0Z"/><path class="cls-10" d="M119.78,431.93l.31,.07c.2,.06,.4,.07,.6,.03,.2,0,.39-.07,.56-.18,.17-.09,.32-.22,.42-.39,.13-.14,.22-.31,.27-.51l.05-.4c0-.27-.07-.52-.2-.76l-.23-.3c-.19-.19-.41-.31-.66-.39l-.31-.07c-.2-.06-.4-.07-.6-.03-.2,0-.39,.07-.56,.18-.17,.09-.32,.22-.42,.39-.13,.14-.22,.31-.27,.51l-.05,.4c0,.27,.07,.52,.2,.76l.23,.3c.19,.19,.41,.31,.66,.39h0Z"/><path class="cls-10" d="M120.49,432.22c.11,.09,.22,.17,.33,.25l.03,.02s.04,.03,.06,.04c.15,.09,.34,.15,.49,.22,.05,.02,.09,.04,.14,.05,.02,0,.05,.01,.08,.02h.04c.14,.03,.29,.05,.43,.06,.21,0,.4-.04,.58-.13,.19-.06,.35-.16,.48-.31,.15-.14,.25-.3,.31-.48,.09-.18,.14-.37,.13-.58l-.05-.4c-.07-.25-.2-.47-.39-.66l-.3-.23c-.23-.14-.49-.2-.76-.2h-.02l.4,.05c-.09-.01-.18-.04-.27-.07l.36,.15c-.08-.04-.16-.08-.23-.14l.3,.23h-.01c-.14-.16-.3-.26-.48-.32-.18-.09-.37-.14-.58-.13-.21,0-.4,.04-.58,.13-.19,.06-.35,.16-.48,.31l-.23,.3c-.14,.23-.2,.49-.2,.76l.05,.4c.07,.25,.2,.47,.39,.66h0Z"/><path class="cls-10" d="M122.85,433.19h.08c.21,0,.4-.04,.58-.13,.19-.06,.35-.16,.48-.31,.15-.14,.25-.3,.31-.48,.09-.18,.14-.37,.13-.58l-.05-.4c-.07-.25-.2-.47-.39-.66l-.3-.23c-.23-.14-.49-.2-.76-.2h-.08c-.21,0-.4,.04-.58,.13-.19,.06-.35,.16-.48,.31-.15,.14-.25,.3-.31,.48-.09,.18-.14,.37-.13,.58l.05,.4c.07,.25,.2,.47,.39,.66l.3,.23c.23,.14,.49,.2,.76,.2h0Z"/><path class="cls-10" d="M122.81,433.26c1.66,.69,3.58,.55,5.34,.56l5.7,.04c.81,0,1.5-.69,1.5-1.5s-.69-1.49-1.5-1.5l-5.49-.03c-1.63-.01-3.29,.16-4.76-.45-.75-.31-1.65,.33-1.85,1.05-.24,.86,.3,1.53,1.05,1.85h0Z"/><path class="cls-13" d="M220.08,247.49c-.33,1.06-.9,2.74-1.85,4.69-2.86,5.87-5.81,7.43-11.22,13.81-5.82,6.87-5.66,8.73-8.1,9.02-4.62,.56-9.71-5.64-12.17-8.64-1.15-1.4-.76-1.16-3.24-4.42-2.28-2.99-4.95-6.27-5.73-8.25-.02-.04-.24-.6-.65-1.29-.46-.76-.85-1.45-1.47-1.63-.64-.19-1.38,.07-2.22,.62-2.69,1.74-5.36,3.51-8.03,5.3-2.54,1.7-1.49,.86-7.36,5-5.57,3.93-6.35,4.84-7.43,4.45-1.75-.63-2.08-3.94-2.75-10.55-.28-2.79-.36-5.4-.42-7.25-.07-2.51-.07-4.61-.05-6.08,.3-.05,.59-.1,.89-.14,.18-.04,.37-.08,.57-.14,.33-.1,.62-.22,.87-.34,1.23-.61,7.61-3.79,11.97-4.91,.78-.2,2.04-.49,3.22,.1,.78,.39,1.34,1.21,2.09,2.61,2.16,4.04,5.88,6.72,9.24,9.64,.97,.84,2.62-.03,3.92-.31,9.2-1.97,18.26-4.43,27.07-7.79,2.08-.79,3.96-3.01,6.62-1.43,3.11,1.85,5.09,4.56,6.24,7.93Z"/></g></svg>